<?xml version="1.0" encoding="iso-8859-1"?>
<!-- Generator: Adobe Illustrator 19.1.0, SVG Export Plug-In . SVG Version: 6.00 Build 0)  -->
<svg version="1.1" id="Capa_1" xmlns="http://www.w3.org/2000/svg" xmlns:xlink="http://www.w3.org/1999/xlink" x="0px" y="0px"
	 viewBox="0 0 421.197 421.197" style="enable-background:new 0 0 421.197 421.197;" xml:space="preserve">
<g>
	<g>
		<path style="fill:#FFD7A3;" d="M138.212,261.462c14.716-9.475,13.07-37.675,13.07-44.255h118.446c0,6.58-1.825,34.78,12.89,44.255
			l-72.113,80.771L138.212,261.462z"/>
	</g>
	<g>
		<path style="fill:#FDC88E;" d="M256.568,289.59l26.051-28.129c-14.716-9.474-12.89-37.675-12.89-44.255H151.283
			C159.781,241.639,215.989,283.558,256.568,289.59z"/>
	</g>
	<g>
		<path style="fill:#FFE1B2;" d="M302.63,131.663c0,52.696-30.343,118.446-92.124,118.446s-92.124-65.75-92.124-118.446
			s41.246-72.384,92.124-72.384S302.63,78.967,302.63,131.663z"/>
	</g>
	<g>
		<path style="fill:#A2CDE2;" d="M361.853,421.197c10.903,0,19.741-8.838,19.741-19.741v-63.463
			c0-28.954-22.562-59.864-50.138-68.687l-41.168-13.173c-22.149,16.936-53.802,40.039-79.782,40.039s-57.633-23.103-79.782-40.039
			l-41.168,13.173c-27.576,8.823-50.138,39.733-50.138,68.687v63.463c0,10.903,8.838,19.741,19.741,19.741H361.853z"/>
	</g>
	<g>
		<path style="fill:#545465;" d="M171.024,19.797c-6.169,0-6.875,0-13.161,0c-25.439,0-46.062,20.856-46.062,46.296
			c0,23.62,6.58,65.57,6.58,65.57s7.403-33.313,39.482-46.062C177.467,77.809,171.024,19.797,171.024,19.797z"/>
	</g>
	<g>
		<path style="fill:#545465;" d="M164.444,20.031c26.458-40.675,94.592-6.814,138.187-6.814c6.58,9.459,11.104,81.02,0,118.446
			l-19.741-32.902c0,0-60.32,22.168-125.026-12.927"/>
	</g>
	<g>
		<path style="fill:#FFE1B2;" d="M121.547,144.823c-9.864-2.468-16.326,2.805-16.326,13.161c0,13.709,13.265,47.296,27.21,26.321
			S121.547,144.823,121.547,144.823z"/>
	</g>
	<g>
		<path style="fill:#FFE1B2;" d="M297.97,144.823c10.767-2.468,17.821,2.805,17.821,13.161c0,13.709-14.479,47.296-29.701,26.321
			C270.868,163.33,297.97,144.823,297.97,144.823z"/>
	</g>
	<g>
		<path style="fill:#29394A;" d="M223.666,316.282c0,3.619-2.961,6.58-6.58,6.58h-13.161c-3.619,0-6.58-2.961-6.58-6.58v-13.161
			c0-3.619,2.961-6.58,6.58-6.58h13.161c3.619,0,6.58,2.961,6.58,6.58V316.282z"/>
	</g>
	<g>
		<polygon style="fill:#29394A;" points="219.546,319.161 210.506,322.862 201.465,319.161 197.345,420.798 223.666,420.798 		"/>
	</g>
	<g>
		<path style="fill:#B5E0F0;" d="M210.506,296.171l-27.456,27.456c-2.859,2.859-7.596,2.487-9.975-0.783l-48.113-66.156
			l15.326-15.326c2.475-2.475,6.454-2.579,9.055-0.238L210.506,296.171z"/>
	</g>
	<g>
		<path style="fill:#B5E0F0;" d="M210.506,296.171l27.456,27.456c2.859,2.859,7.596,2.487,9.975-0.783l48.113-66.156l-15.326-15.326
			c-2.475-2.475-6.454-2.579-9.055-0.238L210.506,296.171z"/>
	</g>
	<g>
		<path style="fill:#4A698E;" d="M331.641,269.305l-35.877-11.48l-0.002,0l-85.163,105.012l-85.164-105.012l-0.002,0l-35.877,11.48
			c-27.576,8.823-50.138,39.733-50.138,68.687v63.464c0,10.108,7.627,18.347,17.423,19.507h153.48h0.556h153.48
			c9.797-1.16,17.423-9.399,17.423-19.507v-63.464C381.779,309.038,359.217,278.128,331.641,269.305z"/>
	</g>
	<g>
		<g>
			<polygon style="fill:#416185;" points="258.71,420.963 265.29,420.963 265.29,295.398 258.71,303.513 			"/>
		</g>
		<g>
			<polygon style="fill:#416185;" points="217.589,420.963 224.169,420.963 224.169,346.104 217.589,354.218 			"/>
		</g>
		<g>
			<polygon style="fill:#416185;" points="238.149,420.963 244.73,420.963 244.73,320.751 238.149,328.865 			"/>
		</g>
		<g>
			<polygon style="fill:#416185;" points="299.831,420.963 306.411,420.963 306.411,261.232 299.831,259.126 			"/>
		</g>
		<g>
			<polygon style="fill:#416185;" points="197.028,420.963 203.609,420.963 203.609,354.218 197.028,346.104 			"/>
		</g>
		<g>
			<path style="fill:#416185;" d="M340.952,273.236v147.727h6.58V277.162C345.396,275.722,343.204,274.406,340.952,273.236z"/>
		</g>
		<g>
			<polygon style="fill:#416185;" points="320.392,265.705 320.392,420.963 326.972,420.963 326.972,267.811 			"/>
		</g>
		<g>
			<polygon style="fill:#416185;" points="279.271,278.16 279.271,420.963 285.851,420.963 285.851,270.045 			"/>
		</g>
		<g>
			<polygon style="fill:#416185;" points="94.225,420.963 100.806,420.963 100.806,265.705 94.225,267.811 			"/>
		</g>
		<g>
			<polygon style="fill:#416185;" points="176.468,420.963 183.048,420.963 183.048,328.865 176.468,320.751 			"/>
		</g>
		<g>
			<path style="fill:#416185;" d="M53.104,297.635v122.499c1.202,0.386,2.447,0.676,3.736,0.829h2.844V289.371
				C57.323,291.98,55.121,294.738,53.104,297.635z"/>
		</g>
		<g>
			<path style="fill:#416185;" d="M361.513,420.963h2.844c1.29-0.153,2.535-0.443,3.737-0.829V297.635
				c-2.017-2.897-4.219-5.655-6.58-8.264V420.963z"/>
		</g>
		<g>
			<path style="fill:#416185;" d="M73.665,277.162v143.801h6.58V273.236C77.993,274.406,75.801,275.722,73.665,277.162z"/>
		</g>
		<g>
			<polygon style="fill:#416185;" points="155.907,420.963 162.487,420.963 162.487,303.513 155.907,295.399 			"/>
		</g>
		<g>
			<polygon style="fill:#416185;" points="135.346,420.963 141.926,420.963 141.926,278.16 135.346,270.046 			"/>
		</g>
		<g>
			<polygon style="fill:#416185;" points="114.786,261.232 114.786,420.963 121.366,420.963 121.366,259.126 			"/>
		</g>
	</g>
	<g>
		<path style="fill:#395A7F;" d="M97.824,297.262l23.127,2.891v17.017c0,2.127,1.028,4.122,2.759,5.357l86.795,61.902l0.093-21.592
			l-85.637-106.148L92.06,268.725v22.008C92.06,294.051,94.531,296.85,97.824,297.262z"/>
	</g>
	<g>
		<path style="fill:#395A7F;" d="M323.19,297.262l-23.127,2.891v17.017c0,2.127-1.028,4.122-2.759,5.357l-86.795,61.902
			l-0.093-21.592l85.637-106.148l32.902,12.036v22.008C328.954,294.051,326.483,296.85,323.19,297.262z"/>
	</g>
	<g>
		<polygon style="fill:#395A7F;" points="210.415,370.563 201.458,369.98 207.49,420.963 210.415,420.963 213.341,420.963 
			219.373,369.98 		"/>
	</g>
</g>
<g>
</g>
<g>
</g>
<g>
</g>
<g>
</g>
<g>
</g>
<g>
</g>
<g>
</g>
<g>
</g>
<g>
</g>
<g>
</g>
<g>
</g>
<g>
</g>
<g>
</g>
<g>
</g>
<g>
</g>
</svg>
