<?xml version="1.0" encoding="iso-8859-1"?>
<!-- Generator: Adobe Illustrator 19.1.0, SVG Export Plug-In . SVG Version: 6.00 Build 0)  -->
<svg version="1.1" id="Capa_1" xmlns="http://www.w3.org/2000/svg" xmlns:xlink="http://www.w3.org/1999/xlink" x="0px" y="0px"
	 viewBox="0 0 434.357 434.357" style="enable-background:new 0 0 434.357 434.357;" xml:space="preserve">
<g>
	<g>
		<path style="fill:#FF6953;" d="M131.635,184.249c0,7.238-5.922,13.161-13.161,13.161h-6.58c-7.238,0-13.161-5.922-13.161-13.161
			v-19.741c0-7.238,5.922-13.161,13.161-13.161h6.58c7.238,0,13.161,5.922,13.161,13.161V184.249z"/>
	</g>
	<g>
		<path style="fill:#FF6953;" d="M335.624,184.249c0,7.238-5.922,13.161-13.161,13.161h-6.58c-7.238,0-13.161-5.922-13.161-13.161
			v-19.741c0-7.238,5.922-13.161,13.161-13.161h6.58c7.238,0,13.161,5.922,13.161,13.161V184.249z"/>
	</g>
	<g>
		<path style="fill:#545465;" d="M329.044,171.088h-13.161v-59.223c0-54.426-44.279-98.705-98.705-98.705
			s-98.705,44.279-98.705,98.705v59.223h-13.161v-59.223C105.313,50.183,155.496,0,217.179,0s111.865,50.183,111.865,111.865
			V171.088z"/>
	</g>
	<g>
		<path style="fill:#FFD7A3;" d="M144.885,274.622c14.716-9.475,13.07-37.675,13.07-44.255h118.446c0,6.58-1.825,34.78,12.89,44.255
			l-72.113,80.771L144.885,274.622z"/>
	</g>
	<g>
		<path style="fill:#FDC88E;" d="M263.241,302.751l26.051-28.129c-14.716-9.474-12.89-37.675-12.89-44.255H157.956
			C166.454,254.8,222.662,296.719,263.241,302.751z"/>
	</g>
	<g>
		<path style="fill:#FFE1B2;" d="M309.303,144.823c0,52.696-30.343,118.446-92.124,118.446s-92.124-65.75-92.124-118.446
			S166.3,72.44,217.179,72.44S309.303,92.127,309.303,144.823z"/>
	</g>
	<g>
		<path style="fill:#FF6953;" d="M368.526,434.357c10.903,0,19.741-8.838,19.741-19.741v-63.463
			c0-28.954-22.562-59.864-50.138-68.687l-41.168-13.173c-22.149,16.936-53.802,40.039-79.782,40.039s-57.633-23.103-79.782-40.039
			l-41.168,13.173c-27.576,8.823-50.138,39.733-50.138,68.687v63.463c0,10.903,8.838,19.741,19.741,19.741H368.526z"/>
	</g>
	<g>
		<path style="fill:#FFAC89;" d="M309.303,26.377c-43.506,0-111.445-33.711-138.018,6.58c-1.774,0-3.532,0-6.749,0
			c-25.439,0-46.062,20.856-46.062,46.296c0,23.62,6.58,78.674,6.58,78.674s13.983-41.538,39.482-65.803
			c0.007-0.007,125.026,13.161,125.026,13.161l19.741,52.643C320.407,120.502,315.883,35.837,309.303,26.377z"/>
	</g>
	<g>
		<path style="fill:#545465;" d="M138.215,197.41c0,7.238-5.922,13.161-13.161,13.161h-6.58c-7.238,0-13.161-5.922-13.161-13.161
			v-46.062c0-7.238,5.922-13.161,13.161-13.161h6.58c7.238,0,13.161,5.922,13.161,13.161V197.41z"/>
	</g>
	<g>
		<path style="fill:#545465;" d="M329.044,197.41c0,7.238-5.922,13.161-13.161,13.161h-6.58c-7.238,0-13.161-5.922-13.161-13.161
			v-46.062c0-7.238,5.922-13.161,13.161-13.161h6.58c7.238,0,13.161,5.922,13.161,13.161V197.41z"/>
	</g>
	<g>
		<g>
			<g>
				<path style="fill:#545465;" d="M202.526,157.928v4.935c0,14.514-11.808,26.321-26.321,26.321h-6.58
					c-7.257,0-13.161-5.904-13.161-13.161v-18.096H202.526 M202.526,151.347h-46.062c-3.634,0-6.58,2.946-6.58,6.58v18.096
					c0,10.903,8.838,19.741,19.741,19.741h6.58c18.171,0,32.902-14.731,32.902-32.902v-4.935
					C209.107,154.294,206.161,151.347,202.526,151.347L202.526,151.347z"/>
			</g>
		</g>
		<g>
			<g>
				<path style="fill:#545465;" d="M278.074,157.928v18.096c0,7.257-5.904,13.161-13.161,13.161h-6.58
					c-14.514,0-26.321-11.808-26.321-26.321v-4.935H278.074 M278.074,151.347h-46.062c-3.634,0-6.58,2.946-6.58,6.58v4.935
					c0,18.171,14.731,32.902,32.902,32.902h6.58c10.903,0,19.741-8.838,19.741-19.741v-18.096
					C284.654,154.294,281.708,151.347,278.074,151.347L278.074,151.347z"/>
			</g>
		</g>
		<g>
			<g>
				<polygon style="fill:#545465;" points="125.054,151.347 156.464,151.347 156.464,167.001 125.054,159.434 				"/>
			</g>
		</g>
		<g>
			<g>
				<polygon style="fill:#545465;" points="309.484,151.347 278.074,151.347 278.074,167.001 309.484,159.434 				"/>
			</g>
		</g>
		<g>
			<g>
				<path style="fill:#545465;" d="M232.299,167.001h-6.58c0-2.847-3.949-5.347-8.45-5.347s-8.45,2.5-8.45,5.347h-6.58
					c0-6.69,6.603-11.927,15.031-11.927S232.299,160.312,232.299,167.001z"/>
			</g>
		</g>
	</g>
	<g>
		<g>
			<path style="fill:#FF6953;" d="M309.303,26.377c-43.506,0-111.445-33.711-138.018,6.58c-1.774,0-3.532,0-6.749,0
				c-18.024,0-33.589,10.494-41.155,25.645c59.472,70.481,152.214,56.589,192.467,46.158
				C316.87,69.225,313.511,32.426,309.303,26.377z"/>
		</g>
	</g>
	<g>
		<path style="fill:#FF6953;" d="M202.526,157.928v4.935c0,14.514-11.808,26.321-26.321,26.321h-6.58
			c-7.257,0-13.161-5.904-13.161-13.161v-18.096H202.526"/>
	</g>
	<g>
		<path style="fill:#FF6953;" d="M232.011,157.928v4.935c0,14.514,11.808,26.321,26.321,26.321h6.58
			c7.257,0,13.161-5.904,13.161-13.161v-18.096H232.011"/>
	</g>
	<g>
		<path style="fill:#FF4F38;" d="M111.894,361.918l-44.169-60.899c-13.041,13.704-21.634,32.282-21.634,50.134v63.463
			c0,10.903,8.838,19.741,19.741,19.741h46.062V361.918z"/>
	</g>
	<g>
		<path style="fill:#FF4F38;" d="M322.464,361.918l44.169-60.899c13.041,13.704,21.634,32.282,21.634,50.134v63.463
			c0,10.903-8.838,19.741-19.741,19.741h-46.062V361.918z"/>
	</g>
	<g>
		<path style="fill:#FF4F38;" d="M217.179,329.016c32.685,0,68.331-26.875,102.046-52.599l-22.264-7.124
			c-22.149,16.936-53.802,40.039-79.782,40.039s-57.633-23.103-79.782-40.039l-22.264,7.124
			C148.848,302.141,184.494,329.016,217.179,329.016z"/>
	</g>
	<g>
		<path style="fill:#FFAC89;" d="M217.179,368.498c-36.342,0-65.803,29.461-65.803,65.803h131.606
			C282.982,397.959,253.521,368.498,217.179,368.498z"/>
	</g>
</g>
<g>
</g>
<g>
</g>
<g>
</g>
<g>
</g>
<g>
</g>
<g>
</g>
<g>
</g>
<g>
</g>
<g>
</g>
<g>
</g>
<g>
</g>
<g>
</g>
<g>
</g>
<g>
</g>
<g>
</g>
</svg>
