<?xml version="1.0" encoding="iso-8859-1"?>
<!-- Generator: Adobe Illustrator 19.1.0, SVG Export Plug-In . SVG Version: 6.00 Build 0)  -->
<svg version="1.1" id="Capa_1" xmlns="http://www.w3.org/2000/svg" xmlns:xlink="http://www.w3.org/1999/xlink" x="0px" y="0px"
	 viewBox="0 0 425.555 425.555" style="enable-background:new 0 0 425.555 425.555;" xml:space="preserve">
<g>
	<g>
		<path style="fill:#FFE1B2;" d="M123.819,149.182c-9.864-2.468-16.326,2.805-16.326,13.161c0,13.709,13.265,47.296,27.21,26.321
			S123.819,149.182,123.819,149.182z"/>
	</g>
	<g>
		<path style="fill:#FFE1B2;" d="M300.242,149.182c10.767-2.468,17.821,2.805,17.821,13.161c0,13.709-14.479,47.296-29.701,26.321
			S300.242,149.182,300.242,149.182z"/>
	</g>
	<g>
		<path style="fill:#FFBE1E;" d="M344.384,76.048c0,36.342-58.922,39.208-131.606,39.208S81.171,112.39,81.171,76.048
			S140.094,0,212.778,0S344.384,39.706,344.384,76.048z"/>
	</g>
	<g>
		<path style="fill:#FFD7A3;" d="M140.484,265.82c14.716-9.475,13.07-37.675,13.07-44.255h118.446c0,6.58-1.825,34.78,12.89,44.255
			l-72.113,80.771L140.484,265.82z"/>
	</g>
	<g>
		<path style="fill:#FDC88E;" d="M258.84,293.949l26.051-28.129c-14.716-9.474-12.89-37.675-12.89-44.255H153.555
			C162.053,245.998,218.261,287.917,258.84,293.949z"/>
	</g>
	<g>
		<path style="fill:#FFE1B2;" d="M304.902,136.021c0,52.696-30.343,118.446-92.124,118.446s-92.124-65.75-92.124-118.446
			s41.246-52.259,92.124-52.259S304.902,83.325,304.902,136.021z"/>
	</g>
	<g>
		<path style="fill:#7E5449;" d="M141.934,101.855c-4.231,0.08-8.456-0.204-12.684-0.298c-1.675-0.037-3.504,0.189-5.16-0.007
			c-0.241-0.029-0.292-0.055-0.436-0.084c-3.25,0.488-6.46,0.559-9.574,0.199c0.907,19.52,3.733,38.317,6.022,47.094l11.789,4.661
			l21.894-52.645C149.857,101.435,145.864,101.78,141.934,101.855z"/>
	</g>
	<g>
		<path style="fill:#7E5449;" d="M296.06,106.793c-6.672,0.113-13.316,0.838-19.845,0.688l18.061,45.046l11.29-3.804
			c0,0,2.455-25.076,4.299-45.292C305.549,105.491,300.839,106.712,296.06,106.793z"/>
	</g>
	<g>
		<ellipse style="fill:#29394A;" cx="213.006" cy="103.374" rx="99.243" ry="23.724"/>
	</g>
	<g>
		<path style="fill:#29394A;" d="M364.125,425.555c10.903,0,19.741-8.838,19.741-19.741v-63.463
			c0-28.954-22.562-59.864-50.138-68.687l-41.168-13.173c-22.149,16.936-53.802,40.039-79.782,40.039s-57.633-23.103-79.782-40.039
			l-41.168,13.173c-27.576,8.823-50.138,39.733-50.138,68.687v63.463c0,10.903,8.838,19.741,19.741,19.741H364.125z"/>
	</g>
	<g>
		<path style="fill:#936448;" d="M252.26,425.322h114.183c9.797-1.16,17.423-9.399,17.423-19.507v-63.464
			c0-28.954-22.562-59.864-50.138-68.687l-35.877-11.48l-0.002,0L252.26,425.322z"/>
	</g>
	<g>
		<path style="fill:#936448;" d="M127.707,262.183l-0.002,0l-35.877,11.48c-27.576,8.823-50.138,39.733-50.138,68.687v63.464
			c0,10.108,7.627,18.347,17.423,19.507h114.183L127.707,262.183z"/>
	</g>
	<g>
		<path style="fill:#7E5449;" d="M212.778,196.861c0-6.169-8.431-7.566-13.983-6.07c-10.179,2.741-21.386,10.388-30.845,5.659
			c0,0,3.29,9.87,8.841,9.87C187.895,206.32,212.778,207.349,212.778,196.861z"/>
	</g>
	<g>
		<path style="fill:#7E5449;" d="M212.688,196.861c0-6.169,8.431-7.566,13.983-6.07c10.179,2.741,21.386,10.388,30.845,5.659
			c0,0-3.29,9.87-8.841,9.87C237.571,206.32,212.688,207.349,212.688,196.861z"/>
	</g>
	<g>
		<path style="fill:#936448;" d="M113.763,89.198v14.48c21.676-3.809,58.023-6.311,99.243-6.311s77.568,2.502,99.243,6.311v-14.48
			c-21.675-10.547-58.023-17.473-99.243-17.473S135.439,78.651,113.763,89.198z"/>
	</g>
	<g>
		<g>
			<rect x="175.489" y="24.745" style="fill:#29394A;" width="15.354" height="15.354"/>
		</g>
		<g>
			<rect x="190.843" y="40.099" style="fill:#29394A;" width="15.354" height="15.354"/>
		</g>
		<g>
			<rect x="206.197" y="24.745" style="fill:#29394A;" width="15.354" height="15.354"/>
		</g>
		<g>
			<rect x="221.551" y="40.099" style="fill:#29394A;" width="15.354" height="15.354"/>
		</g>
		<g>
			<rect x="236.906" y="24.745" style="fill:#29394A;" width="15.354" height="15.354"/>
		</g>
	</g>
</g>
<g>
</g>
<g>
</g>
<g>
</g>
<g>
</g>
<g>
</g>
<g>
</g>
<g>
</g>
<g>
</g>
<g>
</g>
<g>
</g>
<g>
</g>
<g>
</g>
<g>
</g>
<g>
</g>
<g>
</g>
</svg>
