<?xml version="1.0" encoding="iso-8859-1"?>
<!-- Generator: Adobe Illustrator 19.1.0, SVG Export Plug-In . SVG Version: 6.00 Build 0)  -->
<svg version="1.1" id="Capa_1" xmlns="http://www.w3.org/2000/svg" xmlns:xlink="http://www.w3.org/1999/xlink" x="0px" y="0px"
	 viewBox="0 0 420.704 420.704" style="enable-background:new 0 0 420.704 420.704;" xml:space="preserve">
<g>
	<g>
		<path style="fill:#B06E53;" d="M151.499,12.724l35.822,224.828l-69.093,34.292C48.586,220.846,56.811,12.724,151.499,12.724z"/>
	</g>
	<g>
		<path style="fill:#B06E53;" d="M151.499,12.724c11.516-6.992,72.293-24.749,118.446,0c56.755,30.434,99.432,144.767,41.305,259.12
			c-0.088,0.173-54.223-27.853-54.223-27.853L151.499,12.724z"/>
	</g>
	<g>
		<path style="fill:#FFD7A3;" d="M256.772,232.084h-0.358v-15.37H164.29v15.354c0,15.042-0.063,31.392-13.161,41.282v147.354h59.223
			c0,0,31.011,0,59.223,0V273.12C256.812,263.205,256.772,246.997,256.772,232.084z"/>
	</g>
	<g>
		<path style="fill:#527992;" d="M309.057,282.517h-2.193c-24.994,0-37.508-6.641-43.869-16.165l-52.643,31.382l-52.643-31.382
			c-6.361,9.524-18.875,16.165-43.869,16.165h-2.193c-39.976,0-72.384,32.407-72.384,72.384v46.062
			c0,10.902,8.838,19.741,19.741,19.741H170.87h23.163h32.638h36.323h98.705c10.903,0,19.741-8.839,19.741-19.741V354.9
			C381.44,314.924,349.033,282.517,309.057,282.517z"/>
	</g>
	<g>
		<path style="fill:#FDC88E;" d="M262.994,302.258c2.401,0.655,4.563,1.004,6.58,1.174V273.12
			c-12.762-9.915-12.803-26.124-12.803-41.037h-0.358v-15.37H184.03l-19.741,6.58C177.45,238.1,217.755,289.92,262.994,302.258z"/>
	</g>
	<g>
		<path style="fill:#FFE1B2;" d="M302.476,131.169c0,52.696-52.408,118.446-92.124,118.446s-92.124-65.75-92.124-118.446
			s41.246-72.384,92.124-72.384S302.476,78.473,302.476,131.169z"/>
	</g>
	<g>
		<path style="fill:#B06E53;" d="M197.561,25.884c3.697,0,15.701,4.154,25.512,7.794l0.809-1.214c0,0,1.354,1.064,3.698,2.908
			c5.457,2.072,9.462,3.672,9.462,3.672l-1.539,2.566c24.976,19.678,81.96,64.693,87.084,69.818
			c6.58,6.58-39.482,174.464-39.482,78.964c0-79.786-44.327-95.587-85.544-105.285c-18.644-4.387-24.128-15.354-26.321-26.321
			C169.046,47.819,190.981,25.884,197.561,25.884z"/>
	</g>
	<g>
		<path style="fill:#B06E53;" d="M177.82,70.407c0,0-19.7,71.876-71.108,113.405c-9.949,8.037,5.305-85.544,5.305-85.544
			s17.548-44.966,19.741-46.062c2.193-1.097,19.741-39.482,19.741-39.482l19.587,31.668L177.82,70.407z"/>
	</g>
	<g>
		<path style="fill:#D0D7DC;" d="M210.352,297.734l-51.997-32.269l-16.089,12.754c0,0,8.315,48.989,35.184,48.989
			C204.046,327.208,210.352,297.734,210.352,297.734z"/>
	</g>
	<g>
		<path style="fill:#D0D7DC;" d="M210.352,297.734l51.997-32.269l16.089,12.754c0,0-8.315,48.989-35.184,48.989
			C216.658,327.208,210.352,297.734,210.352,297.734z"/>
	</g>
	<g>
		<path style="fill:#D0D7DC;" d="M309.057,282.517h-2.193c-4.003,0-7.578-0.227-10.967-0.552v73.125
			c0,3.012-1.999,5.675-4.923,6.395c-22.275,5.486-50.216,8.77-80.621,8.77s-58.346-3.284-80.621-8.77
			c-2.925-0.72-4.923-3.383-4.923-6.395v-73.125c-3.389,0.325-6.964,0.552-10.967,0.552h-2.193c-4.501,0-8.887,0.467-13.161,1.253
			v136.934h26.321h171.088h26.321V283.77C317.943,282.984,313.558,282.517,309.057,282.517z"/>
	</g>
	<g>
		<path style="fill:#E4EBF0;" d="M124.808,394.372v26.331h171.088v-26.331c0-4.203-3.877-7.369-7.971-6.419
			c-21.752,5.047-48.539,8.041-77.573,8.041s-55.821-2.995-77.573-8.041C128.685,387.003,124.808,390.17,124.808,394.372z"/>
	</g>
</g>
<g>
</g>
<g>
</g>
<g>
</g>
<g>
</g>
<g>
</g>
<g>
</g>
<g>
</g>
<g>
</g>
<g>
</g>
<g>
</g>
<g>
</g>
<g>
</g>
<g>
</g>
<g>
</g>
<g>
</g>
</svg>
