<?xml version="1.0" encoding="iso-8859-1"?>
<!-- Generator: Adobe Illustrator 19.1.0, SVG Export Plug-In . SVG Version: 6.00 Build 0)  -->
<svg version="1.1" id="Capa_1" xmlns="http://www.w3.org/2000/svg" xmlns:xlink="http://www.w3.org/1999/xlink" x="0px" y="0px"
	 viewBox="0 0 421.141 421.141" style="enable-background:new 0 0 421.141 421.141;" xml:space="preserve">
<g>
	<g>
		<path style="fill:#FFE1B2;" d="M121.531,138.187c-9.864-2.468-16.326,2.805-16.326,13.161c0,13.709,13.265,47.296,27.21,26.321
			S121.531,138.187,121.531,138.187z"/>
	</g>
	<g>
		<path style="fill:#FFE1B2;" d="M297.954,138.187c10.767-2.468,17.821,2.805,17.821,13.161c0,13.709-14.479,47.296-29.701,26.321
			S297.954,138.187,297.954,138.187z"/>
	</g>
	<g>
		<path style="fill:#FFD7A3;" d="M138.196,262.146c14.716-9.475,13.07-37.675,13.07-44.255h118.446c0,6.58-1.825,34.78,12.89,44.255
			l-72.113,80.771L138.196,262.146z"/>
	</g>
	<g>
		<g>
			<path style="fill:#A7A07C;" d="M39.766,376.564c0.025-13.731,0.038-27.461,0.089-41.192c0.006-1.532-0.043-3.095,0.522-4.574
				c1.266-0.304,1.907,0.732,2.703,1.333c9.159,6.911,19.08,12.35,30.057,15.815c7.045,2.224,13.959,2.827,21.287,0.68
				c8.908-2.61,17.392-0.496,25.159,4.416c4.675,2.956,9.003,6.409,13.467,9.669c9.665,7.059,20.338,11.829,32.16,13.92
				c1.613,0.285,3.154,0.78,4.623,1.506c8.2,3.427,16.494,6.567,25.385,7.655c8.795,1.076,17.53,0.521,26.18-1.369
				c9.48-2.072,19.094-3.024,28.765-3.541c3.068-0.164,6.003,0.229,8.734,1.737c1.22,0.674,2.522,1.162,3.906,1.337
				c5.096,0.645,9.922,2.559,15.033,3.156c1.524,0.178,3.19,0.504,3.247,2.608c0.042,1.563-1.276,2.788-3.492,3.123
				c-4.309,0.651-8.402-0.454-12.462-1.701c-0.854-0.262-1.712-0.562-2.493-0.99c-6.004-3.287-12.387-3.02-18.783-1.826
				c-3.421,0.638-6.884,1.309-10.076,2.839c-1.313,0.629-2.49,1.363-1.852,3.147c1.378,2.019,3.658,2.641,5.711,3.469
				c6.977,2.813,14.353,4.035,21.76,5.025c3.117,0.416,6.155-0.233,9.057-1.386c10.29-4.087,19.38-1.035,28.032,4.662
				c0.676,0.445,1.299,0.973,1.856,1.569c2.467,2.637,3.794,6.261,0.068,9.577c-2.768,2.49-6.112,2.339-9.464,1.995
				c-1.615-0.166-3.211-0.537-4.766-1.017c-12.585-3.877-25.573-5.373-38.604-6.714c-4.96-0.51-9.905-0.286-14.856-0.397
				c-1.222-0.028-2.442,0.038-3.628,0.369c-2.535,0.708-2.899,2.058-1.091,4.04c1.856,2.034,4.101,2.856,6.82,2.15
				c5.798-1.504,11.721-1.641,17.659-1.636c3.528,0.003,6.691,1.2,9.676,2.959c0.772,0.455,1.526,0.981,1.471,2.055
				c-16.475,0-32.95-0.001-49.426-0.001c-4.912-1.497-9.631-3.613-14.709-4.577c-3.864-0.618-7.592-1.767-11.307-2.954
				c-6.193-1.979-12.279-4.297-18.557-5.999c-3.633-0.985-6.599-3.081-9.557-5.233c-1.905-1.386-3.769-2.81-5.883-3.899
				c-4.236-2.183-8.289-1.87-12.257,0.632c-2.555,1.611-4.903,3.519-7.063,5.592c-3.96,3.8-8.503,6.78-13.012,9.833
				c-5.317,3.106-10.79,2.39-16.259,0.567c-4.089-1.363-8.039-3.103-11.969-4.861c-9.818-4.392-19.9-4.881-30.279-2.454
				c-5.621,1.314-11.311,2.311-17.14,1.961c-1.024,0.01-2.043-0.002-2.881-0.724c-2.007-3.661-1.538-7.657-1.564-11.586
				c0.135-0.257,0.337-0.442,0.602-0.558c3.177-0.461,6.302,0.251,9.443,0.485c6.212,0.463,12.344,0.236,18.356-1.53
				c5.711-1.678,8.13-5.678,7.999-12.924c-0.058-3.219-2.442-5.46-6.188-6.304c-4.495-1.013-9.068-0.714-13.6-0.33
				c-4.45,0.377-8.91,0.668-13.349,1.185c-0.883,0.103-1.79,0.083-2.656-0.227C40.103,377.007,39.903,376.819,39.766,376.564z"/>
		</g>
		<g>
			<path style="fill:#A6855A;" d="M169.316,378.607c-3.179-1.55-6.731-1.629-10.074-2.544c-11.266-3.084-21.287-8.504-30.471-15.666
				c-5.101-3.977-10.241-7.955-16.441-10.229c-5.885-2.159-11.945-2.771-17.872-0.891c-6.897,2.187-13.532,1.692-20.263-0.322
				c-12.516-3.744-23.68-9.99-33.817-18.157c0.586-5.615,1.917-11.029,4.363-16.142c5.772-2.724,11.516-5.402,18.101-2.474
				c2.754,1.225,5.451,2.548,8.126,3.926c2.196,1.131,3.675,2.911,4.598,5.178c0.46,1.13,0.97,2.245,1.319,3.414
				c0.793,2.655,2.582,4.3,5.186,5.034c3.129,0.882,6.259,1.82,9.55,1.874c1.385,0.022,2.567,0.445,3.437,1.538
				c1.047,1.316,2.429,1.804,4.056,1.887c4.709,0.238,9.118,1.634,13.296,3.731c3.347,1.68,6.813,3.096,10.176,4.735
				c6.773,2.612,13.715,4.511,20.992,5.012c3.139,0.493,6.295,0.801,9.47,0.61c10.161-0.614,19.847,1.722,29.463,4.604
				c6.3,1.888,12.533,4.044,19.061,5.087c7.427,2.377,14.835,1.711,22.233-0.143c5.299-1.14,10.473-2.625,16.02-2.784
				c9.594-0.276,16.609,4.127,22.604,10.929c1.179,1.338,2.269,2.755,2.995,4.421c0.758,1.74,0.958,3.432-0.164,5.102
				c-3.431,2.882-7.527,2.626-11.587,2.39c-6.34-0.369-12.573-1.57-18.836-2.543c-9.093-1.413-18.149-0.559-27.208,0.489
				c-9.761,1.13-19.479,2.699-29.347,2.752C175.251,379.438,172.323,378.666,169.316,378.607z"/>
		</g>
		<g>
			<path style="fill:#80795E;" d="M191.833,293.556c8.919,2.84,17.965,4.284,27.318,2.578c8.27-1.509,16.046-4.441,23.571-8.102
				c14.061-6.84,26.848-15.691,39.365-24.966c0.775-0.575,1.581-1.108,2.372-1.661c9.798,4.708,20.261,5.045,30.826,4.653
				c1.123-0.042,2.247,0.043,3.366-0.079c10.162,3.217,20.516,5.914,29.363,12.337c6.938,5.037,13.221,10.677,18.121,17.761
				c-0.58,0.71-1.41,0.778-2.22,0.796c-7.232,0.153-14.475-0.221-21.696,0.498c-0.643,0.064-1.3-0.037-1.918-0.259
				c-1.514-0.952-0.263-1.431,0.403-1.814c1.27-0.729,2.756-0.962,4.085-1.575c0.586-0.27,1.26-0.53,1.322-1.29
				c0.072-0.873-0.609-1.274-1.252-1.629c-1.246-0.686-2.614-0.853-4.01-0.838c-5.443,0.059-10.862-0.063-16.273-0.873
				c-3.698-0.553-7.052,0.456-9.775,3.267c-2.712,2.799-5.923,3.094-9.393,1.5c-1.188-0.546-2.342-1.178-3.335-2.005
				c-5.308-4.422-11.604-4.79-18.006-4.204c-13.604,1.245-25.943,6.32-37.712,12.967c-1.982,1.119-3.859,2.424-5.556,3.944
				c-2.569,2.3-2.837,3.868-1.367,7.035c0.204,0.439,0.46,0.879,0.029,1.334c-3.19,0.633-6.291-0.289-9.382-0.723
				c-3.95-0.554-7.926-0.685-11.877-1.156c-2.765-0.33-5.505,0.114-8.213,0.769c-6.33,1.531-12.53,3.457-18.579,5.879
				c-1.095,0.438-2.187,1.199-3.476,0.552c-0.449-0.632,0.079-1.049,0.346-1.514c1.45-2.529,1.202-4.516-0.992-6.491
				c-2.403-2.163-5.235-3.509-8.404-4.219c-5.96-1.335-12.104-1.489-18.055-2.892c-2.163-0.51-4.22-1.21-6.113-2.357
				c-2.103-1.273-2.691-2.923-1.708-5.186c1.388-3.193,3.813-4.916,7.382-5.048c5.804-0.215,11.557,0.227,17.191,1.574
				C182.291,293.246,187.093,293.006,191.833,293.556z"/>
		</g>
		<g>
			<path style="fill:#A7A07C;" d="M191.833,293.556c-6.308,1.099-12.396-0.442-18.522-1.539c-4.576-0.82-9.192-1.081-13.825-0.768
				c-2.76,0.186-5.641,2.772-6.248,5.423c-0.381,1.667,0.301,2.772,1.758,3.611c3.542,2.038,7.509,2.483,11.413,3.162
				c4.147,0.722,8.352,1.027,12.491,1.867c3.376,0.686,6.275,2.196,8.869,4.33c2.993,2.462,2.982,5.616,0.118,8.495
				c-0.745,1.358-2.101,1.687-3.441,2.05c-8.14,1.388-16.253,0.87-24.389-0.148c-8.272-1.035-16.528-2.207-24.82-3.087
				c-0.801-0.085-1.625-0.09-2.348-0.527c-0.68-0.664-0.039-0.996,0.38-1.308c0.652-0.486,1.451-0.73,2.135-1.169
				c0.548-0.352,1.162-0.719,1.04-1.496c-0.13-0.819-0.799-1.219-1.499-1.455c-2.299-0.774-4.651-0.601-6.99-0.234
				c-1.283,0.201-2.551,0.531-3.79,0.913c-3.783,1.164-7.448,0.6-10.435-1.734c-7.333-5.728-15.859-6.575-24.647-6.783
				c-6.759-0.16-13.476,0.196-20.15,1.292c-0.808,0.133-1.616,0.168-2.42-0.035c-3.724-1.548-7.444-3.11-11.274-4.396
				c-0.723-0.243-1.883-0.26-1.701-1.58c3.507-6.001,8.411-10.779,13.53-15.354c1.435-1.282,3.036-2.379,4.56-3.56
				c1.642-0.129,2.853-1.148,4.03-2.108c5.447-4.448,10.159-1.959,13.112,2.233c0.422,0.599,0.839,1.203,1.19,1.844
				c0.995,1.819,2.546,2.682,4.585,2.701c4.132,0.038,8.194,0.189,12.206-1.53c3.769-1.615,7.954-1.776,12.019-1.226
				c7.558,1.024,14.704,0.104,21.519-3.495c3.226-1.703,6.719-2.889,9.888-4.739c0.64-0.373,1.34-0.583,2.089-0.595
				c6.265,3.872,12.35,8.03,18.821,11.576C177.768,287.848,184.648,291.032,191.833,293.556z"/>
		</g>
		<g>
			<path style="fill:#7B5F4E;" d="M184.872,319.5c1.005-0.454,2.011-0.908,3.016-1.362c5.037-1.488,9.925-3.431,14.862-5.191
				c8.946-3.188,17.915-2.86,27.033-1.479c3.268,0.495,6.562,0.816,9.844,1.217c1.206-0.333,2.219,0.333,3.279,0.674
				c7.216,2.322,14.46,4.3,22.176,4.095c4.526-0.12,8.646-1.291,12.55-3.426c3.992-2.183,7.831-4.632,11.932-6.628
				c6.732-3.278,13.634-3.909,20.857-1.89c4.302,1.203,8.662,2.213,13.194,2.136c2.287-0.039,4.567-0.271,6.778-0.725
				c6.652-1.365,13.424-1.102,20.129-1.712c1.625-0.148,3.244-0.249,4.785-0.815c0.535-0.197,1.075-0.509,1.132-1.154
				c0.067-0.747-0.459-1.198-1.039-1.515c-1.295-0.707-2.68-0.466-4.056-0.31c-4.117,0.468-8.232,0.957-12.391,0.783
				c-1.058-0.044-2.116-0.062-3.137-0.376c-2.123-0.652-2.483-2.045-0.798-3.53c1.279-1.127,2.716-2.098,4.603-1.739
				c8.832-0.499,17.674-0.456,26.515-0.477c5.883,7.445,10.111,15.735,12.681,24.87c-0.28,1.514-1.468,1.065-2.278,0.876
				c-4.1-0.961-8.03-0.427-12.016,0.774c-3.902,1.175-7.968,1.714-12.055,1.586c-8.628-0.27-17.24,0.321-25.845,0.613
				c-14.692,0.498-29.408,1.117-44.012,2.898c-5.728,0.699-11.451,1.339-17.198,1.797c-3.506,0.279-6.908,1.142-10.29,2.007
				c-3.842,0.983-7.716,1.145-11.627,0.965c-4.078-0.187-5.185-1.591-4.522-5.551c0.668-3.995-0.36-5.253-4.28-6.038
				c-4.958-0.993-9.519,0.07-13.973,2.117c-2.665,1.225-5.17,2.75-7.754,4.119c-4.119,2.908-8.311,5.708-12.941,7.76
				c-1.966,0.871-4.004,1.641-5.793-0.424c-0.982-1.72,0.256-2.892,1.021-4.194c0.469-0.798,1.555-1.486,0.937-2.556
				c-0.587-1.017-1.8-1.169-2.829-1.064c-3.79,0.387-7.595,0.838-10.913,2.948c-1.12,0.712-2.254,1.244-3.577,1.421
				c-2.729,0.364-5.433,0.751-8.005,1.905c-1.729,0.776-3.664,0.708-5.498,0.151c-1.037-0.315-2.002-0.913-2.132-2.102
				c-0.138-1.258,0.816-1.982,1.814-2.312c4.267-1.41,7.946-4.07,12.141-5.614C179.845,322.052,182.161,320.347,184.872,319.5z"/>
		</g>
		<g>
			<path style="fill:#7B5F4E;" d="M66.327,303.866c7.261-0.624,14.484-1.724,21.812-1.484c4.058,0.133,8.089,0.373,12.105,1.003
				c4.402,0.691,8.486,2.08,12.024,4.874c4.067,3.213,8.509,4.062,13.469,2.297c3.118-1.109,6.348-1.357,9.546-0.247
				c1.04,0.361,2.289,0.686,2.382,2.102c0.092,1.419-1.065,1.874-2.091,2.366c-0.931,0.446-1.879,0.856-2.819,1.281
				c2.222,2.253,5.085,2.815,8.051,2.813c2.774-0.002,5.509,0.283,8.254,0.576c1.973,0.211,3.559,1.04,4.672,2.722
				c0.538,0.813,1.146,1.567,1.843,2.262c1.803,1.798,1.9,3.381,0.206,5.291c-2.087,2.352-4.914,3.055-7.911,3.177
				c-7.376,0.3-14.339-1.621-21.133-4.196c-6.302-2.388-12.604-4.806-18.283-8.561c-2.581-1.706-5.42-2.388-8.474-1.625
				c-0.049,0.324-0.002,0.517,0.164,0.563c6.206,1.726,9.617,7.273,14.588,10.691c2.616,1.799,4.851,4.07,6.664,6.717
				c1.21,1.765,2.162,3.647,2.41,5.793c0.11,0.95,0.217,2.104-1.406,1.779c-4.442-2-8.899-3.966-13.32-6.011
				c-3.224-1.491-6.616-2.151-10.13-2.327c-1.758-0.088-3.37-0.396-4.359-2.131c-0.56-0.982-1.499-1.424-2.672-1.381
				c-3.383,0.125-6.563-0.913-9.78-1.748c-3.093-0.804-5.092-2.674-6.01-5.774c-0.956-3.228-2.089-6.445-5.442-7.993
				c-5.31-2.452-10.294-6.289-16.667-4.895c-3.15,0.689-6.05,2.335-9.279,2.856c0.946-3.501,2.71-6.622,4.513-9.726
				c0.399-0.286,0.836-0.624,1.308-0.61C55.826,304.475,61.05,303.215,66.327,303.866z"/>
		</g>
		<g>
			<path style="fill:#80795E;" d="M212.268,326.898c4.994-3.228,10.134-6.135,16.128-7.06c3.184-0.492,6.307,0.07,9.298,1.07
				c2.363,0.79,2.677,2.871,2.266,5.042c-1.015,5.357-0.646,5.635,4.784,5.918c6.05,0.316,11.672-1.698,17.484-2.675
				c1.673-0.281,3.358-0.787,5.028-0.75c9.608,0.21,18.915-2.505,28.519-2.681c8.41-0.154,16.819-1.021,25.245-1.4
				c10.791-0.485,21.581-0.766,32.379-0.887c3.984-0.045,7.942-0.578,11.723-1.797c3.995-1.287,7.939-1.479,11.967-0.448
				c0.658,0.168,1.251,0.425,1.731-0.283c1.257,3.49,1.882,7.114,2.284,10.785c-0.266,0.305-0.49,0.705-0.877,0.824
				c-5.656,1.741-11.26,3.68-17.364,2.339c-6.334-1.391-12.552-3.311-19.02-4.101c-2.344-0.287-4.671-0.374-7.031-0.34
				c-2.556,0.037-4.567,0.914-6.08,2.956c-0.826,0.796-1.75,0.714-2.714,0.304c-0.749-0.319-1.488-0.664-2.202-1.051
				c-6.471-3.508-13.15-3.817-20.053-1.431c-2.536,0.876-5.137,1.553-7.844,1.681c-3.843-0.665-7.73-1.092-11.612-1.266
				c-5.147-0.23-9.728,1.315-13.477,5.109c-3.31,3.349-6.496,6.83-10.215,9.768c-5.317,4.201-10.863,4.894-17.054,1.922
				c-5.41-2.597-9.444-6.842-13.81-10.705c-2.126-1.881-3.963-4.073-6.278-5.767c-3.351-2.453-6.981-4.134-11.173-4.445
				C213.577,327.477,212.817,327.519,212.268,326.898z"/>
		</g>
		<g>
			<path style="fill:#7B5F4E;" d="M261.625,421.031c-3.755-3.467-8.349-4.585-13.258-4.4c-5.255,0.198-10.527,0.337-15.669,1.783
				c-3.263,0.918-6.539-0.616-8.366-3.558c-1.011-1.627-0.613-2.932,1.203-3.694c2.144-0.899,4.437-0.968,6.708-0.948
				c17.035,0.152,33.795,2.367,50.255,6.787c3.057,0.821,6.104,1.644,9.309,1.692c2.355,0.035,4.497-0.489,6.378-1.943
				c1.087-0.447,2.081,0.08,3.088,0.329c6.315,1.563,12.593,3.099,19.213,2.965c7.691-0.155,13.358-3.522,17.483-9.806
				c0.891-1.358,1.784-2.734,2.431-4.229c2.836-6.549,7.598-11.26,13.811-14.609c4.217-1.316,8.344-2.916,12.628-4.026
				c0.403-0.036,0.839-0.081,1.192,0.091c4.459,2.177,8.993,4.207,13.264,6.76c0.1,0.261,0.14,0.528,0.124,0.807
				c-0.115,3.181,0.233,6.367-0.191,9.538c-0.777,5.068-3.051,9.24-7.315,12.222c-1.696,0.349-3.408,0.12-5.108,0.1
				c-4.423-0.051-8.543,0.93-12.302,3.305c-0.552,0.349-1.155,0.596-1.77,0.811c-7.961,0.036-15.921,0.098-23.882,0.103
				c-22.102,0.014-44.204,0.006-66.306,0.001C263.571,421.113,262.598,421.059,261.625,421.031z"/>
		</g>
		<g>
			<path style="fill:#A7A07C;" d="M366.978,387.852c-4.194,1.404-8.339,2.962-12.653,3.98c-2.655,1.081-5.405,0.857-8.123,0.441
				c-1.714-0.262-3.195-1.048-4.071-2.734c-1.898-3.652-3.988-4.623-8.269-4.157c-4.595,0.5-9.199,0.663-13.775-0.227
				c-1.36-0.265-2.698-0.62-3.552-1.868c-0.677-1.403,0.002-2.449,0.834-3.536c4.84-6.328,11.472-9.616,19.049-11.319
				c2.584-0.581,5.037-0.044,7.319,1.143c6.034,3.14,12.202,3.121,18.376,0.684c5.122-2.022,10.306-2.753,15.745-1.84
				c2.254,0.378,2.578,0.06,2.626-2.214c0.049-2.355-0.055-4.714,0.034-7.067c0.07-1.843-0.172-3.398-2.182-4.107
				c-0.374-0.132-0.616-0.516-0.738-0.926c0.002-0.421,0.079-0.912,0.395-1.116c2.91-1.881,2.543-4.797,2.478-7.627
				c-0.007-0.325-0.001-0.649-0.001-0.974c-0.002-4.797-0.925-5.773-5.736-6.016c-1.298-0.066-2.615-0.126-3.882,0.191
				c-12.758,3.193-25.123,1.251-37.33-2.812c-0.77-0.256-1.558-0.472-2.279-0.851c-0.664-0.35-1.319-0.734-0.909-1.679
				c0.951-2.466,2.987-3.215,5.381-3.421c6.888-0.595,13.607,0.696,20.03,2.789c8.686,2.83,16.998,2.113,25.358-0.855
				c1.096,12.558,0.421,25.142,0.533,37.714c0.073,8.276-0.021,16.554-0.04,24.83c-0.148,0.201-0.278,0.201-0.39-0.032l-0.002-0.003
				c-1.124-1.347-0.592-2.959-0.685-4.461c-0.076-1.215-0.076-2.442,0-3.657c0.107-1.718-0.638-1.938-2.062-1.389
				c-2.43,0.935-5.009,1.426-7.44,2.347C369.691,387.583,368.308,387.526,366.978,387.852z"/>
		</g>
		<g>
			<path style="fill:#A6855A;" d="M152.268,272.612c-7.121,4.235-14.498,7.981-22.649,9.674c-3.035,0.63-6.356,0.434-9.469,0.022
				c-5.529-0.733-10.729-0.046-15.944,1.88c-3.949,1.458-8.135,0.948-12.217,0.224c-1.432-0.254-1.97-1.549-2.665-2.648
				c-1.605-2.538-3.173-5.04-6.482-5.811c-2.169-0.506-3.923-0.213-5.674,1.135c-1.208,0.93-2.342,2.014-3.83,2.555
				c-0.607,0.22-1.185,0.656-1.707-0.115c7.345-5.774,15.92-8.898,24.713-11.628c10.836-3.365,21.632-6.862,32.408-10.415
				c1.691-0.557,2.803-0.263,4.168,0.772C139.32,263.107,145.81,267.838,152.268,272.612z"/>
		</g>
		<g>
			<path style="fill:#A6855A;" d="M44.205,409.036c7.183,0.239,14.062-1.634,21.05-2.879c8.946-1.594,17.7-0.638,26.091,3.09
				c3.397,1.51,6.906,2.766,10.321,4.236c6.12,2.635,12.238,3.505,18.435,0.285c1.17-0.522,2.242-0.004,3.288,0.38
				c7.977,2.926,15.609,2.458,22.904-2.118c1.788-1.121,3.772-1.906,5.779-2.582c5.567-1.876,8.232,0.289,7.47,6.05
				c-0.107,0.805-0.278,1.602-0.248,2.421c0.043,1.189,0.565,1.643,1.726,1.139c0.674-0.292,1.306-0.661,1.925-1.051
				c5.137-3.236,10.783-3.838,16.658-3.194c1.052,0.115,2.097,0.236,3.156,0.239c4.297,0.01,8.61-0.232,12.839,0.836
				c0.634,0.16,1.281,0.213,1.909-0.062c5.089,1.194,10.164,2.428,14.693,5.203c-0.648,0.029-1.296,0.082-1.944,0.082
				c-42.4,0.004-84.8,0.005-127.201,0.001c-0.567,0-1.133-0.051-1.7-0.078c-1.044-0.46-1.98-1.099-2.929-1.725
				c-2.348-1.55-4.856-2.508-7.757-2.424c-8.841,0.254-16.878-2.783-24.795-6.243C45.151,410.328,44.353,409.992,44.205,409.036z"/>
		</g>
		<g>
			<path style="fill:#7B5F4E;" d="M44.205,409.036c8.514,4.152,17.27,7.377,26.946,7.209c4.163-0.072,7.492,1.724,10.204,4.791
				c-7.783,0.025-15.569,0.196-23.348,0.031c-7.256-0.154-14.274-5.447-16.68-12.154C42.286,408.953,43.245,408.994,44.205,409.036z
				"/>
		</g>
		<g>
			<path style="fill:#7B5F4E;" d="M318.653,265.979c-1.323,0.674-2.751,0.771-4.204,0.849c-7.771,0.419-15.47-0.092-23.027-1.986
				c-2.524-0.633-5.245-1.075-6.961-3.437c0.044-0.068,0.079-0.144,0.132-0.204c3.559-3.955,7.43-4.346,12.439-2.317
				C304.046,261.726,311.428,263.658,318.653,265.979z"/>
		</g>
		<g>
			<path style="fill:#A6855A;" d="M66.327,303.866c-5.649,1.04-11.359,1.091-17.075,1.065c1.264-2.272,2.398-4.63,4.287-6.489
				c3.07,1.778,6.626,2.352,9.773,3.942C64.312,302.889,65.322,303.372,66.327,303.866z"/>
		</g>
		<g>
			<path style="fill:#A7A07C;" d="M354.732,421.009c2.34-2.64,5.505-3.646,8.795-4.288c3.45-0.674,6.93-0.845,10.385,0.072
				c-2.935,2.803-6.595,3.958-10.493,4.254C360.541,421.265,357.629,421.037,354.732,421.009z"/>
		</g>
		<g>
			<path style="fill:#8E8A63;" d="M39.763,397.326c-0.646-5.475-0.143-10.969-0.26-16.453c-0.03-1.43-0.328-2.906,0.263-4.309
				c0.088,0.083,0.176,0.166,0.264,0.249c0.633,0.734,0.636,1.639,0.642,2.523c0.036,5.085,0.039,10.17-0.002,15.254
				c-0.007,0.884-0.015,1.79-0.673,2.51C39.92,397.176,39.841,397.251,39.763,397.326z"/>
		</g>
		<g>
			<path style="fill:#1F4422;" d="M381.205,394.245c0.132-0.01,0.262,0.001,0.39,0.033c-0.086,3.432,0.493,6.889-0.367,10.293
				C381.22,401.129,381.212,397.687,381.205,394.245z"/>
		</g>
		<g>
			<path style="fill:#80795E;" d="M377.812,354.182c3.094,0.559,3.781,2.522,3.478,5.401c-0.253,2.412-0.044,4.873-0.054,7.312
				c-0.011,2.595-0.298,2.852-3.059,2.306c-4.127-0.816-8.208-0.746-12.24,0.476c-3.248,0.984-6.325,2.443-9.785,2.828
				c-4.246,0.473-8.275-0.013-12.021-2.005c-3.128-1.664-6.222-2.146-9.576-0.834c-1.962,0.768-3.969,1.434-5.987,2.044
				c-5.065,1.53-7.836,5.867-11.398,9.233c-0.591,0.558-0.423,1.361-0.428,2.087c-0.639,1.494-2.142,1.925-3.364,2.667
				c-5.02,3.044-10.685,4.329-16.273,5.76c-8.593,2.201-17.284,3.92-26.087,5.092c-9.338,1.243-18.637,1.057-27.944-0.294
				c-2.971-0.431-5.956-0.868-8.98-0.793c-0.991,0.024-1.951-0.11-2.773-0.739c-1.382-1.877-0.4-3.054,1.277-3.823
				c4.914-2.254,10.159-3.324,15.487-3.933c5.263-0.601,10.266,0.157,15.115,2.61c3.995,2.021,8.434,2.808,12.968,2.767
				c1.084-0.01,2.107-0.202,3.067-0.655c0.963-0.454,1.518-1.244,1.38-2.35c-0.127-1.022-1.036-1.292-1.797-1.348
				c-5.128-0.377-9.892-2.485-14.976-3.076c-1.675-0.195-3.365-0.539-4.849-1.476c-3.137-1.981-6.611-1.868-10.137-1.745
				c-11.547,0.4-22.806,2.795-34.161,4.617c-13.453,2.158-26.512,0.072-39.097-5.066c-2.103-0.858-4.189-1.758-6.283-2.638
				c1.168-0.876,2.539-0.552,3.749-0.387c7.634,1.042,15.144-0.151,22.705-0.909c6.585-0.66,13.113-1.788,19.736-2.176
				c2.744-0.161,5.489-0.301,8.237-0.414c6.85-0.281,13.494,1.201,20.213,2.137c5.654,0.788,11.337,1.989,17.088,0.775
				c1.467-0.31,3.094-0.461,3.968-2.012c0.882-0.492,1.84-0.634,2.828-0.574c7.137,0.428,13.102-2.478,18.731-6.464
				c4.374-3.098,8.239-6.886,12.942-9.532c3.964-2.231,8.196-3.462,12.772-3.553c5.527-0.11,11.034,0.244,16.549,0.479
				c4.017,0.171,7.677-1.002,11.014-3.292c2.61-1.791,5.033-3.858,7.836-5.367c1.265-0.619,2.535-0.349,3.786,0.025
				c5.11,1.525,10.39,2.59,15.133,5.144C370.174,354.41,373.886,354.871,377.812,354.182z"/>
		</g>
		<g>
			<path style="fill:#A6855A;" d="M231.321,394.724c7.149-0.109,14.166,1.247,21.248,1.859c4.014,0.347,8.082,0.066,12.147-0.228
				c5.423-0.393,10.768-1.119,16.093-2.096c9.231-1.694,18.384-3.718,27.271-6.798c3.093-1.072,5.755-2.99,8.661-4.429
				c1.957,1.527,4.33,1.855,6.643,1.892c3.631,0.059,7.263,0.263,10.912-0.334c4.401-0.721,6.557,0.772,8.443,4.849
				c0.892,1.929,2.924,2.218,4.773,2.348c2.261,0.159,4.541,0.043,6.812,0.045c-7.227,3.987-11.494,10.415-15.206,17.553
				c-4.006,7.702-10.659,11.435-19.507,11.337c-7.404-0.083-14.444-1.791-21.427-3.972c2.836-3.732,2.479-6.583-1.297-9.476
				c-5.753-4.407-12.225-6.911-19.512-7.142c-2.135-0.068-4.269,0.388-6.169,1.162c-5.845,2.381-11.688,2.646-17.841,1.348
				c-6.747-1.423-13.5-2.681-19.671-5.946C232.77,396.205,231.747,395.82,231.321,394.724z"/>
		</g>
		<g>
			<path style="fill:#80795E;" d="M39.998,397.101c0.01-6.763,0.021-13.525,0.032-20.288c8.569-0.408,17.064-1.954,25.683-1.644
				c1.96,0.071,3.889,0.27,5.716,0.943c4.413,1.628,6.27,4.988,5.409,9.584c-1.512,8.073-5.618,11.251-14.303,12.06
				C54.959,398.461,47.496,397.765,39.998,397.101z"/>
		</g>
		<g>
			<path style="fill:#7B5F4E;" d="M197.506,415.826c-1.005,0.864-2.212,0.463-3.258,0.325c-5.484-0.725-11.01-0.181-16.51-0.734
				c-5.421-0.544-10.68,0.331-15.244,3.714c-0.578,0.429-1.273,0.71-1.935,1.014c-1.371,0.63-2.058,0.073-1.991-1.338
				c0.081-1.694,0.4-3.379,0.444-5.072c0.095-3.61-1.751-5.034-5.266-4.11c-2.44,0.641-4.804,1.561-6.928,2.901
				c-7.813,4.928-15.949,5.348-24.421,2.009c-0.75-0.295-1.53-0.513-2.295-0.767c6.534-4.409,12.228-9.877,18.478-14.639
				c5.124-3.904,10.81-4.225,15.765-0.199c7.083,5.756,15.27,8.678,23.79,11.215C184.584,412.067,190.855,414.588,197.506,415.826z"
				/>
		</g>
		<g>
			<path style="fill:#A7A07C;" d="M347.933,347.84c-2.321,1.626-4.688,3.189-6.952,4.89c-5.146,3.868-10.915,4.298-17.099,3.756
				c-6.921-0.607-13.906-1.156-20.662,1.498c-4.712,1.851-8.407,5.135-12.303,8.162c-5.271,4.094-10.647,7.966-17.423,9.259
				c-2.831,0.54-5.651,0.324-8.482,0.217c1.259-2.263,0.092-4.223-1.131-5.857c-4.762-6.368-10.475-11.64-18.682-12.882
				c-5.805-0.878-11.627-0.266-17.295,1.446c-1.308,0.395-2.679,0.581-4.021,0.863c-0.975-0.045-1.286-0.885-1.763-1.504
				c-1.392-1.805-2.947-3.444-4.838-4.727c-5.189-3.522-9.799-2.589-13.305,2.641c-0.798,1.19-1.226,2.661-2.564,3.452
				c-1.465,0.797-2.821,0.014-4.163-0.364c-6.859-1.935-13.703-3.925-20.547-5.91c-8.81-2.555-17.806-3.371-26.944-2.966
				c-2.173,0.096-4.327-0.112-6.372-0.957c-0.184-0.518,0.019-0.97,0.298-1.37c5.128-7.351,12.17-14.423,24.697-12.63
				c2.984,0.427,5.96,0.862,8.845,1.661c5.141,1.425,9.95,1.004,14.522-1.837c0.844-0.524,1.763-1.342,2.863-0.4
				c2.015,1.729,4.019,0.632,5.868-0.211c4.204-1.915,7.966-4.601,11.788-7.17c6.472-0.366,11.622,2.527,16.169,6.719
				c3.94,3.633,7.671,7.489,11.861,10.852c2.243,1.801,4.714,3.195,7.367,4.233c5.366,2.1,10.146,0.822,14.546-2.65
				c3.463-2.733,6.423-5.984,9.478-9.124c4.526-4.652,9.883-6.44,16.295-5.791c3.225,0.326,6.448,0.598,9.64,1.168
				c0.152,0.948-0.716,1.161-1.197,1.649c-1.08,1.095-0.665,1.763,0.661,1.923c1.771,0.213,3.567,0.203,5.327-0.153
				c2.01-0.407,3.877-0.11,5.587,1.013c1.43,0.94,2.927,1.226,4.627,0.896c4.353-0.844,8.421,0.719,12.316,2.128
				c6.805,2.461,13.742,4.354,20.725,6.161C346.57,346.154,348.408,345.785,347.933,347.84z"/>
		</g>
		<g>
			<path style="fill:#80795E;" d="M194.612,334.279c-0.394,0.048-0.896-0.045-1.168,0.163c-6.183,4.747-12.875,3.807-19.754,2.002
				c-4.81-1.262-9.715-1.754-14.663-0.481c-6.127,1.576-10.172,5.836-13.882,10.56c-0.601,0.766-1.173,1.555-1.758,2.333
				c-2.424,0.93-4.751-0.186-7.007-0.619c-4.773-0.916-9.527-2.098-13.981-4.175c1.335-0.335,0.921-1.247,0.739-2.131
				c-0.928-4.499-3.964-7.558-7.224-10.403c-3.234-2.822-6.838-5.209-9.756-8.408c-1.525-1.671-3.523-2.535-5.709-3.023
				c-1.001-0.223-2.041-0.718-1.803-1.886c0.212-1.037,1.359-0.533,2.105-0.642c4.804-0.698,8.191,2.437,12.085,4.343
				c11.098,5.429,22.341,10.526,35.098,10.335c2.817-0.042,5.538-0.721,7.445-2.989c1.217-1.448,2.002-3.129-0.374-4.407
				c-0.209-0.113-0.46-0.271-0.547-0.471c-2.18-5.008-6.771-4.609-10.994-4.766c-2.849-0.106-5.691-0.042-8.384-1.11
				c-1.106-0.439-2.368-0.857-2.327-2.445c8.066,0.638,16.058,1.869,24.075,2.921c9.308,1.221,18.664,2.079,28.042,0.52
				c-1.72,1.047-3.332,2.376-5.181,3.087c-4.854,1.869-9.18,4.858-14.139,6.486c-0.879,0.289-2.087,0.671-1.932,1.864
				c0.138,1.062,1.272,1.492,2.212,1.657c1.594,0.28,3.3,0.529,4.79-0.255c2.735-1.439,5.709-1.675,8.672-2.014
				c0.845-0.096,1.596-0.38,2.232-0.886c3.5-2.778,7.776-2.913,11.91-3.495c0.68-0.096,1.448,0.138,2.125,0.368
				c2.181,0.741,2.329,1.452,1.012,3.358C195.617,331.056,193.777,332.115,194.612,334.279z"/>
		</g>
		<g>
			<path style="fill:#80795E;" d="M201.412,359.053c1.076-2.479,2.471-4.729,4.465-6.6c2.689-2.523,5.788-2.875,9.023-1.528
				c3.953,1.646,6.738,4.694,8.982,8.267c-7.057,2.381-14.206,2.326-21.399,0.773C202.079,359.876,201.767,359.366,201.412,359.053z
				"/>
		</g>
		<g>
			<path style="fill:#A7A07C;" d="M339.622,296.555c-1.537,0.68-3.173,1.179-4.45,2.347c-0.412,0.377-0.957,0.734-0.836,1.392
				c0.129,0.698,0.79,0.763,1.333,0.853c0.958,0.158,1.926,0.31,2.894,0.342c4.155,0.138,8.276-0.376,12.408-0.69
				c1.296-0.098,2.606-0.322,3.888-0.221c1.527,0.12,2.606,1.195,2.794,2.63c0.187,1.424-1.229,1.789-2.293,2.091
				c-2.123,0.602-4.327,0.69-6.523,0.727c-6.51,0.108-12.978,0.627-19.398,1.761c-6.551,1.157-12.979,0.282-19.268-1.584
				c-7.701-2.285-14.939-1.159-21.885,2.567c-2.791,1.497-5.602,2.989-8.248,4.722c-7.717,5.054-16.124,5.675-24.843,3.913
				c-5.321-1.075-10.642-2.279-15.568-4.719c-2.919-3.175-2.679-5.802,0.893-8.811c2.365-1.993,4.952-3.695,7.682-5.13
				c8.711-4.58,17.722-8.5,27.377-10.537c6.093-1.286,12.316-1.991,18.589-0.885c2.723,0.48,5.007,1.753,7.218,3.309
				c1.852,1.303,3.7,2.628,5.95,3.251c2.088,0.577,4.293,0.66,5.726-0.936c4.142-4.616,9.191-5.313,14.869-4.149
				c4.337,0.889,8.739,0.409,13.112,0.494c1.648,0.032,3.238,0.245,4.678,1.095c0.794,0.469,1.536,1.135,1.522,2.075
				c-0.016,1.013-0.977,1.389-1.788,1.791C343.574,295.184,341.351,295.244,339.622,296.555z"/>
		</g>
		<g>
			<path style="fill:#A6855A;" d="M347.933,347.84c0.008-0.776-0.534-0.848-1.13-0.967c-9.936-1.973-19.32-5.843-29.062-8.484
				c-1.687-0.457-3.432-0.522-5.05-0.099c-1.926,0.505-3.443,0.169-4.995-0.984c-1.495-1.111-3.218-1.436-5.078-0.907
				c-1.825,0.519-3.711,0.221-5.57,0.276c-0.986,0.029-2.013,0.036-2.276-1.272c-0.245-1.218,0.497-1.751,1.454-2.194
				c0.499-0.232,0.936-0.599,1.4-0.905c2.99-0.227,5.847-1.02,8.679-1.97c7.135-2.395,13.951-1.576,20.52,2.035
				c1.028,0.565,2.051,1.8,3.509,0.849c0.071,0.987,0.937,1.032,1.582,1.265c7.971,2.887,16.198,4.645,24.657,5.022
				c4.115,0.183,8.249-0.281,12.282-1.284c3.458-0.861,6.872-0.972,10.275,0.326c1.481,0.565,2.305,1.399,2.074,3.081
				c-0.099,0.719-0.036,1.463-0.013,2.195c0.119,3.861,0.73,7.878-3.378,10.359c-3.031,1.719-6.095,1.376-9.054-0.075
				c-5.912-2.899-12.173-4.728-18.507-6.387C349.395,347.496,348.691,347.487,347.933,347.84z"/>
		</g>
		<g>
			<path style="fill:#80795E;" d="M366.978,387.852c4.119-1.879,8.623-2.607,12.809-4.284c1.277-0.511,1.492,0.074,1.47,1.212
				c-0.061,3.154-0.042,6.309-0.054,9.463c-3.369-1.12-6.527-2.694-9.624-4.411C370.116,389.021,368.769,387.909,366.978,387.852z"
				/>
		</g>
	</g>
	<g>
		<path style="fill:#FDC88E;" d="M256.552,290.275l26.051-28.129c-14.716-9.474-12.89-37.675-12.89-44.255H151.267
			C159.765,242.324,215.973,284.243,256.552,290.275z"/>
	</g>
	<g>
		<path style="fill:#A7A07C;" d="M210.49,296.855l-27.456,27.456c-2.859,2.859-7.596,2.487-9.975-0.783l-48.113-66.156
			l15.326-15.326c2.475-2.475,6.454-2.579,9.055-0.238L210.49,296.855z"/>
	</g>
	<g>
		<path style="fill:#A7A07C;" d="M210.49,296.855l27.456,27.456c2.859,2.859,7.596,2.487,9.975-0.783l48.113-66.156l-15.326-15.326
			c-2.475-2.475-6.454-2.579-9.055-0.238L210.49,296.855z"/>
	</g>
	<g>
		<path style="fill:#FFE1B2;" d="M302.614,131.606c0,52.696-30.343,118.446-92.124,118.446s-92.124-65.75-92.124-118.446
			s41.246-72.384,92.124-72.384S302.614,78.91,302.614,131.606z"/>
	</g>
	<g>
		<path style="fill:#DEC5A9;" d="M300.455,112.408c-5.308-6.759-11.001-13.704-11.001-13.704v6.58
			c1.645,59.634-19.741,85.544-19.741,85.544l-27.249,3.027c-21.251,2.361-42.697,2.361-63.948,0l-27.249-3.027
			c0,0-21.386-25.91-19.741-85.544v-6.58c0,0-5.694,6.944-11.001,13.704c-1.383,5.869-2.159,12.25-2.159,19.254
			c0,52.696,30.343,118.446,92.124,118.446s92.124-65.75,92.124-118.446C302.614,124.658,301.838,118.277,300.455,112.408z
			 M230.231,232.779c-7.268,0-13.161-5.892-13.161-13.161H203.91c0,7.268-5.892,13.161-13.161,13.161s-13.161-5.892-13.161-13.161
			c0-7.269,5.892-13.161,13.161-13.161h39.482c7.268,0,13.161,5.892,13.161,13.161C243.391,226.887,237.499,232.779,230.231,232.779
			z"/>
	</g>
	<g>
		<path style="fill:#7E5449;" d="M138.106,110.632c-2.742,7.129-6.58,39.482-6.58,39.482l-13.161-6.58l-3.701-43.595
			L138.106,110.632z"/>
	</g>
	<g>
		<path style="fill:#7E5449;" d="M282.873,110.632c2.742,7.129,6.58,39.482,6.58,39.482l13.161-6.58l3.701-43.595L282.873,110.632z"
			/>
	</g>
	<g>
		<path style="fill:#A7A07C;" d="M308.783,78.964C308.783,35.353,264.776,0,210.49,0s-98.294,35.353-98.294,78.964h-0.411v39.482
			h197.41V78.964H308.783z"/>
	</g>
	<g>
		<path style="fill:#80795E;" d="M210.49,85.544c-39.976,0-99.802,14.73-99.802,32.902h199.603
			C310.291,100.275,250.466,85.544,210.49,85.544z"/>
	</g>
</g>
<g>
</g>
<g>
</g>
<g>
</g>
<g>
</g>
<g>
</g>
<g>
</g>
<g>
</g>
<g>
</g>
<g>
</g>
<g>
</g>
<g>
</g>
<g>
</g>
<g>
</g>
<g>
</g>
<g>
</g>
</svg>
