<?xml version="1.0" encoding="iso-8859-1"?>
<!-- Generator: Adobe Illustrator 19.1.0, SVG Export Plug-In . SVG Version: 6.00 Build 0)  -->
<svg version="1.1" id="Capa_1" xmlns="http://www.w3.org/2000/svg" xmlns:xlink="http://www.w3.org/1999/xlink" x="0px" y="0px"
	 viewBox="0 0 421.197 421.197" style="enable-background:new 0 0 421.197 421.197;" xml:space="preserve">
<g>
	<g>
		<path style="fill:#FFD7A3;" d="M138.305,261.462c14.716-9.475,13.07-37.675,13.07-44.255h118.446c0,6.58-1.825,34.78,12.89,44.255
			l-72.113,80.771L138.305,261.462z"/>
	</g>
	<g>
		<path style="fill:#FDC88E;" d="M256.661,289.59l26.051-28.129c-14.716-9.474-12.89-37.675-12.89-44.255H151.375
			C159.874,241.639,216.082,283.558,256.661,289.59z"/>
	</g>
	<g>
		<path style="fill:#FFE1B2;" d="M302.723,131.663c0,52.696-30.343,118.446-92.124,118.446s-92.124-65.75-92.124-118.446
			s41.246-72.384,92.124-72.384S302.723,78.967,302.723,131.663z"/>
	</g>
	<g>
		<path style="fill:#E4EBF0;" d="M361.946,421.197c10.903,0,19.741-8.838,19.741-19.741v-63.463
			c0-28.954-22.562-59.864-50.138-68.687l-41.168-13.173c-22.149,16.936-53.802,40.039-79.782,40.039s-57.633-23.103-79.782-40.039
			l-41.168,13.173c-27.576,8.823-50.138,39.733-50.138,68.687v63.463c0,10.903,8.838,19.741,19.741,19.741H361.946z"/>
	</g>
	<g>
		<path style="fill:#545465;" d="M171.116,19.797c-6.169,0-6.875,0-13.161,0c-25.439,0-46.062,20.856-46.062,46.296
			c0,23.62,6.58,65.57,6.58,65.57s7.403-33.313,39.482-46.062C177.56,77.809,171.116,19.797,171.116,19.797z"/>
	</g>
	<g>
		<path style="fill:#545465;" d="M164.536,20.031c26.458-40.675,94.592-6.814,138.187-6.814c6.58,9.459,11.104,81.02,0,118.446
			l-19.741-32.902c0,0-60.32,22.168-125.026-12.927"/>
	</g>
	<g>
		<path style="fill:#D0D7DC;" d="M210.598,296.171l-32.902,32.902l-52.643-72.384l15.326-15.326
			c2.475-2.475,6.454-2.579,9.055-0.238L210.598,296.171z"/>
	</g>
	<g>
		<path style="fill:#D0D7DC;" d="M210.598,296.171l32.902,32.902l52.643-72.384l-15.326-15.326
			c-2.475-2.475-6.454-2.579-9.055-0.238L210.598,296.171z"/>
	</g>
	<g>
		<polygon style="fill:#545465;" points="125.527,257.825 92.153,268.504 92.153,420.963 190.857,420.963 		"/>
	</g>
	<g>
		<polygon style="fill:#545465;" points="295.669,257.825 329.044,268.504 329.044,420.963 230.339,420.963 		"/>
	</g>
	<g>
		<path style="fill:#545465;" d="M223.759,315.912c0,3.619-2.961,6.58-6.58,6.58h-13.161c-3.619,0-6.58-2.961-6.58-6.58v-13.161
			c0-3.619,2.961-6.58,6.58-6.58h13.161c3.619,0,6.58,2.961,6.58,6.58V315.912z"/>
	</g>
	<g>
		<path style="fill:#545465;" d="M204.018,302.751l-36.89-15.81c-4.342-1.861-9.172,1.324-9.172,6.048v32.684
			c0,4.724,4.83,7.909,9.172,6.048l36.89-15.81V302.751z"/>
	</g>
	<g>
		<path style="fill:#545465;" d="M217.179,302.751l36.89-15.81c4.342-1.861,9.172,1.324,9.172,6.048v32.684
			c0,4.724-4.83,7.909-9.172,6.048l-36.89-15.81V302.751z"/>
	</g>
	<g>
		<circle style="fill:#D0D7DC;" cx="210.598" cy="355.393" r="6.58"/>
	</g>
	<g>
		<circle style="fill:#D0D7DC;" cx="210.598" cy="388.295" r="6.58"/>
	</g>
	<g>
		<path style="fill:#FFE1B2;" d="M121.639,144.823c-9.864-2.468-16.326,2.805-16.326,13.161c0,13.709,13.265,47.296,27.21,26.321
			S121.639,144.823,121.639,144.823z"/>
	</g>
	<g>
		<path style="fill:#FFE1B2;" d="M298.063,144.823c10.767-2.468,17.821,2.805,17.821,13.161c0,13.709-14.479,47.296-29.701,26.321
			S298.063,144.823,298.063,144.823z"/>
	</g>
</g>
<g>
</g>
<g>
</g>
<g>
</g>
<g>
</g>
<g>
</g>
<g>
</g>
<g>
</g>
<g>
</g>
<g>
</g>
<g>
</g>
<g>
</g>
<g>
</g>
<g>
</g>
<g>
</g>
<g>
</g>
</svg>
