<?xml version="1.0" encoding="iso-8859-1"?>
<!-- Generator: Adobe Illustrator 19.1.0, SVG Export Plug-In . SVG Version: 6.00 Build 0)  -->
<svg version="1.1" id="Capa_1" xmlns="http://www.w3.org/2000/svg" xmlns:xlink="http://www.w3.org/1999/xlink" x="0px" y="0px"
	 viewBox="0 0 460.65 460.65" style="enable-background:new 0 0 460.65 460.65;" xml:space="preserve">
<g>
	<g>
		<path style="fill:#FFD7A3;" d="M158.032,300.915c14.716-9.475,13.07-37.675,13.07-44.255h118.446c0,6.58-1.825,34.78,12.89,44.255
			l-72.113,80.771L158.032,300.915z"/>
	</g>
	<g>
		<path style="fill:#FDC88E;" d="M276.387,329.044l26.051-28.129c-14.716-9.474-12.89-37.675-12.89-44.255H171.102
			C179.6,281.093,235.809,323.012,276.387,329.044z"/>
	</g>
	<g>
		<path style="fill:#FFE1B2;" d="M322.45,171.116c0,52.696-30.343,118.446-92.124,118.446s-92.124-65.75-92.124-118.446
			s41.246-72.384,92.124-72.384S322.45,118.42,322.45,171.116z"/>
	</g>
	<g>
		<path style="fill:#545465;" d="M137.651,183.854c-4.935-18.918-12.484-84.348,2.468-103.366
			c19.831-25.225,35.647-8.458,35.647-8.458l3.835,43.964l-30.16,72.521L137.651,183.854z"/>
	</g>
	<g>
		<path style="fill:#545465;" d="M261.649,51.664c-50.952-10.82-88.667,6.303-99.403,14.395c-1.006,0.758-1.776,1.437-2.297,2.007
			l19.651,47.241c47.296,23.668,80.336,12.236,80.336,12.236l21.461-15.804l30.425,75.884l11.29-3.804c0,0,5.367-54.81,6.19-67.682
			S317.376,63.498,261.649,51.664z"/>
	</g>
	<g>
		<path style="fill:#E4EBF0;" d="M381.673,460.65c10.903,0,19.741-8.838,19.741-19.741v-63.463
			c0-28.954-22.562-59.864-50.138-68.687l-41.168-13.173c-22.149,16.936-53.802,40.039-79.782,40.039
			c-25.981,0-57.633-23.103-79.782-40.039l-41.168,13.173c-27.576,8.823-50.138,39.733-50.138,68.687v63.463
			c0,10.903,8.838,19.741,19.741,19.741H381.673z"/>
	</g>
	<g>
		<path style="fill:#D0D7DC;" d="M230.325,335.624l-32.902,32.902l-52.643-72.384l15.326-15.326
			c2.475-2.475,6.454-2.579,9.055-0.238L230.325,335.624z"/>
	</g>
	<g>
		<path style="fill:#D0D7DC;" d="M230.325,335.624l32.902,32.902l52.643-72.384l-15.326-15.326
			c-2.475-2.475-6.454-2.579-9.055-0.238L230.325,335.624z"/>
	</g>
	<g>
		<path style="fill:#965449;" d="M243.486,355.365c0,3.619-2.961,6.58-6.58,6.58h-13.161c-3.619,0-6.58-2.961-6.58-6.58v-13.161
			c0-3.619,2.961-6.58,6.58-6.58h13.161c3.619,0,6.58,2.961,6.58,6.58V355.365z"/>
	</g>
	<g>
		<path style="fill:#965449;" d="M223.745,342.205l-36.89-15.81c-4.342-1.861-9.172,1.324-9.172,6.048v32.684
			c0,4.724,4.83,7.909,9.172,6.048l36.89-15.81V342.205z"/>
	</g>
	<g>
		<path style="fill:#965449;" d="M236.906,342.205l36.89-15.81c4.342-1.861,9.172,1.324,9.172,6.048v32.684
			c0,4.724-4.83,7.909-9.172,6.048l-36.89-15.81V342.205z"/>
	</g>
	<g>
		<circle style="fill:#D0D7DC;" cx="230.325" cy="394.847" r="6.58"/>
	</g>
	<g>
		<circle style="fill:#D0D7DC;" cx="230.325" cy="427.749" r="6.58"/>
	</g>
	<g>
		<path style="fill:#FFE1B2;" d="M141.366,184.277c-9.864-2.468-16.326,2.805-16.326,13.161c0,13.709,13.265,47.296,27.21,26.321
			S141.366,184.277,141.366,184.277z"/>
	</g>
	<g>
		<path style="fill:#FFE1B2;" d="M317.79,184.277c10.767-2.468,17.821,2.805,17.821,13.161c0,13.709-14.479,47.296-29.701,26.321
			S317.79,184.277,317.79,184.277z"/>
	</g>
	<g>
		<path style="fill:#A05F54;" d="M329.044,127.329H131.426V3c0-1.657,1.343-3,3-3l191.619,0c1.657,0,3,1.343,3,3V127.329z"/>
	</g>
	<g>
		<path style="fill:#965449;" d="M269.807,460.417H383.99c9.797-1.16,17.423-9.399,17.423-19.507v-63.464
			c0-28.954-22.562-59.864-50.138-68.687l-35.877-11.48l-0.002,0L269.807,460.417z"/>
	</g>
	<g>
		<path style="fill:#965449;" d="M145.254,297.278l-0.002,0l-35.877,11.48c-27.576,8.823-50.138,39.733-50.138,68.687v63.464
			c0,10.108,7.627,18.347,17.423,19.507h114.183L145.254,297.278z"/>
	</g>
	<g>
		<rect x="131.426" y="80.198" style="fill:#7F7474;" width="197.761" height="50.586"/>
	</g>
	<g>
		<g>
			<path style="fill:#965449;" d="M230.235,145.647c-55.762,0-107.46-6.773-138.296-18.115c-6.821-2.506-10.317-10.07-7.808-16.894
				c2.509-6.825,10.076-10.327,16.894-7.808c27.661,10.173,77.171,16.496,129.209,16.496s101.548-6.323,129.209-16.496
				c6.825-2.506,14.388,0.99,16.894,7.808c2.509,6.825-0.986,14.388-7.808,16.894C337.696,138.874,285.998,145.647,230.235,145.647z
				"/>
		</g>
	</g>
	<g>
		<path style="fill:#545465;" d="M230.325,231.956c0-6.169-8.431-7.565-13.983-6.07c-10.179,2.741-21.386,10.388-30.845,5.659
			c0,0,3.29,9.87,8.841,9.87C205.442,241.415,230.325,242.444,230.325,231.956z"/>
	</g>
	<g>
		<path style="fill:#545465;" d="M230.235,231.956c0-6.169,8.431-7.565,13.983-6.07c10.179,2.741,21.386,10.388,30.845,5.659
			c0,0-3.29,9.87-8.841,9.87C255.118,241.415,230.235,242.444,230.235,231.956z"/>
	</g>
</g>
<g>
</g>
<g>
</g>
<g>
</g>
<g>
</g>
<g>
</g>
<g>
</g>
<g>
</g>
<g>
</g>
<g>
</g>
<g>
</g>
<g>
</g>
<g>
</g>
<g>
</g>
<g>
</g>
<g>
</g>
</svg>
