<?xml version="1.0" encoding="iso-8859-1"?>
<!-- Generator: Adobe Illustrator 19.1.0, SVG Export Plug-In . SVG Version: 6.00 Build 0)  -->
<svg version="1.1" id="Capa_1" xmlns="http://www.w3.org/2000/svg" xmlns:xlink="http://www.w3.org/1999/xlink" x="0px" y="0px"
	 viewBox="0 0 454.042 454.042" style="enable-background:new 0 0 454.042 454.042;" xml:space="preserve">
<g>
	<g>
		<path style="fill:#545465;" d="M148.057,57.756l107.479-44.596l-67.997,411.27C101.447,358.363,64.158,275.779,148.057,57.756z"/>
	</g>
	<g>
		<path style="fill:#545465;" d="M305.907,57.756L198.429,13.161l67.997,411.27C352.518,358.363,389.807,275.779,305.907,57.756z"/>
	</g>
	<g>
		<path style="fill:#FFD7A3;" d="M273.441,275.293h-0.358v-15.37h-92.124v15.354c0,15.042-0.063,31.392-13.161,41.282l59.223,53.584
			l59.223-53.814C273.482,306.414,273.441,290.206,273.441,275.293z"/>
	</g>
	<g>
		<path style="fill:#FDC88E;" d="M278.43,350.813c3.003-3.739,6.522-6.91,10.282-9.87c3.536-3.512-11.502-27.242-6.877-28.889
			c-8.334-9.932-8.393-23.827-8.393-36.761l-0.358-8.79v-6.58H200.7l-19.741,6.58c10.389,17.063,37.09,52.522,73.351,69.806
			C255.608,333.865,276.313,352.779,278.43,350.813z"/>
	</g>
	<g>
		<path style="fill:#FFE1B2;" d="M319.146,174.378c0,52.696-52.408,118.446-92.124,118.446s-92.124-65.75-92.124-118.446
			s41.246-78.964,92.124-78.964S319.146,121.682,319.146,174.378z"/>
	</g>
	<g>
		<path style="fill:#545465;" d="M214.23,69.093c3.697,0,15.701,4.154,25.512,7.794l0.809-1.214c0,0,1.354,1.064,3.698,2.908
			c5.457,2.072,9.462,3.672,9.462,3.672h39.112c24.976,19.677,32.902,78.298,32.902,85.544c0,55.933-5.04,129.211-6.58,33.724
			c-0.823-50.997-20.289-72.135-72.658-81.706c-25.499-4.66-66.996-6.717-68.271-21.112C177.23,87.564,207.65,69.093,214.23,69.093z
			"/>
	</g>
	<g>
		<path style="fill:#545465;" d="M192.886,99.527c0,0-57.989,13.535-57.989,74.851c0,0.274-6.21-32.902-6.21-32.902
			s17.548-44.966,19.741-46.062s19.741-39.482,19.741-39.482l19.587,31.668L192.886,99.527z"/>
	</g>
	<g>
		<path style="fill:#FFE1B2;" d="M139.502,181.56c-9.864-2.468-16.326,2.805-16.326,13.161c0,13.709,13.265,47.296,27.21,26.321
			C164.332,200.067,139.502,181.56,139.502,181.56z"/>
	</g>
	<g>
		<path style="fill:#E4EBF0;" d="M227.021,0c-51.26,0-98.266,18.446-134.815,49.008c-5.908,4.94-6.226,13.941-0.78,19.386
			l46.027,46.026c23.519-21.924,54.958-35.457,89.569-35.457s66.05,13.533,89.569,35.457l46.026-46.026
			c5.445-5.445,5.127-14.446-0.78-19.386C325.287,18.446,278.281,0,227.021,0z"/>
	</g>
	<g>
		<path style="fill:#FF6953;" d="M91.751,68.72l9.307,9.307c35.866-33.358,80.362-51.706,125.962-51.706
			s90.096,18.348,125.962,51.706l9.307-9.307c-38.368-35.84-86.171-55.56-135.27-55.56S130.12,32.881,91.751,68.72z"/>
	</g>
	<g>
		<path style="fill:#E4EBF0;" d="M325.726,325.726h-2.193c-24.835,0-37.334-6.563-43.732-15.991
			c-6.408,17.985-27.58,31.208-52.779,31.208s-46.371-13.222-52.779-31.208c-6.398,9.427-18.897,15.991-43.732,15.991h-2.193
			c-39.976,0-72.384,32.407-72.384,72.384v36.192c0,10.902,8.838,19.741,19.741,19.741h302.695c10.903,0,19.741-8.839,19.741-19.741
			v-36.192C398.109,358.133,365.702,325.726,325.726,325.726z"/>
	</g>
	<g>
		<path style="fill:#FF6953;" d="M285.147,315.572l-6.11-4.22c-7.088,17.132-27.599,29.591-52.016,29.591
			c-23.311,0-43.017-11.375-50.936-27.309c-4.463,1.606-8.286,2.925-8.286,2.925l39.482,137.483h39.482l39.445-137.585
			C285.835,316.172,285.499,315.868,285.147,315.572z"/>
	</g>
	<g>
		<path style="fill:#D0D7DC;" d="M212.64,453.836c-11.422-39.005-30.01-112.798-36.145-141.495
			c-0.839-3.922-4.932-6.185-8.697-4.805l-32.273,11.737c-3.493,1.28-5.291,5.195-3.879,8.636
			c19.269,46.955,52.065,96.857,72.278,125.927H212.64z"/>
	</g>
	<g>
		<path style="fill:#D0D7DC;" d="M240.182,453.836c11.422-39.005,30.01-112.798,36.145-141.495c0.839-3.922,4.932-6.185,8.697-4.805
			l32.273,11.737c3.493,1.28,5.291,5.195,3.879,8.636c-19.269,46.955-52.065,96.857-72.278,125.927H240.182z"/>
	</g>
	<g>
		<path style="fill:#D0D7DC;" d="M171.088,428.461h-45.662c-5.451,0-9.87,4.42-9.87,9.87v15.71h65.403v-15.71
			C180.959,432.881,176.54,428.461,171.088,428.461z"/>
	</g>
	<g>
		<path style="fill:#D0D7DC;" d="M328.615,428.461h-45.661c-5.451,0-9.87,4.42-9.87,9.87v15.71h65.402v-15.71
			C338.486,432.881,334.067,428.461,328.615,428.461z"/>
	</g>
</g>
<g>
</g>
<g>
</g>
<g>
</g>
<g>
</g>
<g>
</g>
<g>
</g>
<g>
</g>
<g>
</g>
<g>
</g>
<g>
</g>
<g>
</g>
<g>
</g>
<g>
</g>
<g>
</g>
<g>
</g>
</svg>
