<?xml version="1.0" encoding="iso-8859-1"?>
<!-- Generator: Adobe Illustrator 19.1.0, SVG Export Plug-In . SVG Version: 6.00 Build 0)  -->
<svg version="1.1" id="Capa_1" xmlns="http://www.w3.org/2000/svg" xmlns:xlink="http://www.w3.org/1999/xlink" x="0px" y="0px"
	 viewBox="0 0 420.704 420.704" style="enable-background:new 0 0 420.704 420.704;" xml:space="preserve">
<g>
	<g>
		<path style="fill:#80362D;" d="M269.575,12.724l-46.062,250.052l32.902,6.58C326.056,218.359,355.941,12.724,269.575,12.724z"/>
	</g>
	<g>
		<path style="fill:#80362D;" d="M269.575,12.724c-11.516-6.992-72.293-24.749-118.446,0
			C94.374,43.158,44.747,152.007,124.808,262.776c0.114,0.157,59.223-6.58,59.223-6.58L269.575,12.724z"/>
	</g>
	<g>
		<path style="fill:#FFD7A3;" d="M256.414,232.084L256.414,232.084v-15.37H164.29v15.354c0,15.042-0.063,31.392-13.161,41.282
			v147.354h59.223c0,0,31.011,0,59.223,0V273.12C256.812,263.205,256.414,246.997,256.414,232.084z"/>
	</g>
	<g>
		<path style="fill:#29394A;" d="M210.352,317.933c-14.15,0-27.502-2.931-39.482-8.018v110.789h92.124v-117.57
			C248.066,312.436,229.941,317.933,210.352,317.933z"/>
	</g>
	<g>
		<path style="fill:#FDC88E;" d="M262.994,302.258c2.401,0.655,4.563,1.004,6.58,1.174V273.12
			c-12.762-9.915-13.161-26.124-13.161-41.037l0,0v-15.37H184.03l-19.741,6.58C177.45,238.1,217.755,289.92,262.994,302.258z"/>
	</g>
	<g>
		<path style="fill:#4F6E8D;" d="M262.994,256.633c6.163,10.013,18.082,25.884,43.869,25.884h2.193
			c39.976,0,72.384,32.407,72.384,72.384v46.062c0,10.903-8.838,19.741-19.741,19.741H226.671l9.378-135.321
			c0.396-5.721,3.261-10.987,7.849-14.428L262.994,256.633z"/>
	</g>
	<g>
		<path style="fill:#FFE1B2;" d="M302.476,131.169c0,52.696-52.408,118.446-92.124,118.446s-92.124-65.75-92.124-118.446
			s41.246-72.384,92.124-72.384S302.476,78.473,302.476,131.169z"/>
	</g>
	<g>
		<path style="fill:#80362D;" d="M223.512,25.884c-3.697,0-15.701,4.154-25.512,7.794l-0.809-1.214c0,0-1.354,1.064-3.698,2.908
			c-5.457,2.072-9.462,3.672-9.462,3.672l1.539,2.566c-24.976,19.678-81.96,64.693-87.084,69.818
			c-6.58,6.58,39.482,174.464,39.482,78.964c0-79.786,44.327-95.587,85.544-105.285c18.644-4.387,24.128-15.354,26.321-26.321
			C252.027,47.819,230.093,25.884,223.512,25.884z"/>
	</g>
	<g>
		<path style="fill:#80362D;" d="M243.253,65.366c12.064,43.32,36.192,62.924,58.812,68.682c12.395,3.155,6.992-35.78,6.992-35.78
			s-17.548-44.966-19.741-46.062c-2.193-1.097-19.741-39.482-19.741-39.482l-39.482,32.902L243.253,65.366z"/>
	</g>
	<g>
		<path style="fill:#4F6E8D;" d="M157.709,256.633c-6.163,10.013-18.082,25.884-43.869,25.884h-2.193
			c-39.976,0-72.384,32.407-72.384,72.384v46.062c0,10.903,8.838,19.741,19.741,19.741h135.028l-9.378-135.321
			c-0.396-5.721-3.261-10.987-7.849-14.428L157.709,256.633z"/>
	</g>
	<g>
		<path style="fill:#FFE1B2;" d="M292.676,131.771c10.767-2.468,17.821,2.805,17.821,13.161c0,13.709-14.479,47.296-29.701,26.321
			S292.676,131.771,292.676,131.771z"/>
	</g>
	<g>
		<circle style="fill:#E7F2FC;" cx="163.769" cy="288.211" r="14.922"/>
	</g>
	<g>
		<path style="fill:#E7F2FC;" d="M170.676,324.962c7.308,12.811,18.08,21.526,28.355,24.251c2.883-10.231,0.864-23.939-6.445-36.75
			c-7.308-12.811-18.08-21.526-28.354-24.251C161.348,298.443,163.367,312.15,170.676,324.962z"/>
	</g>
	<g>
		<path style="fill:#E7F2FC;" d="M155.006,335.808c-9.465,16.592-23.416,27.879-36.723,31.408
			c-3.734-13.251-1.119-31.004,8.346-47.596c9.465-16.592,23.416-27.879,36.723-31.409
			C167.086,301.462,164.471,319.216,155.006,335.808z"/>
	</g>
	<g>
		<path style="fill:#E7F2FC;" d="M270.437,266.901c-11.219,10.881-32.612,19.343-60.086,19.343
			c-27.559,0-49.005-8.515-60.194-19.445l0.016,0.073l-16.165,11.557c15.237,16.597,43.379,27.556,76.344,27.556
			c32.926,0,61.04-10.933,76.29-27.498L270.437,266.901z"/>
	</g>
	<g>
		<path style="fill:#FFD267;" d="M298.966,356.616c-1.717-4.455-4.657-7.403-8.005-7.403s-6.288,2.948-8.005,7.403h-24.897v5.666
			h7.665v5.667h8.151v5.666h8.733c1.639,5.046,4.744,8.5,8.352,8.5s6.713-3.454,8.352-8.5h8.733v-5.666h8.151v-5.667h7.665v-5.666
			H298.966z"/>
	</g>
</g>
<g>
</g>
<g>
</g>
<g>
</g>
<g>
</g>
<g>
</g>
<g>
</g>
<g>
</g>
<g>
</g>
<g>
</g>
<g>
</g>
<g>
</g>
<g>
</g>
<g>
</g>
<g>
</g>
<g>
</g>
</svg>
