<?xml version="1.0" encoding="iso-8859-1"?>
<!-- Generator: Adobe Illustrator 19.1.0, SVG Export Plug-In . SVG Version: 6.00 Build 0)  -->
<svg version="1.1" id="Capa_1" xmlns="http://www.w3.org/2000/svg" xmlns:xlink="http://www.w3.org/1999/xlink" x="0px" y="0px"
	 viewBox="0 0 408.211 408.211" style="enable-background:new 0 0 408.211 408.211;" xml:space="preserve">
<g>
	<g>
		<path style="fill:#FFD7A3;" d="M131.812,246.495c14.716-9.475,13.07-50.835,13.07-57.416h118.446
			c0,6.58-1.825,47.941,12.89,57.416l-72.113,67.611L131.812,246.495z"/>
	</g>
	<g>
		<path style="fill:#FDC88E;" d="M250.168,261.463l26.051-14.968c-14.716-9.474-12.89-50.835-12.89-57.416H144.883
			C153.381,213.512,209.589,255.431,250.168,261.463z"/>
	</g>
	<g>
		<path style="fill:#527992;" d="M268.953,236.763c-13.912,7.26-37.746,12.055-64.847,12.055c-27.19,0-51.084-4.828-64.976-12.128
			c-1.824,4.27-4.182,7.786-7.318,9.805l72.294,67.611l72.113-67.611C273.101,244.488,270.761,240.999,268.953,236.763z"/>
	</g>
	<g>
		<path style="fill:#FFE1B2;" d="M291.57,116.696c10.767-2.468,17.821,2.805,17.821,13.161c0,13.709-14.479,47.296-29.701,26.321
			S291.57,116.696,291.57,116.696z"/>
	</g>
	<g>
		<path style="fill:#FFE1B2;" d="M115.147,116.696c-9.864-2.468-16.326,2.805-16.326,13.161c0,13.709,13.265,47.296,27.21,26.321
			C139.976,135.203,115.147,116.696,115.147,116.696z"/>
	</g>
	<g>
		<path style="fill:#FFE1B2;" d="M296.23,103.535c0,52.696-30.343,118.446-92.124,118.446s-92.124-65.75-92.124-118.446
			c0-72.44,41.246-98.761,92.124-98.761S296.23,31.507,296.23,103.535z"/>
	</g>
	<g>
		<path style="fill:#DCDCDC;" d="M296.099,99.959c-1.387-69.26-41.991-95.185-91.994-95.185c-50.007,0-90.615,25.534-91.994,95.186
			c23.772-16.66,39.352-44.213,39.352-75.445c0-0.171-0.025-0.337-0.026-0.508c13.98,12.549,32.403,20.249,52.668,20.249
			s38.688-7.7,52.668-20.249c-0.001,0.171-0.026,0.337-0.026,0.508C256.748,55.747,272.328,83.299,296.099,99.959z"/>
	</g>
	<g>
		<path style="fill:#7E5449;" d="M111.981,103.535c0,6.991,0.551,14.213,1.621,21.479l4.959-1.794l9.034,2.973
			c0,0-2.454-29.063,13.449-49.352c10.091-12.875,19.055-27.829,10.419-52.325c-0.66-1.872-1.433-3.651-2.25-5.386
			C126.658,33.744,111.981,60.421,111.981,103.535z"/>
	</g>
	<g>
		<path style="fill:#7E5449;" d="M296.529,103.535c0,6.991-0.551,14.213-1.621,21.479l-5.257-1.794l-8.736,2.973
			c0,0,2.454-29.063-13.449-49.352c-10.091-12.875-19.055-27.829-10.419-52.325c0.66-1.872,1.433-3.651,2.25-5.386
			C281.852,33.744,296.529,60.421,296.529,103.535z"/>
	</g>
	<g>
		<path style="fill:#00B39B;" d="M204.256,76.334c33.764,0,65.335,5.82,92.272,15.925C292.355,25.276,252.667,0,204.256,0
			c-48.425,0-88.122,24.906-92.275,92.259C138.919,82.154,170.491,76.334,204.256,76.334z"/>
	</g>
	<g>
		<path style="fill:#D0D7DC;" d="M113.603,125.014l37.038,54.961l3.454-12.666l-41.867-55.823
			C112.461,115.647,113.005,120.78,113.603,125.014z"/>
	</g>
	<g>
		<path style="fill:#D0D7DC;" d="M295.154,125.014l-37.038,54.961l-3.454-12.666l41.867-55.823
			C296.295,115.647,295.751,120.78,295.154,125.014z"/>
	</g>
	<g>
		<path style="fill:#E4EBF0;" d="M188.705,130.977l-35.795,15.163c-4.866,2.061-8.027,6.833-8.027,12.118v37.063
			c14.735,16.068,34.444,26.659,59.223,26.659s44.488-10.591,59.223-26.659v-37.063c0-5.285-3.161-10.057-8.027-12.118
			l-35.795-15.163C209.662,126.808,198.549,126.808,188.705,130.977z"/>
	</g>
	<g>
		<path style="fill:#00B39B;" d="M325.056,247.934l-29.892-7.471c-3.374-0.843-6.995-0.404-9.927,1.467
			c-18.601,11.864-47.932,19.533-80.982,19.533c-33.093,0-62.454-7.69-81.05-19.58c-2.934-1.876-6.56-2.319-9.939-1.474
			l-30.11,7.525c-27.576,8.823-50.138,39.733-50.138,68.687v71.85c0,10.903,8.838,19.741,19.741,19.741h151.347h151.347
			c10.903,0,19.741-8.838,19.741-19.741v-71.85C375.194,287.666,352.632,256.757,325.056,247.934z"/>
	</g>
	<g>
		<circle style="fill:#E4EBF0;" cx="114.551" cy="349.854" r="6.58"/>
	</g>
	<g>
		<circle style="fill:#E4EBF0;" cx="114.551" cy="316.952" r="6.58"/>
	</g>
	<g>
		<circle style="fill:#E4EBF0;" cx="114.551" cy="382.755" r="6.58"/>
	</g>
</g>
<g>
</g>
<g>
</g>
<g>
</g>
<g>
</g>
<g>
</g>
<g>
</g>
<g>
</g>
<g>
</g>
<g>
</g>
<g>
</g>
<g>
</g>
<g>
</g>
<g>
</g>
<g>
</g>
<g>
</g>
</svg>
