<?xml version="1.0" encoding="iso-8859-1"?>
<!-- Generator: Adobe Illustrator 19.1.0, SVG Export Plug-In . SVG Version: 6.00 Build 0)  -->
<svg version="1.1" id="Capa_1" xmlns="http://www.w3.org/2000/svg" xmlns:xlink="http://www.w3.org/1999/xlink" x="0px" y="0px"
	 viewBox="0 0 407.485 407.485" style="enable-background:new 0 0 407.485 407.485;" xml:space="preserve">
<g>
	<g>
		<path style="fill:#FFD7A3;" d="M131.449,247.575c14.716-9.475,13.07-50.835,13.07-57.416h118.446
			c0,6.58-1.825,47.941,12.89,57.416l-72.113,67.611L131.449,247.575z"/>
	</g>
	<g>
		<path style="fill:#FDC88E;" d="M249.805,262.543l26.051-14.968c-14.716-9.474-12.89-50.835-12.89-57.416H144.52
			C153.018,214.592,209.226,256.511,249.805,262.543z"/>
	</g>
	<g>
		<path style="fill:#5A79C6;" d="M324.693,249.013l-55.147-13.782V223.25c0-4.876-5.26-8.401-9.454-5.913
			c-10.287,6.104-25.093,18.237-56.349,19.059c-31.257-0.823-46.062-12.955-56.349-19.059c-4.194-2.489-9.454,1.037-9.454,5.913
			v11.981l-55.147,13.782c-27.576,8.823-50.138,39.733-50.138,68.687v70.044c0,10.903,8.838,19.741,19.741,19.741h151.347H355.09
			c10.903,0,19.741-8.838,19.741-19.741V317.7C374.831,288.746,352.269,257.836,324.693,249.013z"/>
	</g>
	<g>
		<path style="fill:#FFE1B2;" d="M295.777,103.847c0,52.696-30.343,118.446-92.124,118.446s-92.124-65.75-92.124-118.446
			s41.246-72.384,92.124-72.384S295.777,51.151,295.777,103.847z"/>
	</g>
	<g>
		<path style="fill:#FFE1B2;" d="M114.693,110.427c-9.864-2.468-16.326,2.805-16.326,13.161c0,13.709,13.265,47.296,27.21,26.321
			S114.693,110.427,114.693,110.427z"/>
	</g>
	<g>
		<path style="fill:#FFE1B2;" d="M291.117,110.427c10.767-2.468,17.821,2.805,17.821,13.161c0,13.709-14.479,47.296-29.701,26.321
			S291.117,110.427,291.117,110.427z"/>
	</g>
	<g>
		<path style="fill:#7E5449;" d="M131.269,82.872c-2.742,7.129-6.58,39.482-6.58,39.482l-13.161-6.58l-3.701-43.595L131.269,82.872z
			"/>
	</g>
	<g>
		<path style="fill:#7E5449;" d="M276.036,82.872c2.742,7.129,6.58,39.482,6.58,39.482l13.161-6.58l3.701-43.595L276.036,82.872z"/>
	</g>
	<g>
		<path style="fill:#5A79C6;" d="M299.478,88.05c0-20.88,0-41.761,0-62.642c-59.393-33.878-132.259-33.878-191.652,0
			c0,20.881,0,41.762,0,62.642C170.056,75.243,237.249,75.243,299.478,88.05z"/>
	</g>
	<g>
		<path style="fill:#FFD267;" d="M107.827,62.386c0,4.476,0,8.952,0,13.427c61.971-14.017,129.681-14.017,191.652,0
			c0-4.476,0-8.952,0-13.427C237.385,48.808,169.92,48.808,107.827,62.386z"/>
	</g>
	<g>
		<path style="fill:#4A69BC;" d="M265.901,250.065c2.244-1.106,3.644-3.446,3.644-5.948v-8.886V223.25
			c0-5.068-5.519-8.281-9.862-5.669c-10.271,6.178-25.096,18.004-55.941,18.815c-30.845-0.812-45.67-12.638-55.941-18.815
			c-4.343-2.612-9.862,0.6-9.862,5.669l0,11.981v8.886c0,2.502,1.4,4.842,3.644,5.948
			C180.765,269.376,226.72,269.376,265.901,250.065z"/>
	</g>
	<g>
		<path style="fill:#4A69BC;" d="M224.74,253.871c-64.743,12.351-97.567,28.294-97.567,47.386v106.228h8.553V301.257
			c0-5.089,6.535-22.941,90.614-38.981L224.74,253.871z"/>
	</g>
	<g>
		<circle style="fill:#FFD267;" cx="154.253" cy="313.357" r="6.58"/>
	</g>
	<g>
		<circle style="fill:#FFD267;" cx="154.253" cy="346.259" r="6.58"/>
	</g>
	<g>
		<circle style="fill:#FFD267;" cx="154.253" cy="379.16" r="6.58"/>
	</g>
	<g>
		<path style="fill:#FFD267;" d="M302.88,329.771c0,3.619-2.961,6.58-6.58,6.58h-63.38c-3.619,0-6.58-2.961-6.58-6.58v-6.58
			c0-3.619,2.961-6.58,6.58-6.58h63.38c3.619,0,6.58,2.961,6.58,6.58V329.771z"/>
	</g>
	<g>
		<path style="fill:#4A69BC;" d="M85.297,248.387l-2.505,0.626c-27.576,8.823-50.138,39.733-50.138,68.687v70.044
			c0,10.903,8.838,19.741,19.741,19.741h32.902V248.387z"/>
	</g>
	<g>
		<path style="fill:#4A69BC;" d="M322.188,248.387l2.505,0.626c27.576,8.823,50.138,39.733,50.138,68.687v70.044
			c0,10.903-8.838,19.741-19.741,19.741h-32.902V248.387z"/>
	</g>
</g>
<g>
</g>
<g>
</g>
<g>
</g>
<g>
</g>
<g>
</g>
<g>
</g>
<g>
</g>
<g>
</g>
<g>
</g>
<g>
</g>
<g>
</g>
<g>
</g>
<g>
</g>
<g>
</g>
<g>
</g>
</svg>
