<?xml version="1.0" encoding="iso-8859-1"?>
<!-- Generator: Adobe Illustrator 19.1.0, SVG Export Plug-In . SVG Version: 6.00 Build 0)  -->
<svg version="1.1" id="Capa_1" xmlns="http://www.w3.org/2000/svg" xmlns:xlink="http://www.w3.org/1999/xlink" x="0px" y="0px"
	 viewBox="0 0 395.436 395.436" style="enable-background:new 0 0 395.436 395.436;" xml:space="preserve">
<g>
	<g>
		<path style="fill:#FFD7A3;" d="M125.425,234.77c14.716-9.475,13.07-37.675,13.07-44.255h118.446c0,6.58-1.825,34.78,12.89,44.255
			l-72.113,80.771L125.425,234.77z"/>
	</g>
	<g>
		<path style="fill:#FDC88E;" d="M244.466,256.689l26.051-14.968c-14.716-9.474-12.89-50.835-12.89-57.416H139.181
			C147.679,208.738,203.887,250.657,244.466,256.689z"/>
	</g>
	<g>
		<path style="fill:#D0D7DC;" d="M349.066,395.436c10.903,0,19.741-8.838,19.741-19.741V311.3c0-28.954-22.562-59.864-50.138-68.687
			l-41.168-13.173c-22.149,16.936-53.802,40.039-79.782,40.039s-57.633-23.103-79.782-40.039l-41.168,13.173
			C49.192,251.436,26.63,282.346,26.63,311.3v64.395c0,10.903,8.838,19.741,19.741,19.741H349.066z"/>
	</g>
	<g>
		<path style="fill:#A7795E;" d="M210.879,271.85c0,3.619-2.961,6.58-6.58,6.58h-13.161c-3.619,0-6.58-2.961-6.58-6.58v-8.581
			c0-3.619,2.961-6.58,6.58-6.58h13.161c3.619,0,6.58,2.961,6.58,6.58V271.85z"/>
	</g>
	<g>
		<circle style="fill:#D0D7DC;" cx="197.718" cy="328.701" r="6.58"/>
	</g>
	<g>
		<path style="fill:#E4EBF0;" d="M197.718,256.318l-27.456,27.456c-2.859,2.859-7.596,2.487-9.975-0.783l-48.113-52.995
			L127.5,214.67c2.475-2.475,6.454-2.579,9.055-0.238L197.718,256.318z"/>
	</g>
	<g>
		<path style="fill:#E4EBF0;" d="M197.718,256.318l27.456,27.456c2.859,2.859,7.596,2.487,9.975-0.783l48.113-52.995l-15.326-15.326
			c-2.475-2.475-6.454-2.579-9.055-0.238L197.718,256.318z"/>
	</g>
	<g>
		<polygon style="fill:#A7795E;" points="206.759,273.426 197.718,273.426 188.678,273.426 184.558,382.646 197.718,382.646 
			210.879,382.646 		"/>
	</g>
	<g>
		<path style="fill:#FFE1B2;" d="M285.868,111.922c10.767-2.468,17.821,2.805,17.821,13.161c0,13.709-14.479,47.296-29.701,26.321
			S285.868,111.922,285.868,111.922z"/>
	</g>
	<g>
		<path style="fill:#FFE1B2;" d="M109.445,111.922c-9.864-2.468-16.326,2.805-16.326,13.161c0,13.709,13.265,47.296,27.21,26.321
			S109.445,111.922,109.445,111.922z"/>
	</g>
	<g>
		<path style="fill:#FFE1B2;" d="M290.528,98.761c0,52.696-30.343,118.446-92.124,118.446s-92.124-65.75-92.124-118.446
			C106.279,26.321,147.525,0,198.404,0S290.528,26.733,290.528,98.761z"/>
	</g>
	<g>
		<path style="fill:#ADB4BA;" d="M202.078,164.923c0-8.689-9.56-10.656-15.856-8.55c-11.542,3.861-24.251,14.632-34.977,7.971
			c0,0,3.731,13.903,10.025,13.903C173.862,178.247,202.078,179.695,202.078,164.923z"/>
	</g>
	<g>
		<path style="fill:#ADB4BA;" d="M199.061,164.923c0-8.689,9.56-10.656,15.856-8.55c11.542,3.861,24.251,14.632,34.977,7.971
			c0,0-3.731,13.903-10.025,13.903C227.277,178.247,199.061,179.695,199.061,164.923z"/>
	</g>
	<g>
		<path style="fill:#DCDCDC;" d="M290.397,95.185C289.011,25.925,248.407,0,198.404,0c-50.007,0-90.615,25.534-91.994,95.186
			c23.772-16.66,39.352-44.213,39.352-75.445c0-0.171-0.025-0.337-0.026-0.508c13.98,12.549,32.403,20.249,52.668,20.249
			s38.688-7.7,52.668-20.249c-0.001,0.171-0.026,0.337-0.026,0.508C251.046,50.973,266.626,78.525,290.397,95.185z"/>
	</g>
	<g>
		<path style="fill:#DCDCDC;" d="M106.279,98.761c0,6.991-0.095,10.651,0.463,18.525l19.871,8.359c0,0-7.174-33.29,8.729-53.579
			c10.091-12.875,19.055-27.829,10.419-52.325c-0.66-1.872-1.433-3.651-2.25-5.386C120.956,28.97,106.279,55.647,106.279,98.761z"/>
	</g>
	<g>
		<path style="fill:#DCDCDC;" d="M290.824,98.761c0,6.991,0.095,10.651-0.463,18.525l-19.871,8.359c0,0,7.174-33.29-8.729-53.579
			c-10.091-12.875-19.055-27.829-10.419-52.325c0.66-1.872,1.433-3.651,2.25-5.386C276.147,28.97,290.824,55.647,290.824,98.761z"/>
	</g>
	<g>
		<path style="fill:#545465;" d="M146.637,121.94c-0.267,0-0.535-0.032-0.805-0.1l-40.007-10.047
			c-1.762-0.443-2.832-2.23-2.389-3.991c0.442-1.764,2.228-2.831,3.992-2.391l40.007,10.047c1.762,0.443,2.832,2.23,2.389,3.991
			C149.45,120.944,148.109,121.94,146.637,121.94z"/>
	</g>
	<g>
		<path style="fill:#545465;" d="M248.799,121.94c-1.473,0-2.815-0.996-3.189-2.49c-0.44-1.764,0.63-3.55,2.394-3.991l40.131-10.047
			c1.764-0.443,3.55,0.63,3.991,2.391c0.44,1.764-0.63,3.55-2.394,3.991l-40.131,10.047
			C249.332,121.908,249.064,121.94,248.799,121.94z"/>
	</g>
	<g>
		<path style="fill:#545465;" d="M216.662,123.585c-1.817,0-3.29-1.472-3.29-3.29c0-4.91-7.168-9.058-15.654-9.058
			c-8.484,0-15.652,4.148-15.652,9.058c0,1.819-1.473,3.29-3.29,3.29c-1.817,0-3.29-1.472-3.29-3.29
			c0-8.768,9.766-15.638,22.233-15.638c12.468,0,22.234,6.869,22.234,15.638C219.952,122.114,218.479,123.585,216.662,123.585z"/>
	</g>
	<g>
		<path style="fill:#4EA0CA;" d="M77.453,242.301"/>
	</g>
	<g>
		<path style="fill:#545465;" d="M162.704,138.012c-10.675,0-19.36-8.685-19.36-19.362c0-10.674,8.685-19.359,19.36-19.359
			c10.675,0,19.362,8.685,19.362,19.359C182.066,129.327,173.379,138.012,162.704,138.012z M162.704,105.872
			c-7.046,0-12.78,5.732-12.78,12.778c0,7.046,5.734,12.782,12.78,12.782c7.048,0,12.781-5.735,12.781-12.782
			C175.485,111.604,169.752,105.872,162.704,105.872z"/>
	</g>
	<g>
		<path style="fill:#545465;" d="M232.732,138.012c-10.675,0-19.36-8.685-19.36-19.362c0-10.674,8.685-19.359,19.36-19.359
			c10.675,0,19.36,8.685,19.36,19.359C252.092,129.327,243.408,138.012,232.732,138.012z M232.732,105.872
			c-7.046,0-12.78,5.732-12.78,12.778c0,7.046,5.734,12.782,12.78,12.782c7.046,0,12.78-5.735,12.78-12.782
			C245.512,111.604,239.778,105.872,232.732,105.872z"/>
	</g>
	<g>
		<path style="fill:#394959;" d="M327.075,246.084l-53.358-25.587l-71.369,71.375c-2.57,2.57-6.737,2.57-9.306,0l-71.369-71.375
			l-53.358,25.587C41.682,258.62,26.63,282.346,26.63,311.3v64.395c0,10.109,7.627,18.347,17.423,19.507h307.285
			c9.797-1.16,17.423-9.399,17.423-19.507V311.3C368.761,282.346,353.709,258.62,327.075,246.084z"/>
	</g>
</g>
<g>
</g>
<g>
</g>
<g>
</g>
<g>
</g>
<g>
</g>
<g>
</g>
<g>
</g>
<g>
</g>
<g>
</g>
<g>
</g>
<g>
</g>
<g>
</g>
<g>
</g>
<g>
</g>
<g>
</g>
</svg>
