<?xml version="1.0" encoding="iso-8859-1"?>
<!-- Generator: Adobe Illustrator 19.1.0, SVG Export Plug-In . SVG Version: 6.00 Build 0)  -->
<svg version="1.1" id="Capa_1" xmlns="http://www.w3.org/2000/svg" xmlns:xlink="http://www.w3.org/1999/xlink" x="0px" y="0px"
	 viewBox="0 0 420.399 420.399" style="enable-background:new 0 0 420.399 420.399;" xml:space="preserve">
<g>
	<g>
		<path style="fill:#394959;" d="M137.906,255.566c14.716-9.475,13.07-37.675,13.07-44.255h118.446c0,6.58-1.825,34.78,12.89,44.255
			L210.2,336.337L137.906,255.566z"/>
	</g>
	<g>
		<path style="fill:#29394A;" d="M256.262,283.695l26.051-28.129c-14.716-9.474-12.89-37.675-12.89-44.255H150.977
			C159.475,235.744,215.683,277.663,256.262,283.695z"/>
	</g>
	<g>
		<path style="fill:#455465;" d="M361.547,420.399c10.903,0,19.741-8.838,19.741-19.741v-68.562
			c0-28.954-22.562-59.864-50.138-68.687l-34.438-12.482c-4.163-1.509-8.8-0.843-12.339,1.818
			c-21.673,16.298-50.314,35.781-74.173,35.781s-52.5-19.483-74.173-35.781c-3.539-2.661-8.176-3.327-12.339-1.818L89.249,263.41
			c-27.576,8.823-50.138,39.733-50.138,68.687v68.562c0,10.903,8.838,19.741,19.741,19.741H361.547z"/>
	</g>
	<g>
		<path style="fill:#394959;" d="M167.829,383.904c0,7.238-5.922,13.161-13.161,13.161h-36.031c-7.238,0-13.161-5.922-13.161-13.161
			v-40.03c0-7.238,5.922-13.161,13.161-13.161h36.031c7.238,0,13.161,5.922,13.161,13.161V383.904z"/>
	</g>
	<g>
		<path style="fill:#394959;" d="M314.967,383.904c0,7.238-5.922,13.161-13.161,13.161h-36.031c-7.238,0-13.161-5.922-13.161-13.161
			v-40.03c0-7.238,5.922-13.161,13.161-13.161h36.031c7.238,0,13.161,5.922,13.161,13.161V383.904z"/>
	</g>
	<g>
		<path style="fill:#394959;" d="M115.825,114.929c-0.429,3.464-0.71,7.044-0.71,10.838c0,52.696,31.318,118.446,95.085,118.446
			s95.085-65.75,95.085-118.446c0-3.794-0.281-7.374-0.71-10.838c-28.026-6.146-60.179-9.644-94.374-9.644
			S143.851,108.783,115.825,114.929z"/>
	</g>
	<g>
		<path style="fill:#455465;" d="M315.485,104.745V85.544h-0.197C313.22,38.02,267.03,0,210.2,0s-103.02,38.02-105.088,85.544
			h-0.197v19.14c-7.203,2.782-12.216,10.221-12.216,19.601c0,7.677,0,57.527,0,57.527s8.088,0,16.314,0s8.774-36.689,12.064-36.689
			c0,0,0.002-0.176,0.003-0.355h7.368c10.76,11.183,24.686,20.09,40.609,25.807c0.11-0.951,0.229-1.908,0.368-2.886
			c1.277-8.955,2.571-17.895,4.524-26.733c3.971-17.973,23.827-26.771,40.473-22.98c5.721,1.303,10.389,4.3,14.134,8.168
			c4.687,1.737,9.088,4.473,12.311,7.696c6.657,6.657,8.597,14.256,9.637,23.265c0.505,4.379,1.092,8.744,1.517,13.124
			c15.616-5.731,29.335-14.451,39.93-25.462h7.188c0.001,0.179,0.003,0.355,0.003,0.355c3.29,0,3.838,36.689,12.064,36.689
			s16.314,0,16.314,0s0-49.85,0-57.527C327.52,114.982,322.593,107.58,315.485,104.745z"/>
	</g>
	<g>
		<path style="fill:#2D91C0;" d="M235.947,181.812c-15.211,0-20.729-17.751-24.758-30.712c-0.309-0.989-0.643-2.066-0.989-3.15
			c-0.347,1.084-0.681,2.161-0.99,3.15c-4.029,12.961-9.547,30.712-24.758,30.712c-8.854,0-21.965-2.353-34.212-6.141
			c-9.989-3.088-22.89-8.177-27.639-14.881c-5.725-8.082-5.665-27.232-1.798-37.699c2.018-5.464,5.142-8.923,9.283-10.282
			c20.365-6.685,54.786-7.76,80.114-7.486c25.318-0.273,59.749,0.801,80.114,7.486l0,0c4.141,1.359,7.265,4.819,9.283,10.282
			c3.867,10.467,3.927,29.617-1.8,37.699c-4.748,6.703-17.649,11.792-27.638,14.88C257.912,179.459,244.801,181.812,235.947,181.812
			z"/>
	</g>
	<g>
		<path style="fill:#52A9CF;" d="M290.313,112.809c-20.36-6.683-54.778-7.758-80.094-7.486v42.688
			c0.339,1.062,0.668,2.119,0.97,3.089c4.029,12.961,9.547,30.712,24.758,30.712c8.854,0,21.964-2.353,34.212-6.141
			c9.989-3.089,22.891-8.178,27.638-14.88c5.726-8.082,5.666-27.233,1.799-37.699C297.579,117.628,294.455,114.168,290.313,112.809z
			"/>
	</g>
	<g>
		<path style="fill:#29394A;" d="M202.737,111.865c2.5,0,4.941,0.016,7.618,0.044c2.357-0.028,4.792-0.043,7.286-0.043
			c33.721,0,59.292,2.781,73.793,7.967c0.01,0.007,1.015,0.801,2.08,3.952c3.434,10.167,2.641,27.959-0.506,32.818
			c-1.361,2.103-7.692,7.022-22.783,12.126c-11.677,3.95-24.41,6.503-32.439,6.503c-6.356,0-11.242-17.194-13.87-26.443
			l-0.126-0.443l-0.957-3.331c-1.64-5.612-6.786-9.469-12.632-9.469c-5.847,0-10.993,3.857-12.632,9.469l-0.948,3.299l-0.139,0.487
			c-2.625,9.237-7.51,26.431-13.867,26.431c-8.028,0-20.761-2.552-32.44-6.503c-15.09-5.104-21.422-10.024-22.783-12.126
			c-3.146-4.858-3.938-22.651-0.505-32.817c1.023-3.029,1.992-3.88,1.937-3.88h0C143.481,114.645,169.039,111.865,202.737,111.865
			 M202.737,98.705c-26.122,0-58.496,1.682-78.373,8.818c-4.437,1.593-7.784,5.648-9.946,12.051
			c-4.143,12.267-4.207,34.711,1.927,44.182c5.088,7.856,18.911,13.82,29.613,17.44c13.123,4.439,27.17,7.197,36.656,7.197
			c16.297,0,22.21-20.804,26.526-35.994c0.331-1.159,0.689-2.421,1.06-3.692c0.371,1.271,0.73,2.533,1.06,3.692
			c4.316,15.19,10.229,35.994,26.526,35.994c9.486,0,23.533-2.758,36.656-7.197c10.702-3.62,24.525-9.584,29.612-17.439
			c6.135-9.472,6.071-31.916,1.928-44.183c-2.163-6.403-5.509-10.458-9.946-12.051c-19.883-7.139-52.279-8.818-78.398-8.817
			c-2.544,0-5.03,0.016-7.438,0.044C207.783,98.721,205.29,98.705,202.737,98.705L202.737,98.705z"/>
	</g>
	<g>
		<path style="fill:#29394A;" d="M117.563,247.785l-28.985,10.564c-2.598,0.947-4.327,3.417-4.327,6.182v155.868h39.496V252.113
			C123.746,248.915,120.568,246.69,117.563,247.785z"/>
	</g>
	<g>
		<path style="fill:#29394A;" d="M302.656,247.785l28.985,10.564c2.598,0.947,4.327,3.417,4.327,6.182v155.868h-39.496V252.113
			C296.473,248.915,299.652,246.69,302.656,247.785z"/>
	</g>
	<g>
		<path style="fill:#29394A;" d="M199.214,420.399V294.66c0-1.812,1.475-3.29,3.29-3.29h15.39c1.815,0,3.29,1.478,3.29,3.29v125.739
			h6.58V294.66c0-5.443-4.428-9.87-9.87-9.87h-15.39c-5.443,0-9.87,4.428-9.87,9.87v125.739H199.214z"/>
	</g>
</g>
<g>
</g>
<g>
</g>
<g>
</g>
<g>
</g>
<g>
</g>
<g>
</g>
<g>
</g>
<g>
</g>
<g>
</g>
<g>
</g>
<g>
</g>
<g>
</g>
<g>
</g>
<g>
</g>
<g>
</g>
</svg>
