<?xml version="1.0" encoding="iso-8859-1"?>
<!-- Generator: Adobe Illustrator 19.1.0, SVG Export Plug-In . SVG Version: 6.00 Build 0)  -->
<svg version="1.1" id="Capa_1" xmlns="http://www.w3.org/2000/svg" xmlns:xlink="http://www.w3.org/1999/xlink" x="0px" y="0px"
	 viewBox="0 0 420.588 420.588" style="enable-background:new 0 0 420.588 420.588;" xml:space="preserve">
<g>
	<g>
		<path style="fill:#545465;" d="M154.543,19.625l32.674,217.81l-42.682,71.724C77.636,211.551,59.855,19.625,154.543,19.625z"/>
	</g>
	<g>
		<path style="fill:#545465;" d="M151.116,19.625c21.934-18.644,77.723-29.49,125.026-7.017
			c64.981,30.871,64.706,169.038,6.58,283.391c-0.088,0.173-46.062-32.902-46.062-32.902L151.116,19.625z"/>
	</g>
	<g>
		<path style="fill:#FFD7A3;" d="M256.669,231.968h-0.358v-15.37h-92.124v15.354c0,15.042-0.063,31.392-13.161,41.282v147.354
			h59.223c0,0,31.011,0,59.223,0V273.004C256.709,263.089,256.669,246.881,256.669,231.968z"/>
	</g>
	<g>
		<path style="fill:#E4EBF0;" d="M308.954,282.401h-2.193c-24.994,0-37.508-6.641-43.869-16.165l-45.915,31.34l0.033,0.042
			l-6.671,47.939l-6.661-47.874l-46.071-31.446c-6.361,9.524-18.875,16.165-43.869,16.165h-2.193
			c-39.976,0-72.384,32.407-72.384,72.384v46.062c0,10.902,8.838,19.741,19.741,19.741h111.865h23.163h32.638h36.324h98.705
			c10.903,0,19.741-8.839,19.741-19.741v-46.062C381.337,314.808,348.93,282.401,308.954,282.401z"/>
	</g>
	<g>
		<path style="fill:#FDC88E;" d="M256.401,295.999c2.401,0.655-2.017-6.751,0-6.58l13.07-16.414
			c-12.762-9.915-12.803-26.124-12.803-41.037h-0.358v-15.37h-72.384l-19.741,6.58C177.347,237.984,211.161,283.661,256.401,295.999
			z"/>
	</g>
	<g>
		<path style="fill:#FFE1B2;" d="M302.373,131.054c0,52.696-52.408,118.446-92.124,118.446s-92.124-65.75-92.124-118.446
			S159.37,58.67,210.249,58.67S302.373,78.358,302.373,131.054z"/>
	</g>
	<g>
		<path style="fill:#545465;" d="M197.458,25.769c3.697,0,15.701,4.154,25.512,7.794l0.809-1.214c0,0,1.354,1.064,3.698,2.908
			c5.457,2.072,9.462,3.672,9.462,3.672l-1.539,2.566c24.976,19.678,81.96,64.693,87.084,69.818
			c6.58,6.58-32.633,171.062-32.633,75.562c0-79.786-44.327-95.587-85.544-105.285c-18.644-4.387-30.977-11.953-33.17-22.92
			C168.943,47.703,190.878,25.769,197.458,25.769z"/>
	</g>
	<g>
		<path style="fill:#545465;" d="M177.717,70.292c0,0-50.076,15.368-59.116,69.671c-2.1,12.616-19.579-43.019-19.579-43.019
			s9.87-43.869,12.064-44.966c2.193-1.097,46.611-19.193,46.611-19.193l13.287,11.49L177.717,70.292z"/>
	</g>
	<g>
		<path style="fill:#D0D7DC;" d="M203.668,297.618l-45.417-32.269l-16.089,12.754l30.397,42.324
			c2.456,3.42,7.448,3.685,10.253,0.544L203.668,297.618z"/>
	</g>
	<g>
		<path style="fill:#D0D7DC;" d="M216.829,297.618l45.417-32.269l16.089,12.754l-30.397,42.324
			c-2.456,3.42-7.448,3.685-10.253,0.544L216.829,297.618z"/>
	</g>
	<g>
		<path style="fill:#527992;" d="M142.05,278.093c-6.982,2.713-16.148,4.308-28.313,4.308h-2.193
			c-39.976,0-72.384,32.407-72.384,72.384v46.062c0,10.902,8.838,19.741,19.741,19.741h111.865l-28.604-142.484
			C142.163,278.104,142.062,278.094,142.05,278.093z"/>
	</g>
	<g>
		<path style="fill:#527992;" d="M278.538,278.093c6.982,2.713,16.148,4.308,28.313,4.308h2.193
			c39.976,0,72.384,32.407,72.384,72.384v46.062c0,10.902-8.838,19.741-19.741,19.741H249.821l28.604-142.484
			C278.425,278.104,278.525,278.094,278.538,278.093z"/>
	</g>
	<g>
		<path style="fill:#FFE1B2;" d="M124.984,140.564c-9.864-2.468-16.326,2.805-16.326,13.161c0,13.709,13.265,47.296,27.21,26.321
			S124.984,140.564,124.984,140.564z"/>
	</g>
	<g>
		<circle style="fill:#545465;" cx="131.375" cy="348.641" r="6.58"/>
	</g>
	<g>
		<circle style="fill:#D0D7DC;" cx="210.249" cy="368.382" r="6.58"/>
	</g>
	<g>
		<circle style="fill:#D0D7DC;" cx="210.339" cy="401.587" r="6.58"/>
	</g>
	<g>
		<circle style="fill:#545465;" cx="137.955" cy="388.123" r="6.58"/>
	</g>
	<g>
		<g>
			<g>
				<path style="fill:#545465;" d="M195.596,138.457v4.935c0,14.514-11.808,26.321-26.321,26.321h-6.58
					c-7.257,0-13.161-5.904-13.161-13.161v-18.096H195.596 M195.596,131.876h-46.062c-3.634,0-6.58,2.946-6.58,6.58v18.096
					c0,10.903,8.838,19.741,19.741,19.741h6.58c18.171,0,32.902-14.731,32.902-32.902v-4.935
					C202.177,134.822,199.231,131.876,195.596,131.876L195.596,131.876z"/>
			</g>
		</g>
		<g>
			<g>
				<path style="fill:#545465;" d="M271.144,138.457v18.096c0,7.257-5.904,13.161-13.161,13.161h-6.58
					c-14.514,0-26.321-11.808-26.321-26.321v-4.935H271.144 M271.144,131.876h-46.062c-3.634,0-6.58,2.946-6.58,6.58v4.935
					c0,18.171,14.731,32.902,32.902,32.902h6.58c10.903,0,19.741-8.838,19.741-19.741v-18.096
					C277.724,134.822,274.778,131.876,271.144,131.876L271.144,131.876z"/>
			</g>
		</g>
		<g>
			<g>
				<polygon style="fill:#545465;" points="118.124,131.876 149.534,131.876 149.534,147.53 118.124,139.962 				"/>
			</g>
		</g>
		<g>
			<g>
				<polygon style="fill:#545465;" points="302.554,131.876 271.144,131.876 271.144,147.53 302.554,139.962 				"/>
			</g>
		</g>
		<g>
			<g>
				<path style="fill:#545465;" d="M225.37,147.53h-6.58c0-2.847-3.949-5.347-8.45-5.347s-8.45,2.5-8.45,5.347h-6.58
					c0-6.69,6.603-11.927,15.031-11.927S225.37,140.841,225.37,147.53z"/>
			</g>
		</g>
	</g>
	<g>
		<g>
			<path style="fill:#475F7F;" d="M320.692,395.007h-37.971c-5.451,0-9.87,4.42-9.87,9.87v15.71h57.712v-15.71
				C330.563,399.427,326.144,395.007,320.692,395.007z"/>
		</g>
	</g>
</g>
<g>
</g>
<g>
</g>
<g>
</g>
<g>
</g>
<g>
</g>
<g>
</g>
<g>
</g>
<g>
</g>
<g>
</g>
<g>
</g>
<g>
</g>
<g>
</g>
<g>
</g>
<g>
</g>
<g>
</g>
</svg>
