<?xml version="1.0" encoding="iso-8859-1"?>
<!-- Generator: Adobe Illustrator 19.1.0, SVG Export Plug-In . SVG Version: 6.00 Build 0)  -->
<svg version="1.1" id="Capa_1" xmlns="http://www.w3.org/2000/svg" xmlns:xlink="http://www.w3.org/1999/xlink" x="0px" y="0px"
	 viewBox="0 0 421.141 421.141" style="enable-background:new 0 0 421.141 421.141;" xml:space="preserve">
<g>
	<g>
		<path style="fill:#7C828D;" d="M289.534,69.466c-7.677-36.192-29.611-60.868-39.482-65.803
			c-22.209-11.104-29.611,6.58-39.482,6.58s-17.273-17.685-39.482-6.58c-9.87,4.935-31.805,29.611-39.482,65.803
			c-7.677,36.192,78.964,6.58,78.964,6.58S297.211,105.658,289.534,69.466z"/>
	</g>
	<g>
		<ellipse style="fill:#6E6E79;" cx="210.57" cy="121.736" rx="151.347" ry="55.933"/>
	</g>
	<g>
		<path style="fill:#FFD7A3;" d="M138.277,281.887c14.716-9.475,13.07-37.675,13.07-44.255h118.446c0,6.58-1.825,34.78,12.89,44.255
			l-72.113,80.771L138.277,281.887z"/>
	</g>
	<g>
		<path style="fill:#FDC88E;" d="M256.632,310.016l26.051-28.129c-14.716-9.474-12.89-37.675-12.89-44.255H151.347
			C159.845,262.065,216.054,303.984,256.632,310.016z"/>
	</g>
	<g>
		<path style="fill:#7C828D;" d="M361.918,421.14c10.903,0,19.741-8.838,19.741-19.741v-42.981
			c0-28.954-22.562-59.864-50.138-68.687l-41.168-13.173c-22.149,16.936-53.802,40.039-79.782,40.039s-57.633-23.103-79.782-40.039
			L89.62,289.731c-27.576,8.823-50.138,39.733-50.138,68.687v42.981c0,10.903,8.838,19.741,19.741,19.741H361.918z"/>
	</g>
	<g>
		<path style="fill:#29394A;" d="M210.57,316.596c-18.694,0-40.309-11.967-59.223-24.985v63.726l46.059,65.803h26.325l46.061-65.803
			v-63.726C250.879,304.629,229.264,316.596,210.57,316.596z"/>
	</g>
	<g>
		<path style="fill:#6E6E79;" d="M158.094,281.765l45.896,139.375h-26.321l-61.768-74.928c-2.316-2.316-2.576-5.981-0.611-8.601
			l16.317-21.756l-33.95-11.317c-3.25-1.083-5.137-4.443-4.326-7.771c3.657-15.002,17.009-53.296,58.016-53.296v0
			C151.347,256.532,153.631,269.491,158.094,281.765z"/>
	</g>
	<g>
		<path style="fill:#6E6E79;" d="M263.047,281.765l-45.896,139.375h26.321l61.768-74.928c2.316-2.316,2.576-5.981,0.611-8.601
			l-16.317-21.756l33.95-11.317c3.25-1.083,5.137-4.443,4.326-7.771c-3.657-15.002-17.009-53.296-58.016-53.296v0
			C269.793,256.532,267.51,269.491,263.047,281.765z"/>
	</g>
	<g>
		<path style="fill:#FFE1B2;" d="M120.114,118.285c-1.582,9.309-1.668,20.502-1.668,33.803c0,52.696,30.343,118.446,92.124,118.446
			s92.124-65.75,92.124-118.446c0-13.302-0.086-24.494-1.668-33.803c-24.784-8.127-56.221-13-90.457-13
			S144.898,110.158,120.114,118.285z"/>
	</g>
	<g>
		<path style="fill:#FFE1B2;" d="M121.521,163.604c-9.864-2.468-16.326,2.805-16.326,13.161c0,13.709,13.265,47.296,27.21,26.321
			C146.351,182.111,121.521,163.604,121.521,163.604z"/>
	</g>
	<g>
		<path style="fill:#FFE1B2;" d="M297.944,163.604c10.767-2.468,17.821,2.805,17.821,13.161c0,13.709-14.479,47.296-29.701,26.321
			S297.944,163.604,297.944,163.604z"/>
	</g>
	<g>
		<path style="fill:#29394A;" d="M118.446,152.088c0,6.44,0.46,13.075,1.369,19.761l11.792,6.56c0,0,6.992-49.682,13.161-66.544
			c-0.01-0.016-0.017-0.031-0.028-0.048c-8.739,1.833-17.027,3.975-24.626,6.467C118.532,127.595,118.446,138.787,118.446,152.088z"
			/>
	</g>
	<g>
		<path style="fill:#29394A;" d="M302.695,152.088c0,6.44-0.46,13.075-1.369,19.761l-11.792,6.56c0,0-6.992-49.682-13.161-66.544
			c0.01-0.016,0.017-0.031,0.028-0.048c8.739,1.833,17.027,3.975,24.626,6.467C302.609,127.595,302.695,138.787,302.695,152.088z"/>
	</g>
	<g>
		<g>
			<g>
				<path style="fill:#29394A;" d="M195.918,166.153v4.935c0,14.514-11.808,26.321-26.321,26.321h-6.58
					c-7.257,0-13.161-5.904-13.161-13.161v-18.096H195.918 M195.918,159.573h-46.062c-3.634,0-6.58,2.946-6.58,6.58v18.096
					c0,10.903,8.838,19.741,19.741,19.741h6.58c18.171,0,32.902-14.731,32.902-32.902v-4.935
					C202.498,162.519,199.552,159.573,195.918,159.573L195.918,159.573z"/>
			</g>
		</g>
		<g>
			<g>
				<path style="fill:#29394A;" d="M271.465,166.153v18.096c0,7.257-5.904,13.161-13.161,13.161h-6.58
					c-14.514,0-26.321-11.808-26.321-26.321v-4.935H271.465 M271.465,159.573h-46.062c-3.634,0-6.58,2.946-6.58,6.58v4.935
					c0,18.171,14.731,32.902,32.902,32.902h6.58c10.903,0,19.741-8.838,19.741-19.741v-18.096
					C278.046,162.519,275.1,159.573,271.465,159.573L271.465,159.573z"/>
			</g>
		</g>
		<g>
			<g>
				<polygon style="fill:#29394A;" points="125.026,159.573 149.856,159.573 149.856,175.227 125.026,167.659 				"/>
			</g>
		</g>
		<g>
			<g>
				<polygon style="fill:#29394A;" points="296.114,159.573 271.466,159.573 271.466,175.227 296.114,167.659 				"/>
			</g>
		</g>
		<g>
			<g>
				<path style="fill:#29394A;" d="M225.691,175.227h-6.58c0-2.847-3.949-5.347-8.45-5.347s-8.45,2.5-8.45,5.347h-6.58
					c0-6.69,6.603-11.927,15.031-11.927S225.691,168.537,225.691,175.227z"/>
			</g>
		</g>
	</g>
</g>
<g>
</g>
<g>
</g>
<g>
</g>
<g>
</g>
<g>
</g>
<g>
</g>
<g>
</g>
<g>
</g>
<g>
</g>
<g>
</g>
<g>
</g>
<g>
</g>
<g>
</g>
<g>
</g>
<g>
</g>
</svg>
