<?xml version="1.0" encoding="iso-8859-1"?>
<!-- Generator: Adobe Illustrator 19.1.0, SVG Export Plug-In . SVG Version: 6.00 Build 0)  -->
<svg version="1.1" id="Capa_1" xmlns="http://www.w3.org/2000/svg" xmlns:xlink="http://www.w3.org/1999/xlink" x="0px" y="0px"
	 viewBox="0 0 440.087 440.087" style="enable-background:new 0 0 440.087 440.087;" xml:space="preserve">
<g>
	<g>
		<path style="fill:#FFD7A3;" d="M147.613,280.352c14.716-9.475,13.07-37.675,13.07-44.255h118.446c0,6.58-1.825,34.78,12.89,44.255
			l-72.113,80.771L147.613,280.352z"/>
	</g>
	<g>
		<path style="fill:#FDC88E;" d="M265.969,308.481l26.051-28.129c-14.716-9.474-12.89-37.675-12.89-44.255H160.683
			C169.182,260.529,225.39,302.449,265.969,308.481z"/>
	</g>
	<g>
		<path style="fill:#FFE1B2;" d="M312.031,150.553c0,52.696-30.343,118.446-92.124,118.446s-92.124-65.75-92.124-118.446
			s41.246-72.384,92.124-72.384S312.031,97.857,312.031,150.553z"/>
	</g>
	<g>
		<path style="fill:#7ED2E7;" d="M371.254,440.087c10.903,0,19.741-8.838,19.741-19.741v-63.463
			c0-28.954-22.562-59.864-50.138-68.687l-41.168-13.173c-22.149,16.936-53.802,40.039-79.782,40.039s-57.633-23.103-79.782-40.039
			l-41.168,13.173c-27.576,8.823-50.138,39.733-50.138,68.687v63.463c0,10.903,8.838,19.741,19.741,19.741H371.254z"/>
	</g>
	<g>
		<path style="fill:#FF6953;" d="M180.424,38.687c-6.169,0-6.875,0-13.161,0c-25.439,0-46.199,20.317-49.901,45.486
			c-5.484,37.288,10.419,78.939,10.419,78.939s8.225-54.811,44.417-70.714C191.513,83.912,180.424,38.687,180.424,38.687z"/>
	</g>
	<g>
		<path style="fill:#FF6953;" d="M157.668,39.705C234.712,32.902,257.469,16.04,259.937,0c63.14,32.627,75.125,125.3,52.094,163.112
			l-19.741-45.461c0,0-81.157,19.165-138.187-16.751"/>
	</g>
	<g>
		<path style="fill:#67BED8;" d="M219.906,315.061l-32.902,32.902l-52.643-72.384l15.326-15.326
			c2.475-2.475,6.454-2.579,9.055-0.238L219.906,315.061z"/>
	</g>
	<g>
		<path style="fill:#67BED8;" d="M219.906,315.061l32.902,32.902l52.643-72.384l-15.326-15.326
			c-2.475-2.475-6.454-2.579-9.055-0.238L219.906,315.061z"/>
	</g>
	<g>
		<path style="fill:#FF6953;" d="M233.067,334.802c0,3.619-2.961,6.58-6.58,6.58h-13.161c-3.619,0-6.58-2.961-6.58-6.58v-13.161
			c0-3.619,2.961-6.58,6.58-6.58h13.161c3.619,0,6.58,2.961,6.58,6.58V334.802z"/>
	</g>
	<g>
		<path style="fill:#FF6953;" d="M213.326,321.641l-36.89-15.81c-4.342-1.861-9.172,1.324-9.172,6.048v32.684
			c0,4.724,4.83,7.909,9.172,6.048l36.89-15.81V321.641z"/>
	</g>
	<g>
		<path style="fill:#FF6953;" d="M226.487,321.641l36.89-15.81c4.342-1.861,9.172,1.324,9.172,6.048v32.684
			c0,4.724-4.83,7.909-9.172,6.048l-36.89-15.81V321.641z"/>
	</g>
	<g>
		<circle style="fill:#67BED8;" cx="219.906" cy="374.284" r="6.58"/>
	</g>
	<g>
		<circle style="fill:#67BED8;" cx="219.906" cy="407.185" r="6.58"/>
	</g>
	<g>
		<path style="fill:#FFE1B2;" d="M130.947,163.714c-9.864-2.468-16.326,2.805-16.326,13.161c0,13.709,13.265,47.296,27.21,26.321
			S130.947,163.714,130.947,163.714z"/>
	</g>
	<g>
		<path style="fill:#FFE1B2;" d="M307.371,163.714c10.767-2.468,17.821,2.805,17.821,13.161c0,13.709-14.479,47.296-29.701,26.321
			S307.371,163.714,307.371,163.714z"/>
	</g>
	<g>
		<path style="fill:#FF6953;" d="M252.808,439.853h120.764c9.797-1.16,17.423-9.399,17.423-19.507v-63.464
			c0-28.954-22.562-59.864-50.138-68.687l-35.877-11.481h-0.002L252.808,439.853z"/>
	</g>
	<g>
		<path style="fill:#FF6953;" d="M134.835,276.715l-0.002,0l-35.877,11.48c-27.576,8.823-50.138,39.733-50.138,68.687v63.464
			c0,10.109,7.627,18.347,17.423,19.507h120.764L134.835,276.715z"/>
	</g>
	<g>
		<g>
			<path style="fill:#C55F54;" d="M87.546,293.284c-4.248,2.409-8.302,5.296-12.064,8.61v137.959h12.064V293.284z"/>
		</g>
		<g>
			<polygon style="fill:#C55F54;" points="114.21,283.314 102.146,287.174 102.146,439.853 114.21,439.853 			"/>
		</g>
		<g>
			<path style="fill:#C55F54;" d="M60.882,318.919c-7.498,11.606-12.064,24.974-12.064,37.964v63.464
				c0,8.156,5.002,15.023,12.064,18.009V318.919z"/>
		</g>
		<g>
			<polygon style="fill:#C55F54;" points="140.874,295.598 134.835,276.715 134.833,276.715 128.81,278.643 128.81,439.853 
				140.874,439.853 			"/>
		</g>
		<g>
			<polygon style="fill:#C55F54;" points="167.538,378.979 155.474,341.254 155.474,439.853 167.538,439.853 			"/>
		</g>
	</g>
	<g>
		<g>
			<path style="fill:#C55F54;" d="M352.541,293.284c4.248,2.409,8.302,5.296,12.064,8.61v137.959h-12.064V293.284z"/>
		</g>
		<g>
			<polygon style="fill:#C55F54;" points="325.877,283.314 337.941,287.174 337.941,439.853 325.877,439.853 			"/>
		</g>
		<g>
			<path style="fill:#C55F54;" d="M379.205,318.919c7.498,11.606,12.064,24.974,12.064,37.964v63.464
				c0,8.156-5.002,15.023-12.064,18.009V318.919z"/>
		</g>
		<g>
			<polygon style="fill:#C55F54;" points="299.213,295.598 305.252,276.715 305.254,276.715 311.277,278.643 311.277,439.853 
				299.213,439.853 			"/>
		</g>
		<g>
			<polygon style="fill:#C55F54;" points="272.549,378.979 284.613,341.254 284.613,439.853 272.549,439.853 			"/>
		</g>
	</g>
</g>
<g>
</g>
<g>
</g>
<g>
</g>
<g>
</g>
<g>
</g>
<g>
</g>
<g>
</g>
<g>
</g>
<g>
</g>
<g>
</g>
<g>
</g>
<g>
</g>
<g>
</g>
<g>
</g>
<g>
</g>
</svg>
