<?xml version="1.0" encoding="iso-8859-1"?>
<!-- Generator: Adobe Illustrator 19.1.0, SVG Export Plug-In . SVG Version: 6.00 Build 0)  -->
<svg version="1.1" id="Capa_1" xmlns="http://www.w3.org/2000/svg" xmlns:xlink="http://www.w3.org/1999/xlink" x="0px" y="0px"
	 viewBox="0 0 421.141 421.141" style="enable-background:new 0 0 421.141 421.141;" xml:space="preserve">
<g>
	<g>
		<path style="fill:#FFD7A3;" d="M138.277,261.405c14.716-9.475,13.07-37.675,13.07-44.255h118.446c0,6.58-1.825,34.78,12.89,44.255
			l-72.113,80.771L138.277,261.405z"/>
	</g>
	<g>
		<path style="fill:#FDC88E;" d="M256.632,289.534l26.051-28.129c-14.716-9.474-12.89-37.675-12.89-44.255H151.347
			C159.845,241.583,216.054,283.502,256.632,289.534z"/>
	</g>
	<g>
		<path style="fill:#FFE1B2;" d="M302.695,131.606c0,52.696-30.343,118.446-92.124,118.446s-92.124-65.75-92.124-118.446
			s41.246-72.384,92.124-72.384S302.695,78.91,302.695,131.606z"/>
	</g>
	<g>
		<path style="fill:#FF6953;" d="M361.918,421.141c10.903,0,19.741-8.838,19.741-19.741v-63.463
			c0-28.954-22.562-59.864-50.138-68.687l-41.168-13.173c-22.149,16.936-53.802,40.039-79.782,40.039s-57.633-23.103-79.782-40.039
			L89.62,269.249c-27.576,8.823-50.138,39.733-50.138,68.687V401.4c0,10.903,8.838,19.741,19.741,19.741H361.918z"/>
	</g>
	<g>
		<path style="fill:#E54F4F;" d="M210.57,296.114l-27.456,27.456c-2.859,2.859-7.596,2.487-9.975-0.783l-48.113-66.156
			l15.326-15.326c2.475-2.475,6.454-2.579,9.055-0.238L210.57,296.114z"/>
	</g>
	<g>
		<path style="fill:#E54F4F;" d="M210.57,296.114l27.456,27.456c2.859,2.859,7.596,2.487,9.975-0.783l48.113-66.156l-15.326-15.326
			c-2.475-2.475-6.454-2.579-9.055-0.238L210.57,296.114z"/>
	</g>
	<g>
		<circle style="fill:#E54F4F;" cx="210.57" cy="361.918" r="6.58"/>
	</g>
	<g>
		<circle style="fill:#E54F4F;" cx="210.57" cy="329.016" r="6.58"/>
	</g>
	<g>
		<path style="fill:#FFE1B2;" d="M121.611,138.187c-9.864-2.468-16.326,2.805-16.326,13.161c0,13.709,13.265,47.296,27.21,26.321
			S121.611,138.187,121.611,138.187z"/>
	</g>
	<g>
		<path style="fill:#FFE1B2;" d="M298.035,138.187c10.767-2.468,17.821,2.805,17.821,13.161c0,13.709-14.479,47.296-29.701,26.321
			S298.035,138.187,298.035,138.187z"/>
	</g>
	<g>
		<path style="fill:#7E5449;" d="M138.187,110.632c-2.742,7.129-6.58,39.482-6.58,39.482l-13.161-6.58l-3.701-43.595
			L138.187,110.632z"/>
	</g>
	<g>
		<path style="fill:#7E5449;" d="M282.954,110.632c2.742,7.129,6.58,39.482,6.58,39.482l13.161-6.58l3.701-43.595L282.954,110.632z"
			/>
	</g>
	<g>
		<path style="fill:#FFB422;" d="M279.141,20.86L228.987,3.154c-11.91-4.205-24.924-4.205-36.834,0L142,20.86
			c-16.345,5.771-27.256,21.076-27.256,38.233v59.352h191.652V59.093C306.396,41.936,295.486,26.631,279.141,20.86z"/>
	</g>
	<g>
		<path style="fill:#E54F4F;" d="M210.57,85.544c-39.976,0-99.802,14.73-99.802,32.902h199.603
			C310.372,100.275,250.547,85.544,210.57,85.544z"/>
	</g>
	<g>
		<path style="fill:#393950;" d="M312.922,263.298l-88.393,157.843h45.253l79.801-142.5c-5.617-4.097-11.695-7.353-18.063-9.391
			L312.922,263.298z"/>
	</g>
	<g>
		<ellipse style="fill:#FF6953;" cx="210.57" cy="46.062" rx="39.482" ry="26.321"/>
	</g>
</g>
<g>
</g>
<g>
</g>
<g>
</g>
<g>
</g>
<g>
</g>
<g>
</g>
<g>
</g>
<g>
</g>
<g>
</g>
<g>
</g>
<g>
</g>
<g>
</g>
<g>
</g>
<g>
</g>
<g>
</g>
</svg>
