<?xml version="1.0" encoding="iso-8859-1"?>
<!-- Generator: Adobe Illustrator 19.1.0, SVG Export Plug-In . SVG Version: 6.00 Build 0)  -->
<svg version="1.1" id="Capa_1" xmlns="http://www.w3.org/2000/svg" xmlns:xlink="http://www.w3.org/1999/xlink" x="0px" y="0px"
	 viewBox="0 0 395.436 395.436" style="enable-background:new 0 0 395.436 395.436;" xml:space="preserve">
<g>
	<g>
		<path style="fill:#FFE1B2;" d="M285.182,111.922c10.767-2.468,17.821,2.805,17.821,13.161c0,13.709-14.479,47.296-29.701,26.321
			C258.08,130.429,285.182,111.922,285.182,111.922z"/>
	</g>
	<g>
		<path style="fill:#FFE1B2;" d="M108.759,111.922c-9.864-2.468-16.326,2.805-16.326,13.161c0,13.709,13.265,47.296,27.21,26.321
			S108.759,111.922,108.759,111.922z"/>
	</g>
	<g>
		<path style="fill:#FFD7A3;" d="M125.425,241.721c14.716-9.475,13.07-50.835,13.07-57.416h118.446
			c0,6.58-1.825,47.941,12.89,57.416l-72.113,67.611L125.425,241.721z"/>
	</g>
	<g>
		<path style="fill:#FDC88E;" d="M243.78,256.689l26.051-14.968c-14.716-9.474-12.89-50.835-12.89-57.416H138.495
			C146.993,208.738,203.202,250.657,243.78,256.689z"/>
	</g>
	<g>
		<path style="fill:#FFE1B2;" d="M289.843,98.761c0,52.696-30.343,118.446-92.124,118.446s-92.124-65.75-92.124-118.446
			C105.594,26.321,146.839,0,197.718,0S289.843,26.733,289.843,98.761z"/>
	</g>
	<g>
		<path style="fill:#4C8CB6;" d="M349.065,395.436c10.903,0,19.741-8.838,19.741-19.741v-64.707
			c0-28.954-22.562-59.864-50.138-68.687L277.5,229.128c-22.149,16.936-53.802,40.039-79.782,40.039s-57.633-23.103-79.782-40.039
			l-41.168,13.173c-27.576,8.823-50.138,39.733-50.138,68.687v64.707c0,10.903,8.838,19.741,19.741,19.741H349.065z"/>
	</g>
	<g>
		<path style="fill:#4EA0CA;" d="M67.894,395.436h259.648V246.022c-2.887-1.472-5.843-2.75-8.874-3.72L277.5,229.128
			c-22.149,16.936-53.802,40.039-79.782,40.039s-57.633-23.103-79.782-40.039l-41.168,13.173c-3.031,0.97-5.987,2.249-8.874,3.72
			V395.436z"/>
	</g>
	<g>
		<path style="fill:#455465;" d="M197.718,269.167l-27.456,27.456c-2.859,2.859-7.596,2.487-9.975-0.783l-48.113-66.156
			l15.326-15.326c2.475-2.475,6.454-2.579,9.055-0.238L197.718,269.167z"/>
	</g>
	<g>
		<path style="fill:#455465;" d="M197.718,269.167l27.456,27.456c2.859,2.859,7.596,2.487,9.975-0.783l48.113-66.156l-15.326-15.326
			c-2.475-2.475-6.454-2.579-9.055-0.238L197.718,269.167z"/>
	</g>
	<g>
		<path style="fill:#ADB4BA;" d="M287.7,78.138c-5.267-6.759-10.916-13.704-10.916-13.704v6.58
			c1.632,59.634-19.588,85.544-19.588,85.544l-27.038,3.027c-21.086,2.361-42.366,2.361-63.452,0l-27.038-3.027
			c0,0-21.22-25.91-19.588-85.544v-6.58c0,0-5.649,6.944-10.916,13.704c-1.373,5.869-3.571,12.25-3.571,19.254
			c0,52.696,10.348,128.671,93.088,128.671s91.161-75.975,91.161-128.671C289.843,90.388,289.073,84.007,287.7,78.138z"/>
	</g>
	<g>
		<path style="fill:#DCDCDC;" d="M201.392,164.923c0-8.689-9.56-10.656-15.856-8.55c-11.542,3.861-24.251,14.632-34.977,7.971
			c0,0,3.731,13.903,10.025,13.903C173.176,178.247,201.392,179.695,201.392,164.923z"/>
	</g>
	<g>
		<path style="fill:#DCDCDC;" d="M198.375,164.923c0-8.689,9.56-10.656,15.856-8.55c11.542,3.861,24.251,14.632,34.977,7.971
			c0,0-3.731,13.903-10.025,13.903C226.591,178.247,198.375,179.695,198.375,164.923z"/>
	</g>
	<g>
		<path style="fill:#DCDCDC;" d="M289.712,95.185C288.325,25.925,247.721,0,197.718,0c-50.007,0-90.615,25.534-91.994,95.186
			c23.772-16.66,39.352-44.213,39.352-75.445c0-0.171-0.025-0.337-0.026-0.508c13.98,12.549,32.403,20.249,52.668,20.249
			s38.688-7.7,52.668-20.249c-0.001,0.171-0.026,0.337-0.026,0.508C250.361,50.973,265.941,78.525,289.712,95.185z"/>
	</g>
	<g>
		<path style="fill:#DCDCDC;" d="M105.594,98.761c0,6.991-0.095,10.651,0.463,18.525l19.871,8.359c0,0-7.174-33.29,8.729-53.579
			c10.091-12.875,19.055-27.829,10.419-52.325c-0.66-1.872-1.433-3.651-2.25-5.386C120.27,28.97,105.594,55.647,105.594,98.761z"/>
	</g>
	<g>
		<path style="fill:#DCDCDC;" d="M290.138,98.761c0,6.991,0.095,10.651-0.463,18.525l-19.871,8.359c0,0,7.174-33.29-8.729-53.579
			c-10.091-12.875-19.055-27.829-10.419-52.325c0.66-1.872,1.433-3.651,2.25-5.386C275.462,28.97,290.138,55.647,290.138,98.761z"/>
	</g>
	<g>
		<path style="fill:#545465;" d="M145.952,121.94c-0.267,0-0.535-0.032-0.805-0.1l-40.007-10.047
			c-1.762-0.443-2.832-2.23-2.389-3.991c0.442-1.764,2.228-2.84,3.992-2.391l40.007,10.047c1.762,0.443,2.832,2.23,2.389,3.991
			C148.765,120.944,147.423,121.94,145.952,121.94z"/>
	</g>
	<g>
		<path style="fill:#545465;" d="M248.114,121.94c-1.473,0-2.815-0.996-3.189-2.49c-0.44-1.764,0.63-3.55,2.394-3.991l40.131-10.047
			c1.756-0.437,3.549,0.63,3.991,2.391c0.44,1.764-0.63,3.55-2.394,3.991l-40.131,10.047
			C248.647,121.908,248.379,121.94,248.114,121.94z"/>
	</g>
	<g>
		<path style="fill:#545465;" d="M215.975,123.585c-1.817,0-3.29-1.472-3.29-3.29c0-4.91-7.168-9.058-15.652-9.058
			c-8.486,0-15.654,4.148-15.654,9.058c0,1.819-1.473,3.29-3.29,3.29c-1.817,0-3.29-1.472-3.29-3.29
			c0-8.768,9.766-15.638,22.234-15.638c12.467,0,22.233,6.869,22.233,15.638C219.265,122.114,217.792,123.585,215.975,123.585z"/>
	</g>
	<g>
		<path style="fill:#4EA0CA;" d="M76.768,242.301"/>
	</g>
	<g>
		<path style="fill:#545465;" d="M162.018,138.012c-10.675,0-19.36-8.685-19.36-19.362c0-10.674,8.685-19.359,19.36-19.359
			s19.36,8.685,19.36,19.359C181.379,129.327,172.694,138.012,162.018,138.012z M162.018,105.872c-7.046,0-12.78,5.732-12.78,12.778
			s5.734,12.782,12.78,12.782s12.78-5.735,12.78-12.782S169.065,105.872,162.018,105.872z"/>
	</g>
	<g>
		<path style="fill:#545465;" d="M232.047,138.012c-10.677,0-19.362-8.685-19.362-19.362c0-10.674,8.685-19.359,19.362-19.359
			c10.675,0,19.36,8.685,19.36,19.359C251.407,129.327,242.722,138.012,232.047,138.012z M232.047,105.872
			c-7.048,0-12.782,5.732-12.782,12.778s5.734,12.782,12.782,12.782c7.046,0,12.78-5.735,12.78-12.782
			S239.093,105.872,232.047,105.872z"/>
	</g>
</g>
<g>
</g>
<g>
</g>
<g>
</g>
<g>
</g>
<g>
</g>
<g>
</g>
<g>
</g>
<g>
</g>
<g>
</g>
<g>
</g>
<g>
</g>
<g>
</g>
<g>
</g>
<g>
</g>
<g>
</g>
</svg>
