<?xml version="1.0" encoding="iso-8859-1"?>
<!-- Generator: Adobe Illustrator 19.1.0, SVG Export Plug-In . SVG Version: 6.00 Build 0)  -->
<svg version="1.1" id="Capa_1" xmlns="http://www.w3.org/2000/svg" xmlns:xlink="http://www.w3.org/1999/xlink" x="0px" y="0px"
	 viewBox="0 0 412.367 412.367" style="enable-background:new 0 0 412.367 412.367;" xml:space="preserve">
<g>
	<g>
		<path style="fill:#00B4C4;" d="M252.603,217.167h-0.358v-15.37h-92.124v15.354c0,15.042-0.063,31.392-13.161,41.282v153.934
			h59.223c0,0,31.011,0,59.223,0V258.203C252.644,248.288,252.603,232.08,252.603,217.167z"/>
	</g>
	<g>
		<path style="fill:#0099B6;" d="M252.336,281.197c2.401,0.655-2.017-6.751,0-6.58l13.07-16.414
			c-12.762-9.915-12.803-26.124-12.803-41.037l0.002-0.053v-15.37l-72.743,0.053l-19.741,6.58
			C173.282,223.183,207.096,268.859,252.336,281.197z"/>
	</g>
	<g>
		<path style="fill:#FFE1B2;" d="M298.308,116.252c0,52.696-52.408,118.446-92.124,118.446s-92.124-65.75-92.124-118.446
			s41.246-72.384,92.124-72.384S298.308,63.556,298.308,116.252z"/>
	</g>
	<g>
		<path style="fill:#00B4C4;" d="M130.51,155.323l-7.162-11.466l-5.718-2.329c6.155,22.896,19.684,45.906,35.834,63.341
			c1.173-3.281-1.839-12.177-1.839-12.177L130.51,155.323z"/>
	</g>
	<g>
		<path style="fill:#00B4C4;" d="M281.881,155.297l7.162-11.466l5.718-2.329c-6.155,22.896-19.684,45.906-35.834,63.341
			c-1.173-3.281,1.839-12.177,1.839-12.177L281.881,155.297z"/>
	</g>
	<g>
		<path style="fill:#FFFFFF;" d="M295.84,98.705H116.258v16.901l20.619,10.08v12.319c0,5.451,4.419,9.87,9.87,9.87h26.998
			c4.624,0,10.403-3.216,12.84-7.146c0,0,5.747-9.291,9.574-15.485c2.076-3.361,5.746-5.394,9.696-5.379
			c0.064,0,0.129,0,0.193,0.001c3.921,0.014,7.552,2.041,9.614,5.377c3.818,6.177,9.576,15.485,9.576,15.485
			c2.438,3.931,8.217,7.147,12.843,7.147h26.996c5.451,0,9.87-4.419,9.87-9.87v-12.32l20.892-10.213V98.705z"/>
	</g>
	<g>
		<path style="fill:#E4EBF0;" d="M304.888,267.6h-2.193c-5.25,0-9.835-0.353-14.043-0.904c-7.739-1.874-25.549-20.272-29.467-35.364
			c-0.6-2.313-3.241-3.405-5.131-1.943c-8.293,6.418-27.353,19.17-47.871,19.17s-39.578-12.752-47.871-19.17
			c-1.889-1.462-4.53-0.37-5.13,1.943c-3.918,15.093-21.729,33.491-29.468,35.364c-4.207,0.551-8.792,0.904-14.042,0.904h-2.193
			c-39.976,0-72.384,32.407-72.384,72.384v52.643c0,10.902,8.838,19.741,19.741,19.741h111.865h23.163h32.638h36.323h98.705
			c10.903,0,19.741-8.839,19.741-19.741v-52.643C377.272,300.007,344.865,267.6,304.888,267.6z"/>
	</g>
	<g>
		<path style="fill:#00B4C4;" d="M206.456,0c-0.092,0-0.18,0.014-0.272,0.014c-0.092,0-0.18-0.014-0.272-0.014
			c-52.847,0-95.687,35.095-95.687,98.526c0,49.397,16.922,50.216,16.082,45.331c-7.86-45.701,31.302-59.41,79.605-59.41
			c0.092,0,0.18,0.003,0.272,0.003c0.092,0,0.18-0.003,0.272-0.003c48.304,0,87.465,13.709,79.605,59.41
			c-0.84,4.885,16.082,4.066,16.082-45.331C302.143,35.095,259.302,0,206.456,0z"/>
	</g>
	<g>
		<path style="fill:#D0D7DC;" d="M118.686,146.584l32.938,46.109l3.454-12.666l-42.962-55.823
			C112.116,124.203,114.059,135.788,118.686,146.584z"/>
	</g>
	<g>
		<path style="fill:#D0D7DC;" d="M293.794,146.584l-32.938,46.109l-3.454-12.666l42.962-55.823
			C300.364,124.203,298.421,135.788,293.794,146.584z"/>
	</g>
	<g>
		<path style="fill:#E4EBF0;" d="M265.134,174.266c0-5.285-3.161-10.057-8.027-12.118l-35.795-15.163
			c-9.844-4.17-20.957-4.17-30.801,0l-35.795,15.163c-4.866,2.061-8.027,6.833-8.027,12.118v22.768
			c17.838,22.067,40.163,37.664,59.495,37.664c19.135,0,41.204-15.282,58.951-36.994V174.266z"/>
	</g>
	<g>
		<path style="fill:#D0D7DC;" d="M183.371,412.367h6.494h0.087V246.054c-2.254-0.655-4.454-1.392-6.58-2.228V412.367z"/>
	</g>
	<g>
		<circle style="fill:#D0D7DC;" cx="206.183" cy="314.073" r="6.58"/>
	</g>
	<g>
		<circle style="fill:#D0D7DC;" cx="206.183" cy="346.975" r="6.58"/>
	</g>
	<g>
		<circle style="fill:#D0D7DC;" cx="206.183" cy="379.877" r="6.58"/>
	</g>
	<g>
		<path style="fill:#D0D7DC;" d="M275.871,257.566c-7.115-7.143-14.356-17.261-16.686-26.235c-0.6-2.313-3.241-3.405-5.131-1.943
			c-8.293,6.418-27.353,19.17-47.871,19.17s-39.578-12.752-47.871-19.17c-1.889-1.462-4.53-0.37-5.13,1.943
			c-2.329,8.974-9.57,19.093-16.686,26.235c13.022,16.693,39.31,28.129,69.687,28.129S262.849,274.26,275.871,257.566z"/>
	</g>
</g>
<g>
</g>
<g>
</g>
<g>
</g>
<g>
</g>
<g>
</g>
<g>
</g>
<g>
</g>
<g>
</g>
<g>
</g>
<g>
</g>
<g>
</g>
<g>
</g>
<g>
</g>
<g>
</g>
<g>
</g>
</svg>
