<?xml version="1.0" encoding="iso-8859-1"?>
<!-- Generator: Adobe Illustrator 19.1.0, SVG Export Plug-In . SVG Version: 6.00 Build 0)  -->
<svg version="1.1" id="Capa_1" xmlns="http://www.w3.org/2000/svg" xmlns:xlink="http://www.w3.org/1999/xlink" x="0px" y="0px"
	 viewBox="0 0 421.141 421.141" style="enable-background:new 0 0 421.141 421.141;" xml:space="preserve">
<g>
	<g>
		<path style="fill:#FFE1B2;" d="M121.521,176.024c-9.864-2.468-16.326,2.805-16.326,13.161c0,13.709,13.265,47.296,27.21,26.321
			S121.521,176.024,121.521,176.024z"/>
	</g>
	<g>
		<path style="fill:#FFE1B2;" d="M297.944,176.024c10.767-2.468,17.821,2.805,17.821,13.161c0,13.709-14.479,47.296-29.701,26.321
			S297.944,176.024,297.944,176.024z"/>
	</g>
	<g>
		<path style="fill:#FFD7A3;" d="M138.277,294.307c14.716-9.475,13.07-37.675,13.07-44.255h118.446c0,6.58-1.825,34.78,12.89,44.255
			l-72.113,80.771L138.277,294.307z"/>
	</g>
	<g>
		<path style="fill:#FDC88E;" d="M256.632,322.436l26.051-28.129c-14.716-9.474-12.89-37.675-12.89-44.255H151.347
			C159.845,274.485,216.054,316.404,256.632,322.436z"/>
	</g>
	<g>
		<path style="fill:#FFE1B2;" d="M302.695,164.508c0,52.696-30.343,118.446-92.124,118.446s-92.124-65.75-92.124-118.446
			s41.246-72.384,92.124-72.384S302.695,111.812,302.695,164.508z"/>
	</g>
	<g>
		<path style="fill:#543D38;" d="M138.187,147.146c-2.742,7.887-6.58,43.683-6.58,43.683l-13.161-7.281l-3.701-48.234
			L138.187,147.146z"/>
	</g>
	<g>
		<path style="fill:#543D38;" d="M282.954,147.146c2.742,7.887,6.58,43.683,6.58,43.683l13.161-7.281l3.701-48.234L282.954,147.146z
			"/>
	</g>
	<g>
		<path style="fill:#2582B1;" d="M361.918,421.141c10.903,0,19.741-8.838,19.741-19.741v-30.562
			c0-28.954-22.562-59.864-50.138-68.687l-41.168-13.173c-22.149,16.936-53.802,40.039-79.782,40.039s-57.633-23.103-79.782-40.039
			L89.62,302.151c-27.576,8.823-50.138,39.733-50.138,68.687V401.4c0,10.903,8.838,19.741,19.741,19.741H361.918z"/>
	</g>
	<g>
		<rect x="175.612" y="329.016" style="fill:#D0D7DC;" width="72.384" height="92.124"/>
	</g>
	<g>
		<path style="fill:#545465;" d="M223.731,348.757c0,3.619-2.961,6.58-6.58,6.58H203.99c-3.619,0-6.58-2.961-6.58-6.58v-13.161
			c0-3.619,2.961-6.58,6.58-6.58h13.161c3.619,0,6.58,2.961,6.58,6.58V348.757z"/>
	</g>
	<g>
		<circle style="fill:#D0D7DC;" cx="210.57" cy="388.239" r="6.58"/>
	</g>
	<g>
		<path style="fill:#E4EBF0;" d="M210.57,329.016l-27.456,27.456c-2.859,2.859-7.596,2.487-9.975-0.783l-48.113-66.156
			l15.326-15.326c2.475-2.475,6.454-2.579,9.055-0.238L210.57,329.016z"/>
	</g>
	<g>
		<path style="fill:#E4EBF0;" d="M210.57,329.016l27.456,27.456c2.859,2.859,7.596,2.487,9.975-0.783l48.113-66.156l-15.326-15.326
			c-2.475-2.475-6.454-2.579-9.055-0.238L210.57,329.016z"/>
	</g>
	<g>
		<polygon style="fill:#545465;" points="219.611,351.636 210.57,355.337 201.53,351.636 197.41,421.141 210.57,421.141 
			223.731,421.141 		"/>
	</g>
	<g>
		<path style="fill:#2582B1;" d="M342.177,85.544c0,36.342-58.922,46.062-131.606,46.062s-131.606-9.72-131.606-46.062
			S137.886,0,210.57,0S342.177,49.202,342.177,85.544z"/>
	</g>
	<g>
		<ellipse style="fill:#29394A;" cx="210.57" cy="131.606" rx="98.705" ry="26.321"/>
	</g>
	<g>
		<path style="fill:#1464A2;" d="M111.865,108.39v23.216c21.558-3.809,57.709-6.311,98.705-6.311s77.147,2.502,98.705,6.311V108.39
			c-21.557-10.547-57.708-17.473-98.705-17.473S133.424,97.843,111.865,108.39z"/>
	</g>
	<g>
		<path style="fill:#543D38;" d="M212.627,233.505c0-8.689-8.431-10.656-13.983-8.55c-10.179,3.861-21.386,14.632-30.845,7.971
			c0,0,3.29,13.903,8.841,13.903C187.743,246.828,212.627,248.277,212.627,233.505z"/>
	</g>
	<g>
		<path style="fill:#543D38;" d="M209.966,233.505c0-8.689,8.431-10.656,13.983-8.55c10.179,3.861,21.386,14.632,30.845,7.971
			c0,0-3.29,13.903-8.841,13.903C234.849,246.828,209.966,248.277,209.966,233.505z"/>
	</g>
	<g>
		<path style="fill:#1464A2;" d="M327.81,315.5c-3.657-15.003-17.009-53.296-58.016-53.296c0,13.06-2.283,26.02-6.746,38.294
			L223.319,421.14h35.595l46.325-56.196c2.316-2.315,2.576-5.981,0.611-8.601l-16.317-21.756l33.95-11.317
			C326.734,322.188,328.621,318.828,327.81,315.5z"/>
	</g>
	<g>
		<path style="fill:#1464A2;" d="M115.29,356.343c-1.965,2.62-1.705,6.286,0.611,8.601l46.325,56.196h35.595l-39.728-120.643
			c-4.463-12.274-6.746-25.233-6.746-38.294c-41.008,0-54.359,38.294-58.016,53.296c-0.811,3.328,1.076,6.688,4.326,7.771
			l33.95,11.317L115.29,356.343z"/>
	</g>
	<g>
		<circle style="fill:#FFD267;" cx="209.966" cy="51.381" r="17.273"/>
	</g>
	<g>
		<path style="fill:#543D38;" d="M103.78,297.619l-14.16,4.531c-4.419,1.414-8.686,3.447-12.775,5.896L191.8,421.14h37.535
			L103.78,297.619z"/>
	</g>
</g>
<g>
</g>
<g>
</g>
<g>
</g>
<g>
</g>
<g>
</g>
<g>
</g>
<g>
</g>
<g>
</g>
<g>
</g>
<g>
</g>
<g>
</g>
<g>
</g>
<g>
</g>
<g>
</g>
<g>
</g>
</svg>
