<?xml version="1.0" encoding="iso-8859-1"?>
<!-- Generator: Adobe Illustrator 19.1.0, SVG Export Plug-In . SVG Version: 6.00 Build 0)  -->
<svg version="1.1" id="Capa_1" xmlns="http://www.w3.org/2000/svg" xmlns:xlink="http://www.w3.org/1999/xlink" x="0px" y="0px"
	 viewBox="0 0 421.14 421.14" style="enable-background:new 0 0 421.14 421.14;" xml:space="preserve">
<g>
	<g>
		<path style="fill:#2E2E2E;" d="M312.565,273.083c-1.817,0-3.29-1.473-3.29-3.29v-98.705c0-1.817,1.473-3.29,3.29-3.29
			s3.29,1.473,3.29,3.29v98.705C315.855,271.61,314.382,273.083,312.565,273.083z"/>
	</g>
	<g>
		<path style="fill:#FFD7A3;" d="M138.277,255.566c14.716-9.475,13.07-37.675,13.07-44.255h118.446c0,6.58-1.825,34.78,12.89,44.255
			l-72.113,80.771L138.277,255.566z"/>
	</g>
	<g>
		<path style="fill:#FDC88E;" d="M256.632,283.695l26.051-28.129c-14.716-9.474-12.89-37.675-12.89-44.255H151.347
			C159.845,235.744,216.054,277.663,256.632,283.695z"/>
	</g>
	<g>
		<path style="fill:#A7A07C;" d="M361.918,421.14c10.903,0,19.741-8.838,19.741-19.741v-69.303
			c0-28.954-22.562-59.864-50.138-68.687l-41.168-13.174c-22.149,16.936-53.802,40.039-79.782,40.039s-57.633-23.103-79.782-40.039
			L89.62,263.41c-27.576,8.823-50.138,39.733-50.138,68.687v69.303c0,10.903,8.838,19.741,19.741,19.741H361.918z"/>
	</g>
	<g>
		<path style="fill:#8E8773;" d="M210.57,381.659L210.57,381.659c-7.268,0-13.161-5.892-13.161-13.161v-78.964h26.321v78.964
			C223.731,375.766,217.839,381.659,210.57,381.659z"/>
	</g>
	<g>
		<circle style="fill:#80795E;" cx="210.57" cy="361.918" r="6.58"/>
	</g>
	<g>
		<circle style="fill:#80795E;" cx="210.57" cy="335.596" r="6.58"/>
	</g>
	<g>
		<circle style="fill:#80795E;" cx="210.57" cy="309.275" r="6.58"/>
	</g>
	<g>
		<path style="fill:#FFE1B2;" d="M119.134,114.929c-0.416,3.464-0.688,7.044-0.688,10.838c0,52.696,30.343,118.446,92.124,118.446
			s92.124-65.75,92.124-118.446c0-3.794-0.272-7.374-0.688-10.838c-27.153-6.146-58.305-9.644-91.436-9.644
			S146.287,108.783,119.134,114.929z"/>
	</g>
	<g>
		<path style="fill:#2E2E2E;" d="M167.523,219.482c-46.915,0-62.238-31.096-62.238-41.813c0-1.817,1.473-3.29,3.29-3.29
			s3.29,1.473,3.29,3.29c0,7.769,13.329,35.233,55.658,35.233c1.817,0,3.29,1.473,3.29,3.29
			C170.814,218.008,169.34,219.482,167.523,219.482z"/>
	</g>
	<g>
		<path style="fill:#80795E;" d="M315.659,85.544C313.591,38.02,267.401,0,210.57,0S107.55,38.02,105.482,85.544h-0.197v59.223
			h23.533c10.76,11.183,24.686,20.09,40.609,25.807c0.11-0.951,0.229-1.908,0.368-2.886c1.277-8.955,2.571-17.895,4.524-26.733
			c3.971-17.973,23.827-26.771,40.473-22.98c5.721,1.303,10.389,4.3,14.134,8.168c4.687,1.737,9.088,4.473,12.311,7.696
			c6.657,6.657,8.597,14.256,9.637,23.265c0.505,4.379,1.092,8.744,1.517,13.124c15.616-5.731,29.335-14.451,39.93-25.462h23.533
			V85.544H315.659z"/>
	</g>
	<g>
		<path style="fill:#6F684D;" d="M125.026,164.508c0,7.238-7.403,13.161-16.451,13.161l0,0c-9.048,0-16.451-5.922-16.451-13.161
			v-39.482c0-7.238,7.403-13.161,16.451-13.161l0,0c9.048,0,16.451,5.922,16.451,13.161V164.508z"/>
	</g>
	<g>
		<path style="fill:#6F684D;" d="M329.016,164.508c0,7.238-7.403,13.161-16.451,13.161l0,0c-9.048,0-16.451-5.922-16.451-13.161
			v-39.482c0-7.238,7.403-13.161,16.451-13.161l0,0c9.048,0,16.451,5.922,16.451,13.161V164.508z"/>
	</g>
	<g>
		<g>
			<g>
				<path style="fill:#C9BB96;" d="M236.318,181.812c-15.211,0-20.729-17.751-24.758-30.712c-0.309-0.989-0.643-2.066-0.99-3.15
					c-0.347,1.084-0.681,2.161-0.989,3.15c-4.029,12.961-9.547,30.712-24.758,30.712c-8.854,0-21.965-2.353-34.212-6.141
					c-9.989-3.088-22.89-8.177-27.639-14.881c-5.725-8.082-5.665-27.232-1.798-37.699c2.018-5.464,5.142-8.923,9.283-10.282
					c20.365-6.685,54.786-7.76,80.114-7.486c25.318-0.273,59.749,0.801,80.114,7.486l0,0c4.141,1.359,7.265,4.819,9.283,10.282
					c3.867,10.467,3.927,29.617-1.8,37.699c-4.748,6.703-17.649,11.792-27.638,14.88
					C258.282,179.459,245.171,181.812,236.318,181.812z"/>
			</g>
		</g>
		<g>
			<path style="fill:#5A5A5A;" d="M203.11,111.865c2.5,0,4.939,0.016,7.616,0.044c2.357-0.028,4.792-0.043,7.286-0.043
				c33.721,0,59.292,2.781,73.794,7.968c0.01,0.007,1.015,0.801,2.079,3.952c3.434,10.166,2.641,27.959-0.506,32.818
				c-1.361,2.102-7.692,7.022-22.783,12.126c-11.677,3.95-24.41,6.503-32.439,6.503c-6.356,0-11.242-17.194-13.87-26.443
				l-0.13-0.456l-0.955-3.32c-1.641-5.611-6.787-9.467-12.633-9.467c-5.846,0-10.991,3.857-12.631,9.469l-0.952,3.311l-0.135,0.475
				c-2.625,9.237-7.51,26.431-13.867,26.431c-8.029,0-20.762-2.553-32.44-6.503c-15.09-5.104-21.422-10.025-22.784-12.127
				c-3.146-4.858-3.938-22.65-0.504-32.817c1.023-3.029,1.992-3.879,1.937-3.879c0,0,0,0,0,0
				C143.851,114.645,169.41,111.865,203.11,111.865 M203.11,98.705c-26.121,0-58.499,1.682-78.375,8.818
				c-4.437,1.593-7.784,5.648-9.946,12.051c-4.143,12.267-4.207,34.71,1.927,44.182c5.088,7.856,18.911,13.82,29.613,17.44
				c13.122,4.439,27.17,7.197,36.656,7.197c16.297,0,22.21-20.804,26.526-35.994c0.331-1.159,0.689-2.421,1.06-3.692
				c0.372,1.271,0.73,2.532,1.06,3.692c4.316,15.19,10.229,35.994,26.526,35.994c9.486,0,23.534-2.757,36.656-7.197
				c10.702-3.62,24.525-9.584,29.612-17.439c6.135-9.472,6.071-31.916,1.928-44.183c-2.163-6.403-5.509-10.458-9.946-12.051
				c-19.883-7.139-52.279-8.818-78.399-8.818c-2.544,0-5.03,0.016-7.438,0.044C208.154,98.721,205.663,98.705,203.11,98.705
				L203.11,98.705z"/>
		</g>
	</g>
	<g>
		<path style="fill:#545465;" d="M185.208,210.57h-12.064c-3.104,0-5.621,2.517-5.621,5.621s2.517,5.62,5.621,5.62h12.064
			c3.104,0,5.621-2.516,5.621-5.62S188.313,210.57,185.208,210.57z"/>
	</g>
	<g>
		<path style="fill:#80795E;" d="M210.57,290.275l-27.456,27.456c-2.859,2.859-7.596,2.487-9.975-0.783l-48.113-66.156
			l15.326-15.326c2.475-2.475,6.454-2.579,9.055-0.238L210.57,290.275z"/>
	</g>
	<g>
		<path style="fill:#80795E;" d="M210.57,290.275l27.456,27.456c2.859,2.859,7.596,2.487,9.975-0.783l48.113-66.156l-15.326-15.326
			c-2.475-2.475-6.454-2.579-9.055-0.238L210.57,290.275z"/>
	</g>
</g>
<g>
</g>
<g>
</g>
<g>
</g>
<g>
</g>
<g>
</g>
<g>
</g>
<g>
</g>
<g>
</g>
<g>
</g>
<g>
</g>
<g>
</g>
<g>
</g>
<g>
</g>
<g>
</g>
<g>
</g>
</svg>
