<?xml version="1.0" encoding="iso-8859-1"?>
<!-- Generator: Adobe Illustrator 19.1.0, SVG Export Plug-In . SVG Version: 6.00 Build 0)  -->
<svg version="1.1" id="Capa_1" xmlns="http://www.w3.org/2000/svg" xmlns:xlink="http://www.w3.org/1999/xlink" x="0px" y="0px"
	 viewBox="0 0 420.704 420.704" style="enable-background:new 0 0 420.704 420.704;" xml:space="preserve">
<g>
	<g>
		<path style="fill:#A0756F;" d="M269.62,12.724l-46.062,250.052l32.902,6.58C326.101,218.359,355.986,12.724,269.62,12.724z"/>
	</g>
	<g>
		<path style="fill:#A0756F;" d="M269.62,12.724c-11.516-6.992-72.293-24.749-118.446,0
			C94.419,43.158,44.792,152.007,124.853,262.776c0.114,0.157,59.223-6.58,59.223-6.58L269.62,12.724z"/>
	</g>
	<g>
		<path style="fill:#FFD7A3;" d="M256.772,232.084h-0.358v-15.37h-92.124v15.354c0,15.042-0.063,31.392-13.161,41.282v147.354
			h59.223c0,0,31.011,0,59.223,0V273.12C256.812,263.205,256.772,246.997,256.772,232.084z"/>
	</g>
	<g>
		<path style="fill:#E4EBF0;" d="M309.057,282.517h-2.193c-24.994,0-37.508-6.641-43.869-16.165l-52.643,31.382l-52.642-31.382
			c-6.361,9.524-18.875,16.165-43.869,16.165h-2.193c-39.976,0-72.384,32.407-72.384,72.384v46.062
			c0,10.902,8.838,19.741,19.741,19.741H170.87h23.163h32.638h36.323h98.705c10.903,0,19.741-8.839,19.741-19.741V354.9
			C381.44,314.924,349.033,282.517,309.057,282.517z"/>
	</g>
	<g>
		<path style="fill:#FDC88E;" d="M256.504,296.114c2.401,0.655-2.017-6.751,0-6.58l13.07-16.414
			c-12.762-9.915-12.803-26.124-12.803-41.037h-0.358v-15.37H184.03l-19.741,6.58C177.45,238.1,211.264,283.776,256.504,296.114z"/>
	</g>
	<g>
		<path style="fill:#D0D7DC;" d="M210.352,297.734l-51.997-32.269l-16.089,12.754l30.397,55.484
			c2.456,3.42,7.448,3.685,10.253,0.544L210.352,297.734z"/>
	</g>
	<g>
		<path style="fill:#D0D7DC;" d="M210.352,297.734l51.997-32.269l16.089,12.754l-30.397,55.484
			c-2.456,3.42-7.448,3.685-10.253,0.544L210.352,297.734z"/>
	</g>
	<g>
		<circle style="fill:#D0D7DC;" cx="210.352" cy="353.581" r="6.58"/>
	</g>
	<g>
		<circle style="fill:#D0D7DC;" cx="210.442" cy="386.787" r="6.58"/>
	</g>
	<g>
		<path style="fill:#FFE1B2;" d="M302.521,131.169c0,52.696-52.408,118.446-92.124,118.446s-92.124-65.75-92.124-118.446
			s41.246-72.384,92.124-72.384S302.521,78.473,302.521,131.169z"/>
	</g>
	<g>
		<path style="fill:#A0756F;" d="M223.557,25.884c-3.697,0-15.701,4.154-25.512,7.794l-0.809-1.214c0,0-1.354,1.064-3.698,2.908
			c-5.457,2.072-9.462,3.672-9.462,3.672l1.539,2.566c-24.976,19.678-81.96,64.693-87.084,69.818
			c-6.58,6.58,39.482,174.464,39.482,78.964c0-79.786,44.327-95.587,85.544-105.285c18.644-4.387,24.128-15.354,26.321-26.321
			C252.072,47.819,230.138,25.884,223.557,25.884z"/>
	</g>
	<g>
		<path style="fill:#A0756F;" d="M243.298,65.366c12.064,43.32,36.192,62.924,58.812,68.682c12.395,3.155,6.992-35.78,6.992-35.78
			s-17.548-44.966-19.741-46.062c-2.193-1.097-19.741-39.482-19.741-39.482l-39.482,32.902L243.298,65.366z"/>
	</g>
	<g>
		<path style="fill:#FFE1B2;" d="M292.721,131.771c10.767-2.468,17.821,2.805,17.821,13.161c0,13.709-14.479,47.296-29.701,26.321
			S292.721,131.771,292.721,131.771z"/>
	</g>
	<g>
		<path style="fill:#545465;" d="M222.19,315.057c0,3.187-2.607,5.794-5.794,5.794h-11.588c-3.187,0-5.794-2.607-5.794-5.794V303.47
			c0-3.187,2.607-5.794,5.794-5.794h11.588c3.187,0,5.794,2.607,5.794,5.794V315.057z"/>
	</g>
	<g>
		<path style="fill:#545465;" d="M204.809,303.47l-32.481-13.92c-3.823-1.638-8.076,1.166-8.076,5.325v28.777
			c0,4.159,4.253,6.964,8.076,5.325l32.481-13.92V303.47z"/>
	</g>
	<g>
		<path style="fill:#545465;" d="M216.396,303.47l32.481-13.92c3.823-1.638,8.076,1.166,8.076,5.325v28.777
			c0,4.159-4.253,6.964-8.076,5.325l-32.481-13.92V303.47z"/>
	</g>
	<g>
		<path style="fill:#E95F43;" d="M118.272,420.704h72.339l-48.345-142.484c0,0-0.1-0.01-0.113-0.011
			c-6.079,2.362-13.951,3.805-23.881,4.158V420.704z"/>
	</g>
	<g>
		<path style="fill:#E95F43;" d="M302.521,420.704h-72.339l48.345-142.484c0,0,0.1-0.01,0.113-0.011
			c6.079,2.362,13.951,3.805,23.881,4.158V420.704z"/>
	</g>
</g>
<g>
</g>
<g>
</g>
<g>
</g>
<g>
</g>
<g>
</g>
<g>
</g>
<g>
</g>
<g>
</g>
<g>
</g>
<g>
</g>
<g>
</g>
<g>
</g>
<g>
</g>
<g>
</g>
<g>
</g>
</svg>
