<?xml version="1.0" encoding="iso-8859-1"?>
<!-- Generator: Adobe Illustrator 19.1.0, SVG Export Plug-In . SVG Version: 6.00 Build 0)  -->
<svg version="1.1" id="Capa_1" xmlns="http://www.w3.org/2000/svg" xmlns:xlink="http://www.w3.org/1999/xlink" x="0px" y="0px"
	 viewBox="0 0 421.141 421.141" style="enable-background:new 0 0 421.141 421.141;" xml:space="preserve">
<g>
	<g>
		<path style="fill:#FFD7A3;" d="M138.277,261.405c14.716-9.475,13.07-37.675,13.07-44.255h118.446c0,6.58-1.825,34.78,12.89,44.255
			l-72.113,80.771L138.277,261.405z"/>
	</g>
	<g>
		<path style="fill:#FDC88E;" d="M256.632,289.534l26.051-28.129c-14.716-9.474-12.89-37.675-12.89-44.255H151.347
			C159.845,241.583,216.054,283.502,256.632,289.534z"/>
	</g>
	<g>
		<path style="fill:#FFE1B2;" d="M302.695,131.606c0,52.696-30.343,118.446-92.124,118.446s-92.124-65.75-92.124-118.446
			s41.246-72.384,92.124-72.384S302.695,78.91,302.695,131.606z"/>
	</g>
	<g>
		<path style="fill:#FFBE1E;" d="M361.918,421.141c10.903,0,19.741-8.838,19.741-19.741v-63.463
			c0-28.954-22.562-59.864-50.138-68.687l-41.168-13.173c-22.149,16.936-53.802,40.039-79.782,40.039s-57.633-23.103-79.782-40.039
			L89.62,269.249c-27.576,8.823-50.138,39.733-50.138,68.687V401.4c0,10.903,8.838,19.741,19.741,19.741H361.918z"/>
	</g>
	<g>
		<path style="fill:#4F6E8D;" d="M98.705,266.342v154.798h223.731V266.342l-26.321-8.423v97.607c0,3.012-1.999,5.675-4.923,6.395
			c-22.275,5.486-50.216,8.77-80.621,8.77s-58.346-3.284-80.621-8.77c-2.925-0.72-4.923-3.383-4.923-6.395V257.92L98.705,266.342z"
			/>
	</g>
	<g>
		<path style="fill:#FFE1B2;" d="M121.611,138.187c-9.864-2.468-16.326,2.805-16.326,13.161c0,13.709,13.265,47.296,27.21,26.321
			S121.611,138.187,121.611,138.187z"/>
	</g>
	<g>
		<path style="fill:#FFE1B2;" d="M298.035,138.187c10.767-2.468,17.821,2.805,17.821,13.161c0,13.709-14.479,47.296-29.701,26.321
			S298.035,138.187,298.035,138.187z"/>
	</g>
	<g>
		<path style="fill:#7E5449;" d="M138.187,110.632c-2.742,7.129-6.58,39.482-6.58,39.482l-13.161-6.58l-3.701-43.595
			L138.187,110.632z"/>
	</g>
	<g>
		<path style="fill:#7E5449;" d="M282.954,110.632c2.742,7.129,6.58,39.482,6.58,39.482l13.161-6.58l3.701-43.595L282.954,110.632z"
			/>
	</g>
	<g>
		<path style="fill:#FFBE1E;" d="M289.534,36.996V26.332c0-3.64-2.951-6.591-6.591-6.591h-6.559c-1.687,0-3.189,0.682-4.354,1.724
			c-13.296-8.392-29.641-12.953-48.299-14.35V6.591c0-3.64-2.951-6.591-6.591-6.591h-13.139c-3.64,0-6.591,2.951-6.591,6.591v0.524
			c-18.776,1.41-35.062,6.028-48.272,14.368c-1.169-1.055-2.683-1.742-4.382-1.742h-6.559c-3.64,0-6.591,2.951-6.591,6.591v10.676
			c-12.659,15.711-19.741,38.002-19.741,68.278v13.161h197.41v-13.161C309.275,74.828,302.116,52.613,289.534,36.996z"/>
	</g>
	<g>
		<path style="fill:#FC9B28;" d="M210.57,92.124c-42.13,0-105.179,11.784-105.179,26.321H315.75
			C315.75,103.909,252.701,92.124,210.57,92.124z"/>
	</g>
</g>
<g>
</g>
<g>
</g>
<g>
</g>
<g>
</g>
<g>
</g>
<g>
</g>
<g>
</g>
<g>
</g>
<g>
</g>
<g>
</g>
<g>
</g>
<g>
</g>
<g>
</g>
<g>
</g>
<g>
</g>
</svg>
