<?xml version="1.0" encoding="iso-8859-1"?>
<!-- Generator: Adobe Illustrator 19.1.0, SVG Export Plug-In . SVG Version: 6.00 Build 0)  -->
<svg version="1.1" id="Capa_1" xmlns="http://www.w3.org/2000/svg" xmlns:xlink="http://www.w3.org/1999/xlink" x="0px" y="0px"
	 viewBox="0 0 407.98 407.98" style="enable-background:new 0 0 407.98 407.98;" xml:space="preserve">
<g>
	<g>
		<path style="fill:#FFD7A3;" d="M131.697,261.405c14.716-9.475,13.07-37.675,13.07-44.255h118.446c0,6.58-1.825,34.78,12.89,44.255
			l-72.113,80.771L131.697,261.405z"/>
	</g>
	<g>
		<path style="fill:#FDC88E;" d="M250.052,289.534l26.051-28.129c-14.716-9.474-12.89-37.675-12.89-44.255H144.767
			C153.265,241.583,209.474,283.502,250.052,289.534z"/>
	</g>
	<g>
		<path style="fill:#FFE1B2;" d="M296.114,131.606c0,52.696-30.343,118.446-92.124,118.446s-92.124-65.75-92.124-118.446
			s41.246-72.384,92.124-72.384S296.114,78.91,296.114,131.606z"/>
	</g>
	<g>
		<path style="fill:#FFE1B2;" d="M115.031,138.187c-9.864-2.468-16.326,2.805-16.326,13.161c0,13.709,13.265,47.296,27.21,26.321
			S115.031,138.187,115.031,138.187z"/>
	</g>
	<g>
		<path style="fill:#FFE1B2;" d="M291.454,138.187c10.767-2.468,17.821,2.805,17.821,13.161c0,13.709-14.479,47.296-29.701,26.321
			S291.454,138.187,291.454,138.187z"/>
	</g>
	<g>
		<path style="fill:#7E5449;" d="M131.606,110.632c-2.742,7.129-6.58,39.482-6.58,39.482l-13.161-6.58l-3.701-43.595
			L131.606,110.632z"/>
	</g>
	<g>
		<path style="fill:#7E5449;" d="M276.373,110.632c2.742,7.129,6.58,39.482,6.58,39.482l13.161-6.58l3.701-43.595L276.373,110.632z"
			/>
	</g>
	<g>
		<path style="fill:#FFBE1E;" d="M282.954,36.996V26.332c0-3.64-2.951-6.591-6.591-6.591h-6.559c-1.687,0-3.189,0.682-4.354,1.724
			c-13.296-8.392-29.641-12.953-48.299-14.35V6.591c0-3.64-2.951-6.591-6.591-6.591H197.42c-3.64,0-6.591,2.951-6.591,6.591v0.524
			c-18.776,1.41-35.062,6.028-48.272,14.368c-1.169-1.055-2.683-1.742-4.382-1.742h-6.559c-3.64,0-6.591,2.951-6.591,6.591v10.676
			c-12.659,15.711-19.741,38.002-19.741,68.278v13.161h197.41v-13.161C302.695,74.828,295.535,52.613,282.954,36.996z"/>
	</g>
	<g>
		<path style="fill:#FC9B28;" d="M203.99,92.124c-42.13,0-105.179,11.784-105.179,26.321h210.359
			C309.169,103.909,246.12,92.124,203.99,92.124z"/>
	</g>
	<g>
		<path style="fill:#E4EBF0;" d="M355.337,407.98c10.903,0,19.741-8.838,19.741-19.741v-46.735
			c0-28.954-22.562-59.864-50.138-68.687l-41.168-13.173c-22.149,16.936-53.802,40.039-79.782,40.039s-57.633-23.103-79.782-40.039
			L83.04,272.817c-27.576,8.823-50.138,39.733-50.138,68.687v46.735c0,10.903,8.838,19.741,19.741,19.741H355.337z"/>
	</g>
	<g>
		<path style="fill:#545465;" d="M217.151,319.423c0,3.619-2.961,6.58-6.58,6.58H197.41c-3.619,0-6.58-2.961-6.58-6.58v-13.161
			c0-3.619,2.961-6.58,6.58-6.58h13.161c3.619,0,6.58,2.961,6.58,6.58V319.423z"/>
	</g>
	<g>
		<path style="fill:#D0D7DC;" d="M203.99,299.682l-27.456,27.456c-2.859,2.859-7.596,2.487-9.975-0.783L118.446,260.2l15.326-15.326
			c2.475-2.475,6.454-2.579,9.055-0.238L203.99,299.682z"/>
	</g>
	<g>
		<path style="fill:#D0D7DC;" d="M203.99,299.682l27.456,27.456c2.859,2.859,7.596,2.487,9.975-0.783l48.113-66.156l-15.326-15.326
			c-2.475-2.475-6.454-2.579-9.055-0.238L203.99,299.682z"/>
	</g>
	<g>
		<polygon style="fill:#545465;" points="213.03,322.302 203.99,326.003 194.95,322.302 190.829,407.98 217.151,407.98 		"/>
	</g>
	<g>
		<path style="fill:#527992;" d="M118.919,261.392L118.919,261.392L83.04,272.873c-27.576,8.823-50.138,39.733-50.138,68.687v46.735
			c0,10.109,7.627,18.347,17.423,19.507h114.183L118.919,261.392z"/>
	</g>
	<g>
		<path style="fill:#527992;" d="M289.061,261.392L289.061,261.392l35.879,11.481c27.576,8.823,50.138,39.733,50.138,68.687v46.735
			c0,10.109-7.627,18.347-17.423,19.507H243.472L289.061,261.392z"/>
	</g>
	<g>
		<path style="fill:#475F7F;" d="M312.565,381.659h-45.661c-5.451,0-9.87,4.42-9.87,9.87v15.71h65.402v-15.71
			C322.436,386.078,318.017,381.659,312.565,381.659z"/>
	</g>
	<g>
		<path style="fill:#FFD267;" d="M105.174,351.087c-2.058,0-3.727,1.669-3.727,3.727v26.844h7.454v-26.844
			C108.9,352.756,107.232,351.087,105.174,351.087z"/>
	</g>
	<g>
		<path style="fill:#FFFFFF;" d="M118.446,361.78c-2.058,0-3.727,1.669-3.727,3.727v26.844h7.454v-26.844
			C122.173,363.449,120.504,361.78,118.446,361.78z"/>
	</g>
	<g>
		<path style="fill:#475F7F;" d="M141.076,381.659H95.415c-5.451,0-9.87,4.42-9.87,9.87v15.71h65.403v-15.71
			C150.947,386.078,146.528,381.659,141.076,381.659z"/>
	</g>
</g>
<g>
</g>
<g>
</g>
<g>
</g>
<g>
</g>
<g>
</g>
<g>
</g>
<g>
</g>
<g>
</g>
<g>
</g>
<g>
</g>
<g>
</g>
<g>
</g>
<g>
</g>
<g>
</g>
<g>
</g>
</svg>
