<?xml version="1.0" encoding="iso-8859-1"?>
<!-- Generator: Adobe Illustrator 19.1.0, SVG Export Plug-In . SVG Version: 6.00 Build 0)  -->
<svg version="1.1" id="Capa_1" xmlns="http://www.w3.org/2000/svg" xmlns:xlink="http://www.w3.org/1999/xlink" x="0px" y="0px"
	 viewBox="0 0 421.141 421.141" style="enable-background:new 0 0 421.141 421.141;" xml:space="preserve">
<g>
	<g>
		<path style="fill:#545465;" d="M125.026,173.337l12.016,54.07c0.669,3.011,3.339,5.153,6.424,5.153h14.462v-52.643
			L125.026,173.337z"/>
	</g>
	<g>
		<path style="fill:#545465;" d="M296.114,173.337l-12.016,54.07c-0.669,3.011-3.339,5.153-6.424,5.153h-14.462v-52.643
			L296.114,173.337z"/>
	</g>
	<g>
		<path style="fill:#FFD7A3;" d="M138.277,257.073c14.716-9.475,13.07-37.675,13.07-44.255h118.446c0,6.58-1.825,34.78,12.89,44.255
			l-72.113,80.771L138.277,257.073z"/>
	</g>
	<g>
		<path style="fill:#FDC88E;" d="M256.632,285.202l26.051-28.129c-14.716-9.474-12.89-37.675-12.89-44.255H151.347
			C159.845,237.251,216.054,279.17,256.632,285.202z"/>
	</g>
	<g>
		<path style="fill:#FFE1B2;" d="M302.695,127.274c0,52.696-30.343,118.446-92.124,118.446s-92.124-65.75-92.124-118.446
			s41.246-72.384,92.124-72.384S302.695,74.578,302.695,127.274z"/>
	</g>
	<g>
		<path style="fill:#FF6953;" d="M361.918,421.141c10.903,0,19.741-8.838,19.741-19.741v-67.795
			c0-28.954-22.562-59.864-50.138-68.687l-41.168-13.174c-22.149,16.936-53.802,40.039-79.782,40.039s-57.633-23.103-79.782-40.039
			L89.62,264.917c-27.576,8.823-50.138,39.733-50.138,68.687V401.4c0,10.903,8.838,19.741,19.741,19.741H361.918z"/>
	</g>
	<g>
		<path style="fill:#C55F54;" d="M92.124,421.141h236.892V264.116l-38.663-12.372c-22.149,16.936-53.802,40.039-79.782,40.039
			s-57.633-23.103-79.782-40.039l-38.663,12.372V421.141z"/>
	</g>
	<g>
		<path style="fill:#E35F49;" d="M190.829,304.943l10.435,10.435c5.14,5.14,13.472,5.14,18.612,0l17.015-17.015l-26.321-6.58
			L190.829,304.943z"/>
	</g>
	<g>
		<path style="fill:#545465;" d="M164.508,15.409c57.578-39.482,174.79-4.935,138.187,125.026l-19.741-19.741
			c0,0-73.48-17.548-138.187-52.643"/>
	</g>
	<g>
		<path style="fill:#FF6953;" d="M210.57,291.782l-27.456,27.456c-2.859,2.859-7.596,2.487-9.975-0.783l-48.113-66.156
			l15.326-15.326c2.475-2.475,6.454-2.579,9.055-0.238L210.57,291.782z"/>
	</g>
	<g>
		<path style="fill:#FF6953;" d="M210.57,291.782l27.456,27.456c2.859,2.859,7.596,2.487,9.975-0.783l48.113-66.156l-15.326-15.326
			c-2.475-2.475-6.454-2.579-9.055-0.238L210.57,291.782z"/>
	</g>
	<g>
		<path style="fill:#FFE1B2;" d="M121.611,140.435c-9.864-2.468-16.326,2.805-16.326,13.161c0,13.709,13.265,47.296,27.21,26.321
			S121.611,140.435,121.611,140.435z"/>
	</g>
	<g>
		<path style="fill:#FFE1B2;" d="M298.035,140.435c10.767-2.468,17.821,2.805,17.821,13.161c0,13.709-14.479,47.296-29.701,26.321
			S298.035,140.435,298.035,140.435z"/>
	</g>
	<g>
		<path style="fill:#545465;" d="M118.446,140.435c2.162,6.522,6.58,13.161,6.58,13.161s38.385-49.352,39.482-85.544
			c1.097-36.192-6.58-32.902-6.58-32.902l13.161-6.58c0,0,23.012-10.216-6.58-13.161C123.175,11.296,85.544,41.182,118.446,140.435z
			"/>
	</g>
	<g>
		<g>
			<g>
				<path style="fill:#545465;" d="M195.737,135.5v4.935c0,14.514-11.808,26.321-26.321,26.321h-6.58
					c-7.257,0-13.161-5.904-13.161-13.161V135.5H195.737 M195.737,128.92h-46.062c-3.634,0-6.58,2.946-6.58,6.58v18.096
					c0,10.903,8.838,19.741,19.741,19.741h6.58c18.171,0,32.902-14.731,32.902-32.902V135.5
					C202.318,131.866,199.371,128.92,195.737,128.92L195.737,128.92z"/>
			</g>
		</g>
		<g>
			<g>
				<path style="fill:#545465;" d="M271.285,135.5v18.096c0,7.257-5.904,13.161-13.161,13.161h-6.58
					c-14.514,0-26.321-11.808-26.321-26.321V135.5H271.285 M271.285,128.92h-46.062c-3.634,0-6.58,2.946-6.58,6.58v4.935
					c0,18.171,14.731,32.902,32.902,32.902h6.58c10.903,0,19.741-8.838,19.741-19.741V135.5
					C277.865,131.866,274.919,128.92,271.285,128.92L271.285,128.92z"/>
			</g>
		</g>
		<g>
			<g>
				<polygon style="fill:#545465;" points="118.265,128.92 149.675,128.92 149.675,144.573 118.265,137.006 				"/>
			</g>
		</g>
		<g>
			<g>
				<polygon style="fill:#545465;" points="302.695,128.92 271.285,128.92 271.285,144.573 302.695,137.006 				"/>
			</g>
		</g>
		<g>
			<g>
				<path style="fill:#545465;" d="M225.51,144.573h-6.58c0-2.847-3.949-5.347-8.45-5.347s-8.45,2.5-8.45,5.347h-6.58
					c0-6.69,6.603-11.927,15.031-11.927S225.51,137.884,225.51,144.573z"/>
			</g>
		</g>
	</g>
</g>
<g>
</g>
<g>
</g>
<g>
</g>
<g>
</g>
<g>
</g>
<g>
</g>
<g>
</g>
<g>
</g>
<g>
</g>
<g>
</g>
<g>
</g>
<g>
</g>
<g>
</g>
<g>
</g>
<g>
</g>
</svg>
