<?xml version="1.0" encoding="iso-8859-1"?>
<!-- Generator: Adobe Illustrator 19.1.0, SVG Export Plug-In . SVG Version: 6.00 Build 0)  -->
<svg version="1.1" id="Capa_1" xmlns="http://www.w3.org/2000/svg" xmlns:xlink="http://www.w3.org/1999/xlink" x="0px" y="0px"
	 viewBox="0 0 421.141 421.141" style="enable-background:new 0 0 421.141 421.141;" xml:space="preserve">
<g>
	<g>
		<path style="fill:#FFD7A3;" d="M138.277,294.307c14.716-9.475,13.07-37.675,13.07-44.255h118.446c0,6.58-1.825,34.78,12.89,44.255
			l-72.113,80.771L138.277,294.307z"/>
	</g>
	<g>
		<path style="fill:#FDC88E;" d="M256.632,322.436l26.051-28.129c-14.716-9.474-12.89-37.675-12.89-44.255H151.347
			C159.845,274.485,216.054,316.404,256.632,322.436z"/>
	</g>
	<g>
		<path style="fill:#FFE1B2;" d="M302.695,164.508c0,52.696-30.343,118.446-92.124,118.446s-92.124-65.75-92.124-118.446
			s41.246-72.384,92.124-72.384S302.695,111.812,302.695,164.508z"/>
	</g>
	<g>
		<path style="fill:#FFE1B2;" d="M121.521,176.024c-9.864-2.468-16.326,2.805-16.326,13.161c0,13.709,13.265,47.296,27.21,26.321
			C146.351,194.531,121.521,176.024,121.521,176.024z"/>
	</g>
	<g>
		<path style="fill:#FFE1B2;" d="M297.944,176.024c10.767-2.468,17.821,2.805,17.821,13.161c0,13.709-14.479,47.296-29.701,26.321
			S297.944,176.024,297.944,176.024z"/>
	</g>
	<g>
		<path style="fill:#7E5449;" d="M138.187,147.146c-2.742,7.887-6.58,43.683-6.58,43.683l-13.161-7.281l-3.701-48.234
			L138.187,147.146z"/>
	</g>
	<g>
		<path style="fill:#7E5449;" d="M282.954,147.146c2.742,7.887,6.58,43.683,6.58,43.683l13.161-7.281l3.701-48.234L282.954,147.146z
			"/>
	</g>
	<g>
		<path style="fill:#E4EBF0;" d="M361.918,421.141c10.903,0,19.741-8.838,19.741-19.741v-30.562
			c0-28.954-22.562-59.864-50.138-68.687l-41.168-13.173c-22.149,16.936-53.802,40.039-79.782,40.039s-57.633-23.103-79.782-40.039
			L89.62,302.151c-27.576,8.823-50.138,39.733-50.138,68.687V401.4c0,10.903,8.838,19.741,19.741,19.741H361.918z"/>
	</g>
	<g>
		<path style="fill:#545465;" d="M223.731,348.757c0,3.619-2.961,6.58-6.58,6.58H203.99c-3.619,0-6.58-2.961-6.58-6.58v-13.161
			c0-3.619,2.961-6.58,6.58-6.58h13.161c3.619,0,6.58,2.961,6.58,6.58V348.757z"/>
	</g>
	<g>
		<circle style="fill:#D0D7DC;" cx="210.57" cy="388.239" r="6.58"/>
	</g>
	<g>
		<path style="fill:#E4EBF0;" d="M342.177,85.544c0,36.342-58.922,46.062-131.606,46.062s-131.606-9.72-131.606-46.062
			S137.886,0,210.57,0S342.177,49.202,342.177,85.544z"/>
	</g>
	<g>
		<ellipse style="fill:#393950;" cx="210.57" cy="131.606" rx="98.705" ry="26.321"/>
	</g>
	<g>
		<path style="fill:#545465;" d="M210.57,78.964c-54.513,0-98.705,8.838-98.705,19.741v32.902c0-3.634,44.191-6.58,98.705-6.58
			s98.705,2.946,98.705,6.58V98.705C309.275,87.802,265.084,78.964,210.57,78.964z"/>
	</g>
	<g>
		<ellipse style="fill:#545465;" cx="210.57" cy="92.124" rx="50.175" ry="26.321"/>
	</g>
	<g>
		<path style="fill:#D0D7DC;" d="M210.57,329.016l-27.456,27.456c-2.859,2.859-7.596,2.487-9.975-0.783l-48.113-66.156
			l15.326-15.326c2.475-2.475,6.454-2.579,9.055-0.238L210.57,329.016z"/>
	</g>
	<g>
		<path style="fill:#D0D7DC;" d="M210.57,329.016l27.456,27.456c2.859,2.859,7.596,2.487,9.975-0.783l48.113-66.156l-15.326-15.326
			c-2.475-2.475-6.454-2.579-9.055-0.238L210.57,329.016z"/>
	</g>
	<g>
		<polygon style="fill:#545465;" points="219.611,351.636 210.57,355.337 201.53,351.636 197.41,421.141 210.57,421.141 
			223.731,421.141 		"/>
	</g>
	<g>
		<path style="fill:#545465;" d="M364.235,420.907c9.797-1.16,17.423-9.399,17.423-19.507v-30.562
			c0-28.954-22.562-59.864-50.138-68.687l-35.879-11.481h0l-52.169,130.237H364.235z"/>
	</g>
	<g>
		<path style="fill:#545465;" d="M125.499,290.67L125.499,290.67L89.62,302.151c-27.576,8.823-50.138,39.733-50.138,68.687V401.4
			c0,10.109,7.627,18.347,17.423,19.507h120.764L125.499,290.67z"/>
	</g>
	<g>
		<path style="fill:#FFD267;" d="M218.575,86.367c-1.717-4.455-4.657-7.403-8.005-7.403s-6.288,2.948-8.005,7.403h-24.897v5.666
			h7.665V97.7h8.151v5.666h8.733c1.639,5.046,4.744,8.5,8.352,8.5s6.713-3.454,8.352-8.5h8.733V97.7h8.151v-5.667h7.665v-5.666
			H218.575z"/>
	</g>
	<g>
		<path style="fill:#393950;" d="M125.026,289.534l-27.989,33.837c-2.605,2.993-1.988,7.594,1.314,9.795l13.515,9.01L96.232,357.81
			c-2.347,2.347-2.579,6.073-0.541,8.693l42.496,54.638l39.482-0.234L125.026,289.534z"/>
	</g>
	<g>
		<g>
			<polygon style="fill:#393950;" points="296.114,289.534 361.918,309.275 355.337,329.016 309.275,315.855 			"/>
		</g>
		<g>
			<g>
				<polygon style="fill:#FFD267;" points="324.77,320.283 331.483,300.145 325.18,298.254 318.439,318.474 				"/>
			</g>
			<g>
				<polygon style="fill:#FFD267;" points="353.825,306.847 347.522,304.956 340.879,324.885 347.209,326.694 				"/>
			</g>
			<g>
				<polygon style="fill:#FFD267;" points="342.653,303.496 336.349,301.605 329.657,321.679 335.988,323.488 				"/>
			</g>
		</g>
	</g>
	<g>
		<g>
			<polygon style="fill:#393950;" points="124.981,289.534 59.178,309.275 65.758,329.016 111.82,315.855 			"/>
		</g>
		<g>
			<g>
				<polygon style="fill:#FFD267;" points="96.325,320.283 89.612,300.145 95.916,298.254 102.656,318.474 				"/>
			</g>
			<g>
				<polygon style="fill:#FFD267;" points="67.27,306.847 73.573,304.956 80.217,324.885 73.886,326.694 				"/>
			</g>
			<g>
				<polygon style="fill:#FFD267;" points="78.443,303.496 84.746,301.605 91.438,321.679 85.107,323.488 				"/>
			</g>
		</g>
	</g>
	<g>
		<path style="fill:#393950;" d="M296.114,289.534l27.989,33.837c2.605,2.993,1.988,7.594-1.314,9.795l-13.515,9.01l15.633,15.633
			c2.347,2.347,2.579,6.073,0.541,8.693l-42.496,54.638l-39.482-0.234L296.114,289.534z"/>
	</g>
	<g>
		<path style="fill:#7E5449;" d="M210.525,231.588c0-6.169-8.431-7.566-13.983-6.07c-10.179,2.741-21.386,10.388-30.845,5.659
			c0,0,3.29,9.87,8.841,9.87C185.642,241.048,210.525,242.076,210.525,231.588z"/>
	</g>
	<g>
		<path style="fill:#7E5449;" d="M210.435,231.588c0-6.169,8.431-7.566,13.983-6.07c10.179,2.741,21.386,10.388,30.845,5.659
			c0,0-3.29,9.87-8.841,9.87C235.318,241.048,210.435,242.076,210.435,231.588z"/>
	</g>
</g>
<g>
</g>
<g>
</g>
<g>
</g>
<g>
</g>
<g>
</g>
<g>
</g>
<g>
</g>
<g>
</g>
<g>
</g>
<g>
</g>
<g>
</g>
<g>
</g>
<g>
</g>
<g>
</g>
<g>
</g>
</svg>
