<?xml version="1.0" encoding="iso-8859-1"?>
<!-- Generator: Adobe Illustrator 19.1.0, SVG Export Plug-In . SVG Version: 6.00 Build 0)  -->
<svg version="1.1" id="Capa_1" xmlns="http://www.w3.org/2000/svg" xmlns:xlink="http://www.w3.org/1999/xlink" x="0px" y="0px"
	 viewBox="0 0 459.526 459.526" style="enable-background:new 0 0 459.526 459.526;" xml:space="preserve">
<g>
	<g>
		<path style="fill:#7E5449;" d="M173.83,52.094l32.901,224.279l-62.829-72.415C118.442,172.459,79.142,52.094,173.83,52.094z"/>
	</g>
	<g>
		<path style="fill:#7E5449;" d="M155.734,58.563c14.806-28.403,91.721-38.822,134.924-11.238
			c60.636,38.714,54.905,108.173,26.336,161.326c-0.092,0.171-66.668,46.885-66.668,46.885L155.734,58.563z"/>
	</g>
	<g>
		<path style="fill:#FFD7A3;" d="M276.183,270.906h-0.358v-15.37H183.7v15.354c0,15.042-0.063,31.392-13.161,41.282v147.354h59.223
			c0,0,31.011,0,59.223,0V311.942C276.223,302.027,276.183,285.819,276.183,270.906z"/>
	</g>
	<g>
		<path style="fill:#BCA096;" d="M328.468,321.339h-2.193c-24.994,0-37.508-6.641-43.869-16.165l-52.643,31.382l-52.643-31.382
			c-6.361,9.524-18.875,16.165-43.869,16.165h-2.193c-39.976,0-72.384,32.407-72.384,72.384v46.062
			c0,10.902,8.838,19.741,19.741,19.741h111.865h23.163h32.638h36.323h98.705c10.903,0,19.741-8.839,19.741-19.741v-46.062
			C400.851,353.746,368.444,321.339,328.468,321.339z"/>
	</g>
	<g>
		<path style="fill:#FDC88E;" d="M275.915,334.937c2.401,0.655-2.017-6.751,0-6.58l13.07-16.414
			c-12.762-9.915-12.803-26.124-12.803-41.037h-0.358v-15.37h-72.384l-19.741,6.58C196.861,276.922,230.675,322.598,275.915,334.937
			z"/>
	</g>
	<g>
		<path style="fill:#FFE1B2;" d="M321.887,169.992c0,52.696-52.408,118.446-92.124,118.446s-92.124-65.75-92.124-118.446
			s41.246-72.384,92.124-72.384S321.887,117.296,321.887,169.992z"/>
	</g>
	<g>
		<path style="fill:#7E5449;" d="M197.231,109.229c0,0-50.076,15.368-59.116,69.671c-2.1,12.616-19.579-43.019-19.579-43.019
			s9.87-43.869,12.064-44.966c2.193-1.097,46.611-19.193,46.611-19.193l13.287,11.49L197.231,109.229z"/>
	</g>
	<g>
		<path style="fill:#E4EBF0;" d="M229.763,336.556l-52.642-34.958l-15.444,15.443l35.185,50.36c4.113,5.552,10.356,3.141,13.161,0
			L229.763,336.556z"/>
	</g>
	<g>
		<path style="fill:#E4EBF0;" d="M229.763,336.556l52.642-34.958l15.444,15.443l-35.185,50.36c-4.113,5.552-10.356,3.141-13.161,0
			L229.763,336.556z"/>
	</g>
	<g>
		<path style="fill:#FFE1B2;" d="M316.399,177.857c9.864-2.468,16.326,2.805,16.326,13.161c0,13.709-13.265,47.296-27.21,26.321
			S316.399,177.857,316.399,177.857z"/>
	</g>
	<g>
		<circle style="fill:#E4EBF0;" cx="229.763" cy="408.914" r="6.58"/>
	</g>
	<g>
		<circle style="fill:#E4EBF0;" cx="229.763" cy="377.302" r="6.58"/>
	</g>
	<g>
		<circle style="fill:#E4EBF0;" cx="229.853" cy="440.525" r="6.58"/>
	</g>
	<g>
		<ellipse style="fill:#7E5449;" cx="221.691" cy="40.579" rx="51.941" ry="40.579"/>
	</g>
	<g>
		<path style="fill:#545465;" d="M195.279,220.989c-14.74,0-26.733-11.993-26.733-26.733s11.993-26.733,26.733-26.733
			s26.733,11.993,26.733,26.733S210.019,220.989,195.279,220.989z M195.279,174.104c-11.112,0-20.152,9.04-20.152,20.152
			s9.04,20.152,20.152,20.152s20.152-9.04,20.152-20.152S206.391,174.104,195.279,174.104z"/>
	</g>
	<g>
		<path style="fill:#545465;" d="M264.247,220.989c-14.74,0-26.733-11.993-26.733-26.733s11.993-26.733,26.733-26.733
			c14.74,0,26.733,11.993,26.733,26.733S278.987,220.989,264.247,220.989z M264.247,174.104c-11.112,0-20.152,9.04-20.152,20.152
			s9.04,20.152,20.152,20.152c11.112,0,20.152-9.04,20.152-20.152S275.359,174.104,264.247,174.104z"/>
	</g>
	<g>
		<path style="fill:#545465;" d="M244.562,190.15h-6.58c0-4.532-3.687-8.219-8.219-8.219s-8.219,3.687-8.219,8.219h-6.58
			c0-8.16,6.638-14.799,14.799-14.799S244.562,181.991,244.562,190.15z"/>
	</g>
	<g>
		<path style="fill:#545465;" d="M176.118,184.052h-40.125c-1.817,0-3.29-1.473-3.29-3.29c0-1.817,1.473-3.29,3.29-3.29h40.125
			c1.817,0,3.29,1.473,3.29,3.29C179.408,182.579,177.935,184.052,176.118,184.052z"/>
	</g>
	<g>
		<path style="fill:#545465;" d="M316.994,184.052h-33.591c-1.817,0-3.29-1.473-3.29-3.29c0-1.817,1.473-3.29,3.29-3.29h33.591
			c1.817,0,3.29,1.473,3.29,3.29C320.284,182.579,318.811,184.052,316.994,184.052z"/>
	</g>
	<g>
		<path style="fill:#7E5449;" d="M216.972,64.706c3.697,0,15.701,4.154,25.512,7.794l0.809-1.214c0,0,1.354,1.064,3.698,2.908
			c5.457,2.072,9.462,3.672,9.462,3.672l-1.539,2.566c24.976,19.678,73.553,30.747,73.553,68.584
			c0,44.006-30.619,76.687-30.619,76.687c20.748-80.499-24.903-96.016-74.028-105.176c-18.829-3.511-30.977-11.953-33.17-22.92
			C188.457,86.641,210.392,64.706,216.972,64.706z"/>
	</g>
	<g>
		<path style="fill:#FFE1B2;" d="M143.126,177.857c-9.187-4.357-16.326,2.805-16.326,13.161c0,13.709,13.265,47.296,27.21,26.321
			S152.377,182.244,143.126,177.857z"/>
	</g>
</g>
<g>
</g>
<g>
</g>
<g>
</g>
<g>
</g>
<g>
</g>
<g>
</g>
<g>
</g>
<g>
</g>
<g>
</g>
<g>
</g>
<g>
</g>
<g>
</g>
<g>
</g>
<g>
</g>
<g>
</g>
</svg>
