<?xml version="1.0" encoding="iso-8859-1"?>
<!-- Generator: Adobe Illustrator 19.1.0, SVG Export Plug-In . SVG Version: 6.00 Build 0)  -->
<svg version="1.1" id="Capa_1" xmlns="http://www.w3.org/2000/svg" xmlns:xlink="http://www.w3.org/1999/xlink" x="0px" y="0px"
	 viewBox="0 0 421.141 421.141" style="enable-background:new 0 0 421.141 421.141;" xml:space="preserve">
<g>
	<g>
		<rect x="332.306" y="75.952" style="fill:#545465;" width="6.58" height="157.928"/>
	</g>
	<g>
		<path style="fill:#527992;" d="M222.691,2.115c-6.666-2.82-17.575-2.82-24.241,0L51.602,64.243c-6.666,2.82-6.666,7.435,0,10.256
			l146.847,62.127c6.666,2.82,17.575,2.82,24.241,0l146.847-62.127c6.666-2.82,6.666-7.435,0-10.256L222.691,2.115z"/>
	</g>
	<g>
		<path style="fill:#FFE1B2;" d="M298.035,174.712c10.767-2.468,17.821,2.805,17.821,13.161c0,13.709-14.479,47.296-29.701,26.321
			S298.035,174.712,298.035,174.712z"/>
	</g>
	<g>
		<path style="fill:#FFE1B2;" d="M121.611,174.712c-9.864-2.468-16.326,2.805-16.326,13.161c0,13.709,13.265,47.296,27.21,26.321
			S121.611,174.712,121.611,174.712z"/>
	</g>
	<g>
		<path style="fill:#FFD7A3;" d="M138.277,291.351c14.716-9.475,13.07-37.675,13.07-44.255h118.446c0,6.58-1.825,34.78,12.89,44.255
			l-72.113,80.771L138.277,291.351z"/>
	</g>
	<g>
		<path style="fill:#FDC88E;" d="M256.632,319.479l26.051-28.129c-14.716-9.474-12.89-37.675-12.89-44.255H151.347
			C159.845,271.528,216.054,313.447,256.632,319.479z"/>
	</g>
	<g>
		<path style="fill:#E4EBF0;" d="M361.918,421.141c10.903,0,19.741-8.838,19.741-19.741v-33.574
			c0-28.954-22.562-59.864-50.138-68.687l-41.168-13.173c-22.149,16.936-53.802,40.039-79.782,40.039s-57.633-23.103-79.782-40.039
			L89.62,299.138c-27.576,8.823-50.138,39.733-50.138,68.687V401.4c0,10.903,8.838,19.741,19.741,19.741H361.918z"/>
	</g>
	<g>
		<path style="fill:#545465;" d="M223.731,345.744c0,3.619-2.961,6.58-6.58,6.58H203.99c-3.619,0-6.58-2.961-6.58-6.58v-13.161
			c0-3.619,2.961-6.58,6.58-6.58h13.161c3.619,0,6.58,2.961,6.58,6.58V345.744z"/>
	</g>
	<g>
		<path style="fill:#D0D7DC;" d="M210.57,326.003l-27.456,27.456c-2.859,2.859-7.596,2.487-9.975-0.783l-48.113-66.156
			l15.326-15.326c2.475-2.475,6.454-2.579,9.055-0.238L210.57,326.003z"/>
	</g>
	<g>
		<path style="fill:#D0D7DC;" d="M210.57,326.003l27.456,27.456c2.859,2.859,7.596,2.487,9.975-0.783l48.113-66.156l-15.326-15.326
			c-2.475-2.475-6.454-2.579-9.055-0.238L210.57,326.003z"/>
	</g>
	<g>
		<polygon style="fill:#545465;" points="219.611,348.623 210.57,352.325 201.53,348.623 197.41,421.141 223.731,421.141 		"/>
	</g>
	<g>
		<path style="fill:#FFE1B2;" d="M302.695,161.552c0,52.696-30.343,118.446-92.124,118.446s-92.124-65.75-92.124-118.446
			c0-72.44,41.246-98.761,92.124-98.761S302.695,89.523,302.695,161.552z"/>
	</g>
	<g>
		<path style="fill:#DEC5A9;" d="M300.536,142.297c-5.308-6.759-11.001-13.704-11.001-13.704v6.58
			c1.645,59.634-19.741,85.544-19.741,85.544l-27.249,3.027c-21.251,2.361-42.697,2.361-63.948,0l-27.249-3.027
			c0,0-21.386-25.91-19.741-85.544v-6.58c0,0-5.694,6.944-11.001,13.704c-1.383,5.869-2.159,12.25-2.159,19.254
			c0,52.696,30.343,118.446,92.124,118.446s92.124-65.75,92.124-118.446C302.695,154.547,301.919,148.166,300.536,142.297z
			 M230.311,262.668c-7.268,0-13.161-5.892-13.161-13.161H203.99c0,7.268-5.892,13.161-13.161,13.161s-13.161-5.892-13.161-13.161
			c0-7.269,5.892-13.161,13.161-13.161h39.482c7.268,0,13.161,5.892,13.161,13.161C243.472,256.775,237.58,262.668,230.311,262.668z
			"/>
	</g>
	<g>
		<path style="fill:#527992;" d="M125.499,287.713L125.499,287.713L89.62,299.194c-27.576,8.823-50.138,39.733-50.138,68.687v33.574
			c0,10.109,7.627,18.347,17.423,19.507h114.183L125.499,287.713z"/>
	</g>
	<g>
		<path style="fill:#527992;" d="M295.641,287.713L295.641,287.713l35.879,11.481c27.576,8.823,50.138,39.733,50.138,68.687v33.574
			c0,10.109-7.627,18.347-17.423,19.507H250.052L295.641,287.713z"/>
	</g>
	<g>
		<g>
			<g>
				<path style="fill:#545465;" d="M195.828,172.808v4.935c0,14.514-11.808,26.321-26.321,26.321h-6.58
					c-7.257,0-13.161-5.904-13.161-13.161v-18.096H195.828 M195.828,166.227h-46.062c-3.634,0-6.58,2.946-6.58,6.58v18.096
					c0,10.903,8.838,19.741,19.741,19.741h6.58c18.171,0,32.902-14.731,32.902-32.902v-4.935
					C202.408,169.174,199.462,166.227,195.828,166.227L195.828,166.227z"/>
			</g>
		</g>
		<g>
			<g>
				<path style="fill:#545465;" d="M271.375,172.808v18.096c0,7.257-5.904,13.161-13.161,13.161h-6.58
					c-14.514,0-26.321-11.808-26.321-26.321v-4.935H271.375 M271.375,166.227h-46.062c-3.634,0-6.58,2.946-6.58,6.58v4.935
					c0,18.171,14.731,32.902,32.902,32.902h6.58c10.903,0,19.741-8.838,19.741-19.741v-18.096
					C277.955,169.174,275.009,166.227,271.375,166.227L271.375,166.227z"/>
			</g>
		</g>
		<g>
			<g>
				<polygon style="fill:#545465;" points="118.355,166.227 149.765,166.227 149.765,181.881 118.355,174.314 				"/>
			</g>
		</g>
		<g>
			<g>
				<polygon style="fill:#545465;" points="302.785,166.227 271.375,166.227 271.375,181.881 302.785,174.314 				"/>
			</g>
		</g>
		<g>
			<g>
				<path style="fill:#545465;" d="M225.601,181.881h-6.58c0-2.847-3.949-5.347-8.45-5.347s-8.45,2.5-8.45,5.347h-6.58
					c0-6.69,6.603-11.927,15.031-11.927S225.601,175.192,225.601,181.881z"/>
			</g>
		</g>
	</g>
	<g>
		<path style="fill:#DCDCDC;" d="M302.564,157.976c-1.387-69.26-41.991-95.185-91.994-95.185c-50.007,0-90.615,25.534-91.994,95.186
			c23.772-16.66,39.352-44.213,39.352-75.445c0-0.172-0.025-0.337-0.026-0.508c13.98,12.549,32.403,20.249,52.668,20.249
			s38.688-7.7,52.668-20.249c-0.001,0.171-0.026,0.337-0.026,0.508C263.213,113.763,278.793,141.316,302.564,157.976z"/>
	</g>
	<g>
		<path style="fill:#545465;" d="M296.114,122.013c-57.029,0-114.059,0-171.088,0c0-19.741,0-26.321,0-46.062
			c53.743-27.383,117.346-27.383,171.088,0C296.114,95.692,296.114,102.272,296.114,122.013z"/>
	</g>
	<g>
		<circle style="fill:#FFD267;" cx="210.57" cy="89.112" r="13.161"/>
	</g>
	<g>
		<path style="fill:#FFD267;" d="M327.935,233.787l-5.499,32.994h26.321l-5.499-32.994c-0.624-3.744-3.863-6.488-7.659-6.488h-0.005
			C331.798,227.299,328.559,230.043,327.935,233.787z"/>
	</g>
	<g>
		<path style="fill:#475F7F;" d="M147.657,394.819h-45.662c-5.451,0-9.87,4.42-9.87,9.87v15.71h65.403v-15.71
			C157.527,399.239,153.108,394.819,147.657,394.819z"/>
	</g>
	<g>
		<path style="fill:#475F7F;" d="M319.146,394.819h-45.661c-5.451,0-9.87,4.42-9.87,9.87v15.71h65.402v-15.71
			C329.016,399.239,324.597,394.819,319.146,394.819z"/>
	</g>
</g>
<g>
</g>
<g>
</g>
<g>
</g>
<g>
</g>
<g>
</g>
<g>
</g>
<g>
</g>
<g>
</g>
<g>
</g>
<g>
</g>
<g>
</g>
<g>
</g>
<g>
</g>
<g>
</g>
<g>
</g>
</svg>
