<?xml version="1.0" encoding="iso-8859-1"?>
<!-- Generator: Adobe Illustrator 19.1.0, SVG Export Plug-In . SVG Version: 6.00 Build 0)  -->
<svg version="1.1" id="Capa_1" xmlns="http://www.w3.org/2000/svg" xmlns:xlink="http://www.w3.org/1999/xlink" x="0px" y="0px"
	 viewBox="0 0 421.141 421.141" style="enable-background:new 0 0 421.141 421.141;" xml:space="preserve">
<g>
	<g>
		<path style="fill:#545465;" d="M301.4,78.019c10.622-56.485-32.979-77.91-90.631-78.009V0c-0.067,0-0.131,0.005-0.198,0.005
			c-0.067,0-0.131-0.005-0.198-0.005v0.01c-57.653,0.099-101.252,21.524-90.631,78.009c9.87,52.491-68.545,134.201,25.314,231.693
			l65.515-107.911l65.515,107.911C369.945,212.22,291.529,130.51,301.4,78.019z"/>
	</g>
	<g>
		<path style="fill:#FFD7A3;" d="M256.99,232.521h-0.358v-15.37h-92.124v15.354c0,15.042-0.063,31.392-13.161,41.282v147.354h59.223
			c0,0,31.011,0,59.223,0V273.557C257.031,263.642,256.99,247.434,256.99,232.521z"/>
	</g>
	<g>
		<path style="fill:#FF6953;" d="M309.275,282.954h-2.193c-24.994,0-37.508-6.641-43.869-16.165l-52.643,35.906l0,0l-52.643-35.906
			c-6.361,9.524-18.875,16.165-43.869,16.165h-2.193c-39.976,0-72.384,32.407-72.384,72.384V401.4
			c0,10.902,8.838,19.741,19.741,19.741h111.865h23.163h32.638h36.323h98.705c10.903,0,19.741-8.839,19.741-19.741v-46.062
			C381.659,315.361,349.251,282.954,309.275,282.954z"/>
	</g>
	<g>
		<path style="fill:#FDC88E;" d="M256.722,296.551c2.401,0.655-2.017-6.751,0-6.58l13.07-16.414
			c-12.762-9.915-12.803-26.124-12.803-41.037h-0.358v-15.37h-72.384l-19.741,6.58C177.668,238.537,211.483,284.213,256.722,296.551
			z"/>
	</g>
	<g>
		<path style="fill:#FFE1B2;" d="M302.695,131.606c0,52.696-52.408,118.446-92.124,118.446s-92.124-65.75-92.124-118.446
			s41.246-72.384,92.124-72.384S302.695,78.91,302.695,131.606z"/>
	</g>
	<g>
		<path style="fill:#E4EBF0;" d="M210.57,302.695l-51.997-36.793l-16.089,12.754l36.978,46.848c2.456,3.42,7.448,3.685,10.253,0.544
			L210.57,302.695z"/>
	</g>
	<g>
		<path style="fill:#E4EBF0;" d="M210.57,302.695l51.997-36.793l16.089,12.754l-36.978,46.848c-2.456,3.42-7.448,3.685-10.253,0.544
			L210.57,302.695z"/>
	</g>
	<g>
		<path style="fill:#FFE1B2;" d="M125.306,149.154c-9.864-2.468-16.326,2.805-16.326,13.161c0,13.709,13.265,47.296,27.21,26.321
			S125.306,149.154,125.306,149.154z"/>
	</g>
	<g>
		<path style="fill:#FFE1B2;" d="M293.791,149.154c9.864-2.468,16.326,2.805,16.326,13.161c0,13.709-13.265,47.296-27.21,26.321
			S293.791,149.154,293.791,149.154z"/>
	</g>
	<g>
		<g>
			<path style="fill:#E54F4F;" d="M304.474,395.56h-37.971c-5.451,0-9.87,4.42-9.87,9.87v15.71h57.712v-15.71
				C314.344,399.979,309.925,395.56,304.474,395.56z"/>
		</g>
	</g>
	<g>
		<g>
			<path style="fill:#E54F4F;" d="M153.126,395.56h-37.971c-5.451,0-9.87,4.42-9.87,9.87v15.71h57.712v-15.71
				C162.997,399.979,158.578,395.56,153.126,395.56z"/>
		</g>
	</g>
	<g>
		<circle style="fill:#E4EBF0;" cx="210.57" cy="368.498" r="6.58"/>
	</g>
	<g>
		<circle style="fill:#E4EBF0;" cx="210.57" cy="335.596" r="6.58"/>
	</g>
	<g>
		<circle style="fill:#E4EBF0;" cx="210.57" cy="401.4" r="6.58"/>
	</g>
	<g>
		<path style="fill:#FF6953;" d="M119.542,78.019c0-4.285,1.475-8.482,4.38-11.885c16.753-19.616,45.575-36.516,86.647-36.516
			s69.894,16.901,86.647,36.516c2.906,3.402,4.38,7.599,4.38,11.885v27.892c-26.182-14.329-45.925-33.938-91.028-33.938
			s-67.712,18.479-91.028,33.938V78.019z"/>
	</g>
	<g>
		<path style="fill:#E54F4F;" d="M119.542,92.124c14.241-15.325,45.925-26.321,91.028-26.321s76.787,10.997,91.028,26.321
			l6.58,23.667c-26.182-9.992-52.506-23.667-97.608-23.667s-74.293,12.886-97.608,23.667L119.542,92.124z"/>
	</g>
	<g>
		<path style="fill:#FF6953;" d="M308.178,115.791c-18.79-14.527-55.737-23.667-97.608-23.667s-78.818,9.14-97.608,23.667
			l1.877,4.48c1.708,4.075,7.196,5.509,11.153,2.988c17.004-10.83,49.62-17.975,84.577-17.975s67.573,7.145,84.577,17.975
			c3.958,2.521,9.446,1.087,11.153-2.988L308.178,115.791z"/>
	</g>
	<g>
		<circle style="fill:#545465;" cx="286.244" cy="332.306" r="9.87"/>
	</g>
	<g>
		<rect x="282.954" y="335.596" style="fill:#545465;" width="6.58" height="19.741"/>
	</g>
	<g>
		<rect x="250.052" y="348.757" style="fill:#FFFFFF;" width="72.384" height="32.902"/>
	</g>
</g>
<g>
</g>
<g>
</g>
<g>
</g>
<g>
</g>
<g>
</g>
<g>
</g>
<g>
</g>
<g>
</g>
<g>
</g>
<g>
</g>
<g>
</g>
<g>
</g>
<g>
</g>
<g>
</g>
<g>
</g>
</svg>
