<?xml version="1.0" encoding="iso-8859-1"?>
<!-- Generator: Adobe Illustrator 19.1.0, SVG Export Plug-In . SVG Version: 6.00 Build 0)  -->
<svg version="1.1" id="Capa_1" xmlns="http://www.w3.org/2000/svg" xmlns:xlink="http://www.w3.org/1999/xlink" x="0px" y="0px"
	 viewBox="0 0 509.975 509.975" style="enable-background:new 0 0 509.975 509.975;" xml:space="preserve">
<g>
	<g>
		<path style="fill:#B06E53;" d="M176.024,131.606l107.479-29.611l-67.997,273.083C129.413,331.209,92.124,276.373,176.024,131.606z
			"/>
	</g>
	<g>
		<path style="fill:#B06E53;" d="M333.874,131.606l-107.479-29.611l67.997,273.083C380.484,331.209,417.773,276.373,333.874,131.606
			z"/>
	</g>
	<g>
		<path style="fill:#FFD7A3;" d="M301.408,331.225h-0.358v-15.37h-92.124v15.354c0,15.042-0.063,31.392-13.161,41.282l59.223,24.384
			l59.223-24.614C301.448,362.347,301.408,346.138,301.408,331.225z"/>
	</g>
	<g>
		<path style="fill:#E4EBF0;" d="M353.692,381.659h-2.193c-24.994,0-37.508-6.641-43.869-16.165l-52.643,31.382l-52.643-31.382
			c-6.361,9.524-18.875,16.165-43.869,16.165h-2.193c-39.976,0-72.384,32.407-72.384,72.384v36.192
			c0,10.902,8.838,19.741,19.741,19.741h302.695c10.903,0,19.741-8.839,19.741-19.741v-36.192
			C426.076,414.066,393.669,381.659,353.692,381.659z"/>
	</g>
	<g>
		<path style="fill:#FDC88E;" d="M287.244,385.538c3.003-3.739,6.522-6.91,10.282-9.87c3.536-3.512,7.65-6.034,12.275-7.68
			c-8.334-9.932-8.393-23.827-8.393-36.761l-0.358-8.79v-6.58h-72.384l-19.741,6.58c10.389,17.063,37.09,52.522,73.351,69.806
			C283.574,389.798,285.127,387.503,287.244,385.538z"/>
	</g>
	<g>
		<path style="fill:#FFE1B2;" d="M347.112,230.311c0,52.696-52.408,118.446-92.124,118.446s-92.124-65.75-92.124-118.446
			s41.246-78.964,92.124-78.964S347.112,177.615,347.112,230.311z"/>
	</g>
	<g>
		<path style="fill:#B06E53;" d="M242.197,125.026c3.697,0,15.701,4.154,25.512,7.794l0.809-1.214c0,0,1.354,1.064,3.698,2.908
			c5.457,2.072,9.462,3.672,9.462,3.672h39.112c24.976,19.678,32.902,78.298,32.902,85.544c0,55.933-5.04,129.211-6.58,33.724
			c-0.823-50.997-20.289-72.135-72.658-81.706c-25.499-4.66-66.996-6.717-68.271-21.112
			C205.196,143.497,235.616,125.026,242.197,125.026z"/>
	</g>
	<g>
		<path style="fill:#B06E53;" d="M220.852,155.46c0,0-57.989,13.535-57.989,74.851c0,0.274-6.21-32.902-6.21-32.902
			s17.548-44.966,19.741-46.062s19.741-39.482,19.741-39.482l19.587,31.668L220.852,155.46z"/>
	</g>
	<g>
		<path style="fill:#E4EBF0;" d="M254.987,0c-32.518,0-62.441,3.038-86.404,8.129c-3.283,0.697-5.448,3.807-5.089,7.145
			l12.529,116.333c24.839-5.857,43.804-9.409,78.964-9.409s54.125,3.552,78.964,9.409L346.48,15.273
			c0.359-3.337-1.806-6.447-5.089-7.145C317.429,3.038,287.506,0,254.987,0z"/>
	</g>
	<g>
		<path style="fill:#FFE1B2;" d="M167.469,237.493c-9.864-2.468-16.326,2.805-16.326,13.161c0,13.709,13.265,47.296,27.21,26.321
			C192.298,256,167.469,237.493,167.469,237.493z"/>
	</g>
	<g>
		<path style="fill:#D0D7DC;" d="M254.987,100.923c-36.343,0-57.911,3.247-82.479,8.728c-3.215,0.717-5.42,3.731-5.131,7.012
			l1.911,26.808c26.957-6.357,47.54-10.212,85.699-10.212s58.742,3.855,85.699,10.212l1.911-26.808
			c0.289-3.282-1.915-6.295-5.131-7.012C312.898,104.17,291.331,100.923,254.987,100.923z"/>
	</g>
	<g>
		<g>
			<path style="fill:#FF6953;" d="M254.987,435.069c-33.195,0-61.645-23.39-67.843-54.462c-0.772-3.87,2.019-7.571,5.952-7.896
				l12.696-1.049c2.021,24.487,23.632,43.665,49.195,43.665c25.666,0,47.28-19.262,49.208-43.852l12.701,0.995
				c3.934,0.308,6.74,3.998,5.985,7.871C316.801,411.563,288.326,435.069,254.987,435.069z"/>
		</g>
	</g>
	<g>
		<circle style="fill:#FF6953;" cx="254.987" cy="425.199" r="14.922"/>
	</g>
	<g>
		<path style="fill:#D0D7DC;" d="M254.987,396.876l-50.443-32.325c-1.466-0.94-3.411-0.574-4.435,0.834l-6.025,8.278l37.674,35.888
			c2.485,2.367,6.373,2.427,8.929,0.137L254.987,396.876z"/>
	</g>
	<g>
		<path style="fill:#D0D7DC;" d="M254.987,396.876l50.443-32.325c1.466-0.94,3.411-0.574,4.435,0.834l6.025,8.278l-37.674,35.888
			c-2.485,2.367-6.373,2.427-8.929,0.137L254.987,396.876z"/>
	</g>
	<g>
		<path style="fill:#FF6953;" d="M261.894,461.949c7.308,12.811,18.08,21.526,28.355,24.251c2.883-10.231,0.864-23.939-6.445-36.75
			s-18.08-21.526-28.354-24.251C252.567,435.43,254.586,449.138,261.894,461.949z"/>
	</g>
	<g>
		<path style="fill:#FF6953;" d="M248.126,461.949c-7.308,12.811-18.08,21.526-28.355,24.251
			c-2.883-10.231-0.864-23.939,6.445-36.75s18.08-21.526,28.354-24.251C257.454,435.43,255.434,449.138,248.126,461.949z"/>
	</g>
	<g>
		<circle style="fill:#545465;" cx="206.183" cy="452.397" r="6.58"/>
	</g>
	<g>
		<circle style="fill:#545465;" cx="303.714" cy="452.397" r="6.58"/>
	</g>
	<g>
		<circle style="fill:#545465;" cx="206.183" cy="486.2" r="6.58"/>
	</g>
	<g>
		<circle style="fill:#545465;" cx="303.714" cy="486.2" r="6.58"/>
	</g>
</g>
<g>
</g>
<g>
</g>
<g>
</g>
<g>
</g>
<g>
</g>
<g>
</g>
<g>
</g>
<g>
</g>
<g>
</g>
<g>
</g>
<g>
</g>
<g>
</g>
<g>
</g>
<g>
</g>
<g>
</g>
</svg>
