<?xml version="1.0" encoding="iso-8859-1"?>
<!-- Generator: Adobe Illustrator 19.1.0, SVG Export Plug-In . SVG Version: 6.00 Build 0)  -->
<svg version="1.1" id="Capa_1" xmlns="http://www.w3.org/2000/svg" xmlns:xlink="http://www.w3.org/1999/xlink" x="0px" y="0px"
	 viewBox="0 0 388.47 388.47" style="enable-background:new 0 0 388.47 388.47;" xml:space="preserve">
<g>
	<g>
		<path style="fill:#FFE1B2;" d="M278.347,111.922c10.767-2.468,17.821,2.805,17.821,13.161c0,13.709-14.479,47.296-29.701,26.321
			C251.245,130.429,278.347,111.922,278.347,111.922z"/>
	</g>
	<g>
		<path style="fill:#FFE1B2;" d="M101.924,111.922c-9.864-2.468-16.326,2.805-16.326,13.161c0,13.709,13.265,47.296,27.21,26.321
			S101.924,111.922,101.924,111.922z"/>
	</g>
	<g>
		<path style="fill:#FFD7A3;" d="M122.032,241.721c14.716-9.475,13.07-50.835,13.07-57.416h118.446
			c0,6.58-1.825,47.941,12.89,57.416l-72.113,67.611L122.032,241.721z"/>
	</g>
	<g>
		<path style="fill:#FDC88E;" d="M233.852,256.689l26.051-14.968c-14.716-9.474-12.89-50.835-12.89-57.416H128.567
			C137.065,208.738,193.274,250.657,233.852,256.689z"/>
	</g>
	<g>
		<path style="fill:#FFE1B2;" d="M286.36,98.761c0,52.696-30.343,118.446-92.124,118.446s-92.124-65.75-92.124-118.446
			C102.111,26.321,143.356,0,194.235,0S286.36,26.733,286.36,98.761z"/>
	</g>
	<g>
		<path style="fill:#DCDCDC;" d="M286.229,95.185C284.842,25.925,244.239,0,194.236,0c-50.007,0-90.615,25.534-91.994,95.186
			c23.772-16.66,39.352-44.213,39.352-75.445c0-0.171-0.025-0.337-0.026-0.508c13.98,12.549,32.403,20.249,52.668,20.249
			s38.688-7.7,52.668-20.249c-0.001,0.171-0.026,0.337-0.026,0.508C246.878,50.973,262.458,78.525,286.229,95.185z"/>
	</g>
	<g>
		<path style="fill:#DCDCDC;" d="M98.759,98.761c0,6.991,0.551,14.213,1.621,21.479l2.844,14.482l11.15-13.303
			c0,0-2.454-29.063,13.449-49.352c10.091-12.875,19.055-27.829,10.419-52.325c-0.66-1.872-1.433-3.651-2.25-5.386
			C113.435,28.97,98.759,55.647,98.759,98.761z"/>
	</g>
	<g>
		<path style="fill:#DCDCDC;" d="M286.229,98.761c0,6.991-0.551,14.213-1.621,21.479l-2.844,14.482l-11.15-13.303
			c0,0,2.454-29.063-13.449-49.352c-10.091-12.875-19.055-27.829-10.419-52.325c0.66-1.872,1.433-3.651,2.25-5.386
			C271.553,28.97,286.229,55.647,286.229,98.761z"/>
	</g>
	<g>
		<path style="fill:#545465;" d="M315.185,243.159l-55.147-13.782v-11.981c0-4.876-5.26-8.401-9.454-5.913
			c-10.287,6.104-25.093,18.237-56.349,19.059c-31.257-0.823-46.062-12.955-56.349-19.059c-4.194-2.489-9.454,1.037-9.454,5.913
			v11.981l-55.147,13.782c-27.576,8.823-50.138,39.733-50.138,68.687v56.883c0,10.903,8.838,19.741,19.741,19.741h151.347h151.347
			c10.903,0,19.741-8.838,19.741-19.741v-56.883C365.323,282.892,342.761,251.982,315.185,243.159z"/>
	</g>
	<g>
		<path style="fill:#E4EBF0;" d="M207.396,249.118c0,3.619-2.961,6.58-6.58,6.58h-13.161c-3.619,0-6.58-2.961-6.58-6.58v-13.161
			c0-3.619,2.961-6.58,6.58-6.58h13.161c3.619,0,6.58,2.961,6.58,6.58V249.118z"/>
	</g>
	<g>
		<g>
			<path style="fill:#D0D7DC;" d="M194.232,301.281c-37.345,0-71.346-26.848-84.603-66.806c-0.858-2.587,0.543-5.382,3.13-6.24
				c2.59-0.861,5.379,0.546,6.24,3.13c11.914,35.915,42.149,60.045,75.233,60.045c33.091,0,63.326-24.136,75.24-60.058
				c0.855-2.587,3.656-3.991,6.237-3.133c2.59,0.858,3.991,3.65,3.133,6.237C265.587,274.426,231.584,301.281,194.232,301.281z"/>
		</g>
	</g>
	<g>
		<g>
			<path style="fill:#D0D7DC;" d="M194.235,312.623c-1.819,0-3.29-1.472-3.29-3.29v-12.987c0-1.819,1.472-3.29,3.29-3.29
				c1.819,0,3.29,1.472,3.29,3.29v12.987C197.525,311.151,196.054,312.623,194.235,312.623z"/>
		</g>
	</g>
	<g>
		<rect x="187.655" y="309.506" style="fill:#E4EBF0;" width="13.161" height="65.803"/>
	</g>
	<g>
		<rect x="174.494" y="322.667" style="fill:#E4EBF0;" width="39.482" height="13.161"/>
	</g>
	<g>
		<g>
			<g>
				<path style="fill:#545465;" d="M179.492,110.017v4.935c0,14.514-11.808,26.321-26.321,26.321h-6.58
					c-7.257,0-13.161-5.904-13.161-13.161v-18.096H179.492 M179.492,103.437H133.43c-3.634,0-6.58,2.946-6.58,6.58v18.096
					c0,10.903,8.838,19.741,19.741,19.741h6.58c18.171,0,32.902-14.731,32.902-32.902v-4.935
					C186.073,106.383,183.127,103.437,179.492,103.437L179.492,103.437z"/>
			</g>
		</g>
		<g>
			<g>
				<path style="fill:#545465;" d="M255.04,110.017v18.096c0,7.257-5.904,13.161-13.161,13.161h-6.58
					c-14.514,0-26.321-11.808-26.321-26.321v-4.935H255.04 M255.04,103.437h-46.062c-3.634,0-6.58,2.946-6.58,6.58v4.935
					c0,18.171,14.731,32.902,32.902,32.902h6.58c10.903,0,19.741-8.838,19.741-19.741v-18.096
					C261.62,106.383,258.674,103.437,255.04,103.437L255.04,103.437z"/>
			</g>
		</g>
		<g>
			<g>
				<polygon style="fill:#545465;" points="102.02,103.437 133.43,103.437 133.43,119.091 102.02,111.523 				"/>
			</g>
		</g>
		<g>
			<g>
				<polygon style="fill:#545465;" points="286.45,103.437 255.04,103.437 255.04,119.091 286.45,111.523 				"/>
			</g>
		</g>
		<g>
			<g>
				<path style="fill:#545465;" d="M209.266,119.091h-6.58c0-2.847-3.949-5.347-8.45-5.347s-8.45,2.5-8.45,5.347h-6.58
					c0-6.69,6.603-11.927,15.031-11.927C202.663,107.164,209.266,112.401,209.266,119.091z"/>
			</g>
		</g>
	</g>
</g>
<g>
</g>
<g>
</g>
<g>
</g>
<g>
</g>
<g>
</g>
<g>
</g>
<g>
</g>
<g>
</g>
<g>
</g>
<g>
</g>
<g>
</g>
<g>
</g>
<g>
</g>
<g>
</g>
<g>
</g>
</svg>
