<?xml version="1.0" encoding="iso-8859-1"?>
<!-- Generator: Adobe Illustrator 19.1.0, SVG Export Plug-In . SVG Version: 6.00 Build 0)  -->
<svg version="1.1" id="Capa_1" xmlns="http://www.w3.org/2000/svg" xmlns:xlink="http://www.w3.org/1999/xlink" x="0px" y="0px"
	 viewBox="0 0 401.399 401.399" style="enable-background:new 0 0 401.399 401.399;" xml:space="preserve">
<g>
	<g>
		<path style="fill:#29394A;" d="M360.826,281.309c-9.206-15.065-23.352-27.415-39.176-32.477l-57.613-18.479
			c-2.829-6.806-3.785-14.829-4.072-21.41c-0.144-3.299,1.087-6.435,3.195-8.977c19.836-23.917,29.664-58.099,29.664-88.071
			C292.824,59.198,274.278,0,200.7,0s-92.124,59.198-92.124,111.894c0,29.953,9.815,64.111,29.626,88.025
			c2.119,2.558,3.351,5.717,3.19,9.035c-0.319,6.578-1.317,14.593-4.173,21.393l-57.469,18.484
			c-15.824,5.063-29.97,17.412-39.176,32.477H360.826z"/>
	</g>
	<g>
		<path style="fill:#FFE1B2;" d="M184.24,100.706c4.876,9.752,0.53,21.132-10.628,26.564c-13.07,6.363-31.639,3.669-36.514-6.083
			s3.153-24.745,17.342-30.297C167.977,85.593,179.364,90.955,184.24,100.706z"/>
	</g>
	<g>
		<path style="fill:#FFE1B2;" d="M217.159,100.706c-4.876,9.752-0.53,21.132,10.628,26.564c13.07,6.363,31.639,3.669,36.514-6.083
			c4.876-9.752-3.153-24.745-17.342-30.297C233.423,85.593,222.035,90.955,217.159,100.706z"/>
	</g>
	<g>
		<path style="fill:#FFE1B2;" d="M232.779,177.12c0,10.903-14.362,16.451-32.079,16.451s-32.079-5.548-32.079-16.451
			s14.362-23.031,32.079-23.031S232.779,166.218,232.779,177.12z"/>
	</g>
	<g>
		<path style="fill:#545465;" d="M352.047,401.399c10.903,0,19.741-8.838,19.741-19.741v-66.476
			c0-28.954-22.562-59.864-50.138-68.687l-41.168-13.173c-22.149,16.936-53.802,40.039-79.782,40.039s-57.633-23.103-79.782-40.039
			l-41.168,13.173c-27.576,8.823-50.138,39.733-50.138,68.687v66.476c0,10.903,8.838,19.741,19.741,19.741H352.047z"/>
	</g>
	<g>
		<path style="fill:#29394A;" d="M108.153,232.222l-28.985,10.564c-2.598,0.947-4.327,3.417-4.327,6.183v152.431h39.496V236.55
			C114.337,233.352,111.158,231.127,108.153,232.222z"/>
	</g>
	<g>
		<path style="fill:#29394A;" d="M293.246,232.222l28.985,10.564c2.598,0.947,4.327,3.417,4.327,6.183v152.431h-39.496V236.55
			C287.063,233.352,290.242,231.127,293.246,232.222z"/>
	</g>
</g>
<g>
</g>
<g>
</g>
<g>
</g>
<g>
</g>
<g>
</g>
<g>
</g>
<g>
</g>
<g>
</g>
<g>
</g>
<g>
</g>
<g>
</g>
<g>
</g>
<g>
</g>
<g>
</g>
<g>
</g>
</svg>
